<?xml version="1.0" encoding="utf-8"?>
<!-- Generator: Adobe Illustrator 24.0.1, SVG Export Plug-In . SVG Version: 6.00 Build 0)  -->
<svg version="1.1" id="Layer_1" xmlns="http://www.w3.org/2000/svg" xmlns:xlink="http://www.w3.org/1999/xlink" x="0px" y="0px"
	 viewBox="0 0 112.2 90.6" style="enable-background:new 0 0 112.2 90.6;" xml:space="preserve">
<style type="text/css">
	.st0{fill:#710F11;}
	.st1{fill:#470F0F;}
	.st2{fill:#828282;}
	.st3{fill:#FFFFFF;}
	.st4{fill:#86ABB9;}
</style>
<title>car</title>
<path class="st0" d="M73.9,27.1c21-0.1,38.1,16.8,38.2,37.7v5c0,4.4-3.5,7.9-7.8,7.9c0,0,0,0,0,0L8,78.5c-4.4,0.1-7.9-3.4-8-7.8
	c0,0,0,0,0-0.1v-1.8l0,0C-0.1,46,18.2,27.5,40.9,27.4L73.9,27.1L73.9,27.1z"/>
<circle class="st0" cx="56.1" cy="34.6" r="34.6"/>
<circle class="st1" cx="85.6" cy="76" r="14.1"/>
<circle cx="85.6" cy="76.8" r="13.8"/>
<circle class="st1" cx="25" cy="76" r="14.1"/>
<circle cx="25" cy="76.8" r="13.8"/>
<path class="st2" d="M63.8,8.8c9.6-0.1,17.5,7.5,17.6,16.9c0,0,0,0.1,0,0.1l0,1.4l0,0c0,2.1-1.7,3.9-3.9,3.9c0,0,0,0-0.1,0
	l-42.6,0.1l0,0c-2.2,0-4-1.7-4-3.8c0,0,0,0,0,0l0,0C30.7,17.2,39.2,8.9,49.6,8.8c0,0,0,0,0,0L63.8,8.8L63.8,8.8z"/>
<path class="st3" d="M63.6,8.2c9.4-0.1,17.1,7.5,17.1,16.9c0,0,0,0.1,0,0.1l0,1.4l0,0c0,2.1-1.7,3.9-3.8,3.9c0,0,0,0-0.1,0
	l-41.4,0.2l0,0c-2.1,0-3.9-1.7-3.9-3.8c0,0,0,0,0,0l0,0C31.4,16.6,39.7,8.3,49.8,8.2c0,0,0,0,0,0L63.6,8.2L63.6,8.2z"/>
<path class="st4" d="M33.8,24.1L33.8,24.1c-0.1-0.6,0.1-1.2,0.3-1.7C37.6,14.8,41.3,12,48.8,10c0.7-0.2,1.1,0,0.9,0.1l0,0
	c-0.4,0.4-0.9,0.6-1.5,0.7c-7.2,2.1-10.7,5-13.8,12.4C34.1,24,33.9,24.4,33.8,24.1z"/>
</svg>
