<svg xmlns="http://www.w3.org/2000/svg" viewBox="0 0 792 695.9"><defs><style>.cls-1{fill:#fff;}</style></defs><title>Asset 3</title><g id="Layer_2" data-name="Layer 2"><g id="Layer_3" data-name="Layer 3"><path class="cls-1" d="M148.53,371.25c21.73-22,35.08-49.35,40.3-78.73,48.48,21.82,103.1,24.22,151.89,7.06-8.88,48.55,6.88,102.18,46.49,141.37,61.59,60.94,157.51,63.86,214.24,6.52A135.93,135.93,0,0,0,616,430.05c-14,57.86,15.19,137.49,79,200.64,30.07,29.75,63.72,51.77,96.94,65.21v-434a179.83,179.83,0,0,0-21.11-25.05c-55.94-55.35-136.6-64.54-180.15-20.52a87.19,87.19,0,0,0-7.36,8.44c-36.58-31.21-83-43.88-125.9-37.61,23.8-60.25,17-130.44-20-187.2H91.06A197.49,197.49,0,0,0,64.63,83.46,183.06,183.06,0,0,0,0,70.65V410.72C54,423,110,410.22,148.53,371.25Z"/></g></g></svg>