<svg xmlns="http://www.w3.org/2000/svg" xmlns:xlink="http://www.w3.org/1999/xlink" viewBox="0 0 792 1435.9"><defs><style>.cls-1{fill:none;}.cls-2{clip-path:url(#clip-path);}.cls-3{fill:#fff;}</style><clipPath id="clip-path"><rect class="cls-1" y="0.11" width="792" height="1435.68"/></clipPath></defs><title>clouds1</title><g id="Layer_3" data-name="Layer 3"><g class="cls-2"><path class="cls-3" d="M877.08,420.78A194.61,194.61,0,0,0,922.66,295.7c0-110-92-199.18-205.54-199.18-85.68,0-159.1,50.81-190,123-25.94-34.43-67.54-57.89-115.18-61.4a88.81,88.81,0,0,0,.69-11.1c0-61.52-63.38-111.39-141.56-111.39-60.69,0-112.44,30-132.58,72.26a308.92,308.92,0,0,0-89-12.75C-66.65,95.16-160.8,156-160.8,231S-66.65,366.75,49.5,366.75c89.2,0,165.43-35.87,196-86.49a136,136,0,0,0-1.87,22.5c0,80.13,69.78,145.09,155.86,145.09,55.35,0,104-26.87,131.61-67.36,22.47,46.21,62.72,82.68,112.2,101.15-16.84,24.39-26.55,53.07-26.55,83.76,0,88.75,81.15,160.69,181.26,160.69S979.26,654.15,979.26,565.4C979.26,501.79,937.56,446.81,877.08,420.78Z"/></g></g></svg>