<svg xmlns="http://www.w3.org/2000/svg" viewBox="0 0 33.9 4778.06"><defs><style>.cls-1{fill:#fff;}</style></defs><title>CO2</title><g id="Layer_2" data-name="Layer 2"><g id="Layer_1-2" data-name="Layer 1"><path class="cls-1" d="M10.23,5.84a6.88,6.88,0,0,0-3,.59,4,4,0,0,0-2.21,4A4.44,4.44,0,0,0,6.23,13.5a4.51,4.51,0,0,0,3.48,1.3,3.91,3.91,0,0,0,4-2.42A12.61,12.61,0,0,0,14.27,8h4.29a11,11,0,0,0,.56,4.06,3.5,3.5,0,0,0,3.57,2,4,4,0,0,0,2.84-1,3.7,3.7,0,0,0,1.1-2.92,3.62,3.62,0,0,0-1.34-3.11,5.78,5.78,0,0,0-3.59-1V.47a14.68,14.68,0,0,1,4.3.77,9.76,9.76,0,0,1,3.3,2.31,8,8,0,0,1,1.63,2.79,11.78,11.78,0,0,1,.57,4,10.48,10.48,0,0,1-2.26,7,7.52,7.52,0,0,1-6,2.68,6.67,6.67,0,0,1-4.54-1.6,5.34,5.34,0,0,1-1.57-2.1,4.23,4.23,0,0,1-1.45,2.39A7.48,7.48,0,0,1,9.83,21,9.8,9.8,0,0,1,3,18.33C1.09,16.54.12,13.9.11,10.41q0-6.47,4.22-9A12.61,12.61,0,0,1,10.23,0Z"/><path class="cls-1" d="M26.25,45.42a37.8,37.8,0,0,0-4.71-3.75,42.49,42.49,0,0,0-7-4,41,41,0,0,0-6.91-2.33,29.34,29.34,0,0,0-6.72-1V28.1q8.19.27,17,5.38A40.77,40.77,0,0,1,25.56,39V23.83l5.37.09v21.5Z"/><path class="cls-1" d="M31.54,55.41a6.8,6.8,0,1,1-6.86-6.78,6.76,6.76,0,0,1,4.86,2A6.49,6.49,0,0,1,31.54,55.41ZM24.76,52a3.38,3.38,0,1,0,3.39,3.37,3.34,3.34,0,0,0-1-2.37A3.3,3.3,0,0,0,24.76,52Z"/><path class="cls-1" d="M21.89,66.83H26a25.55,25.55,0,0,0,.38,4,5.54,5.54,0,0,0,1.59,2.93,5.32,5.32,0,0,0,2.19,1.18,5,5,0,0,0,1.21.23v5H.89V74h21Z"/><path class="cls-1" d="M21.89,88.4H26a25.55,25.55,0,0,0,.38,4,5.06,5.06,0,0,0,3.78,4.11,5,5,0,0,0,1.21.23v5H.89V95.61h21Z"/><path class="cls-1" d="M31.8,123.71l-12.56-6.38V113l12.56,4Z"/><path class="cls-1" d="M27.45,143.65Q23.35,146,15.82,146T4.21,143.66C1.49,142.09.13,139.38.13,135.5s1.36-6.6,4.08-8.16S10.79,125,15.82,125s8.9.78,11.63,2.34,4.09,4.28,4.09,8.16S30.18,142.08,27.45,143.65ZM7.79,132A3.47,3.47,0,0,0,5,135.53,3.43,3.43,0,0,0,7.79,139a29.94,29.94,0,0,0,8,.82,29.34,29.34,0,0,0,8.14-.82,3.39,3.39,0,0,0,2.65-3.5A3.44,3.44,0,0,0,24,132a28.28,28.28,0,0,0-8.14-.86A29,29,0,0,0,7.79,132Z"/><path class="cls-1" d="M6.87,150.31q3,1.29,6.45,6.05a43.69,43.69,0,0,0,4.24,5.35,6.28,6.28,0,0,0,4.37,1.87,4.83,4.83,0,0,0,3.21-1.07,4.36,4.36,0,0,0,0-6.17,4.59,4.59,0,0,0-.77-.61,9.89,9.89,0,0,0-3.73-.67v-5.82a14.62,14.62,0,0,1,6.27,1.41q4.56,2.4,4.56,8.51a10.77,10.77,0,0,1-2.68,7.7,9.24,9.24,0,0,1-7.08,2.85,9.58,9.58,0,0,1-6-2,20.1,20.1,0,0,1-3.88-4.35l-1.7-2.4c-1.07-1.5-1.84-2.52-2.31-3.08a6.54,6.54,0,0,0-1.66-1.39v13.29H.89V148.91A14.25,14.25,0,0,1,6.87,150.31Z"/><path class="cls-1" d="M31.8,185.86l-12.56-6.38v-4.33l12.56,4Zm0,10.71-12.56-6.39v-4.32l12.56,4Z"/><path class="cls-1" d="M31.84,200.89v6.78L10.26,220H31.84v6H.89v-6.46l22-12.6H.89v-6Z"/><path class="cls-1" d="M21.89,243.71H26a24.81,24.81,0,0,0,.38,3.95,5.06,5.06,0,0,0,3.78,4.11,5,5,0,0,0,1.21.23v5H.89v-6.14h21Z"/><path class="cls-1" d="M27.45,284.64Q23.35,287,15.82,287T4.21,284.66Q.13,282.3.13,276.48t4.08-8.16Q8.27,266,15.82,266t11.63,2.34q4.1,2.34,4.09,8.16T27.45,284.64ZM7.79,273A3.47,3.47,0,0,0,5,276.53,3.43,3.43,0,0,0,7.79,280a29.94,29.94,0,0,0,8,.82,29.34,29.34,0,0,0,8.14-.82,3.39,3.39,0,0,0,2.65-3.5A3.44,3.44,0,0,0,24,273a28.28,28.28,0,0,0-8.14-.86A29,29,0,0,0,7.79,273Z"/><path class="cls-1" d="M14,290.84a7.45,7.45,0,0,1,3.13,3.39,7.13,7.13,0,0,1,3.18-2.87,8.81,8.81,0,0,1,3.2-.67,7.46,7.46,0,0,1,5.66,2.51c1.56,1.67,2.34,4,2.34,7.07s-.78,5.4-2.34,7.07a7.45,7.45,0,0,1-5.66,2.5,8.8,8.8,0,0,1-3.2-.66,6.15,6.15,0,0,1-3-2.87,8.41,8.41,0,0,1-3.34,3.4,9.49,9.49,0,0,1-4.64,1.14A8.66,8.66,0,0,1,2.79,308q-2.7-2.85-2.7-8t2.7-7.74a9,9,0,0,1,6.54-2.62A9.41,9.41,0,0,1,14,290.84Zm-7.73,6.23a4.81,4.81,0,0,0,0,6.44,4.89,4.89,0,0,0,3.49,1.17,4.87,4.87,0,0,0,3.54-1.19,4.87,4.87,0,0,0,0-6.4,4.87,4.87,0,0,0-3.54-1.19A4.89,4.89,0,0,0,6.24,297.07Zm13.86.38a3.83,3.83,0,0,0,2.71,6.66,3.85,3.85,0,1,0,0-7.69A3.75,3.75,0,0,0,20.1,297.45Z"/><path class="cls-1" d="M31.54,321.22a6.8,6.8,0,1,1-6.84-6.78,6.76,6.76,0,0,1,4.84,2A6.53,6.53,0,0,1,31.54,321.22Zm-6.78-3.4a3.38,3.38,0,1,0,3.39,3.37,3.34,3.34,0,0,0-1-2.37,3.3,3.3,0,0,0-2.41-1Z"/><path class="cls-1" d="M6.87,332.41q3,1.29,6.45,6a43.69,43.69,0,0,0,4.24,5.35,6.28,6.28,0,0,0,4.37,1.87,4.87,4.87,0,0,0,3.21-1.07,4.36,4.36,0,0,0,0-6.17,4.59,4.59,0,0,0-.77-.61,9.89,9.89,0,0,0-3.73-.67v-5.82a14.62,14.62,0,0,1,6.27,1.41q4.56,2.4,4.56,8.51A10.77,10.77,0,0,1,28.8,349a9.2,9.2,0,0,1-7.08,2.86,9.58,9.58,0,0,1-6-2,20.1,20.1,0,0,1-3.88-4.35L10.13,343c-1.07-1.5-1.84-2.53-2.31-3.08a7.18,7.18,0,0,0-1.66-1.4v13.29H.89V331A14.26,14.26,0,0,1,6.87,332.41Z"/><path class="cls-1" d="M28.55,357.68a9.59,9.59,0,0,1,3,7.34q0,6.94-6.16,9.53A24.08,24.08,0,0,1,16.22,376,26,26,0,0,1,7,374.61q-7-2.69-7-9.86a10,10,0,0,1,2-6.16,8,8,0,0,1,5.91-3.13v6a3.62,3.62,0,0,0-2.18,1.13,3.55,3.55,0,0,0-.84,2.46c0,2,1.09,3.36,3.28,4.15a18.82,18.82,0,0,0,5.27.82,6.11,6.11,0,0,1-1.58-1.74,8,8,0,0,1-1-4.13,9.4,9.4,0,0,1,2.51-6.45c1.68-1.88,4.09-2.81,7.24-2.81A11.17,11.17,0,0,1,28.55,357.68ZM16.47,367.75c.87,1.36,2.37,2,4.51,2a6.4,6.4,0,0,0,4.1-1.2,4,4,0,0,0,1.51-3.31,4.13,4.13,0,0,0-.86-2.62q-1.35-1.72-4.56-1.73A6.31,6.31,0,0,0,17.11,362a4.11,4.11,0,0,0-1.36,3.39A4.23,4.23,0,0,0,16.47,367.75Z"/><path class="cls-1" d="M31.8,391.87l-12.56-6.38v-4.33l12.56,4Z"/><path class="cls-1" d="M21.89,394.79H26a25.55,25.55,0,0,0,.38,4,5.54,5.54,0,0,0,1.59,2.93,5.3,5.3,0,0,0,2.19,1.17,4.54,4.54,0,0,0,1.21.23v5H.89V402h21Z"/><path class="cls-1" d="M28.55,419.83a9.59,9.59,0,0,1,3,7.34q0,6.94-6.16,9.53a24.08,24.08,0,0,1-9.17,1.47A26,26,0,0,1,7,436.76q-7-2.68-7-9.87a10.08,10.08,0,0,1,2-6.15,8,8,0,0,1,5.91-3.13v6a3.59,3.59,0,0,0-2.18,1.13,3.55,3.55,0,0,0-.84,2.46c0,2,1.09,3.36,3.28,4.15a18.82,18.82,0,0,0,5.27.82,6.11,6.11,0,0,1-1.58-1.74,8,8,0,0,1-1-4.14,9.42,9.42,0,0,1,2.51-6.44Q15.91,417,20.63,417A11.18,11.18,0,0,1,28.55,419.83ZM16.47,429.9c.87,1.33,2.38,2,4.51,2a6.4,6.4,0,0,0,4.1-1.2,4,4,0,0,0,1.51-3.31,4.15,4.15,0,0,0-.86-2.63c-.9-1.14-2.42-1.72-4.56-1.72a6.37,6.37,0,0,0-4.06,1.1,4.58,4.58,0,0,0-.64,5.73Z"/><path class="cls-1" d="M31.8,454l-12.56-6.38v-4.33l12.56,4Zm0,10.71-12.56-6.39V454l12.56,4Z"/><path class="cls-1" d="M31.84,473.37l-17.73,4.08-4.93.89,4.83.9,17.83,3.49v6.82l-17.72,3.68-4.94.94,4.75,1,17.91,4.12v6.59L.89,497.17V491L19,487.24l6-1.09-6-1.09L.89,481.32v-6l31-8.78Z"/><path class="cls-1" d="M12.24,698.78a6.88,6.88,0,0,0-3,.59,4,4,0,0,0-2.21,4,4.39,4.39,0,0,0,1.21,3.07,4.5,4.5,0,0,0,3.48,1.3,3.91,3.91,0,0,0,4-2.42,12.61,12.61,0,0,0,.56-4.36h4.29a11,11,0,0,0,.56,4.06,3.49,3.49,0,0,0,3.57,2,4,4,0,0,0,2.84-1,3.7,3.7,0,0,0,1.09-2.85,3.65,3.65,0,0,0-1.34-3.11,5.8,5.8,0,0,0-3.59-1v-5.58a14.68,14.68,0,0,1,4.3.77,9.76,9.76,0,0,1,3.3,2.31,8,8,0,0,1,1.63,2.79,12,12,0,0,1,.57,4,10.53,10.53,0,0,1-2.26,7,7.53,7.53,0,0,1-6,2.68,6.67,6.67,0,0,1-4.55-1.65,5.34,5.34,0,0,1-1.57-2.1,4.31,4.31,0,0,1-1.41,2.35,7.48,7.48,0,0,1-5.8,2.29,9.79,9.79,0,0,1-6.79-2.67q-2.92-2.68-2.93-7.92,0-6.47,4.22-9a12.56,12.56,0,0,1,5.88-1.47Z"/><path class="cls-1" d="M28.26,738.38a37.8,37.8,0,0,0-4.71-3.75,42.91,42.91,0,0,0-7-4,42,42,0,0,0-6.91-2.35,29.43,29.43,0,0,0-6.72-1v-6.21q8.19.27,17,5.38A41,41,0,0,1,27.56,732V716.8l5.37.09v21.49Z"/><path class="cls-1" d="M33.55,748.38a6.85,6.85,0,1,1-2-4.77A6.49,6.49,0,0,1,33.55,748.38ZM26.77,745a3.38,3.38,0,1,0,2.41,1,3.33,3.33,0,0,0-2.41-1Z"/><path class="cls-1" d="M23.9,759.77H28a25.55,25.55,0,0,0,.38,4,5.47,5.47,0,0,0,1.59,2.93,5.25,5.25,0,0,0,2.19,1.18,5,5,0,0,0,1.21.23v5H2.9V767h21Z"/><path class="cls-1" d="M23.9,781.38H28a25.55,25.55,0,0,0,.38,4,5.06,5.06,0,0,0,3.78,4.11,5,5,0,0,0,1.21.23v5H2.9v-6.13h21Z"/><path class="cls-1" d="M33.81,816.65l-12.56-6.38v-4.33l12.56,4Z"/><path class="cls-1" d="M29.46,836.59q-4.09,2.34-11.63,2.34T6.22,836.59c-2.72-1.57-4.08-4.28-4.08-8.16s1.36-6.6,4.08-8.16,6.58-2.34,11.61-2.34,8.9.78,11.63,2.34,4.09,4.28,4.09,8.16S32.19,835,29.46,836.59ZM9.8,824.9A3.47,3.47,0,0,0,7,828.43a3.42,3.42,0,0,0,2.79,3.5,29.94,29.94,0,0,0,8,.82,29.34,29.34,0,0,0,8.14-.82,3.39,3.39,0,0,0,2.65-3.5,3.44,3.44,0,0,0-2.65-3.53A28.28,28.28,0,0,0,17.8,824,28.71,28.71,0,0,0,9.8,824.9Z"/><path class="cls-1" d="M8.88,843.25q3,1.29,6.45,6a43.69,43.69,0,0,0,4.24,5.35,6.24,6.24,0,0,0,4.37,1.87,4.87,4.87,0,0,0,3.21-1.07,4.37,4.37,0,0,0,0-6.17,5,5,0,0,0-.77-.61,9.93,9.93,0,0,0-3.73-.67v-5.82a14.62,14.62,0,0,1,6.27,1.41q4.56,2.4,4.56,8.51a10.81,10.81,0,0,1-2.68,7.7,9.21,9.21,0,0,1-7.08,2.85,9.56,9.56,0,0,1-6-2,19.84,19.84,0,0,1-3.88-4.35l-1.7-2.4c-1.07-1.5-1.84-2.53-2.31-3.08a6.9,6.9,0,0,0-1.66-1.39v13.29H2.9V841.87A14.23,14.23,0,0,1,8.88,843.25Z"/><path class="cls-1" d="M33.81,878.8l-12.56-6.42v-4.33l12.56,4Zm0,10.71-12.56-6.39V878.8l12.56,4Z"/><path class="cls-1" d="M33.85,893.83v6.78L12.27,912.9H33.85v6H2.9v-6.46l22-12.6H2.9v-6Z"/><path class="cls-1" d="M23.9,936.64H28a25.55,25.55,0,0,0,.38,4,5.06,5.06,0,0,0,3.78,4.11,5,5,0,0,0,1.21.23v5H2.9v-6.13h21Z"/><path class="cls-1" d="M29.46,977.58q-4.09,2.34-11.63,2.34T6.22,977.58q-4.08-2.34-4.08-8.2t4.08-8.16q4.05-2.34,11.61-2.34t11.63,2.34q4.08,2.34,4.09,8.16T29.46,977.58ZM9.8,965.89A3.47,3.47,0,0,0,7,969.42a3.42,3.42,0,0,0,2.79,3.5,29.94,29.94,0,0,0,8,.82,29.34,29.34,0,0,0,8.14-.82,3.39,3.39,0,0,0,2.7-3.54A3.44,3.44,0,0,0,26,965.85a28.28,28.28,0,0,0-8.14-.86A28.76,28.76,0,0,0,9.8,965.89Z"/><path class="cls-1" d="M16,983.78a7.35,7.35,0,0,1,3.13,3.39,7.13,7.13,0,0,1,3.18-2.87,8.77,8.77,0,0,1,3.2-.67,7.47,7.47,0,0,1,5.66,2.51c1.56,1.67,2.34,4,2.34,7.07s-.78,5.4-2.34,7.07a7.46,7.46,0,0,1-5.66,2.5,8.8,8.8,0,0,1-3.2-.66,6.07,6.07,0,0,1-3-2.87,8.41,8.41,0,0,1-3.34,3.4,9.52,9.52,0,0,1-4.64,1.14,8.69,8.69,0,0,1-6.54-2.85q-2.7-2.85-2.7-8t2.7-7.74a9,9,0,0,1,6.54-2.62A9.4,9.4,0,0,1,16,983.78ZM8.25,990a4.79,4.79,0,0,0,0,6.44,4.88,4.88,0,0,0,3.49,1.17,4.88,4.88,0,0,0,3.54-1.19,4.87,4.87,0,0,0,0-6.4,4.88,4.88,0,0,0-3.54-1.19A4.88,4.88,0,0,0,8.25,990Zm13.86.38a3.83,3.83,0,0,0,2.71,6.66,3.84,3.84,0,0,0,3-6.45,3.82,3.82,0,0,0-3-1.24,3.72,3.72,0,0,0-2.71,1Z"/><path class="cls-1" d="M33.55,1014.16a6.8,6.8,0,1,1-6.84-6.78,6.76,6.76,0,0,1,4.84,2A6.53,6.53,0,0,1,33.55,1014.16Zm-6.78-3.4a3.38,3.38,0,1,0,2.41,1,3.32,3.32,0,0,0-2.41-1Z"/><path class="cls-1" d="M8.88,1025.38q3,1.29,6.45,6a43.69,43.69,0,0,0,4.24,5.35,6.24,6.24,0,0,0,4.37,1.87,4.87,4.87,0,0,0,3.21-1.07,3.8,3.8,0,0,0,1.28-3.07,3.75,3.75,0,0,0-2-3.71,9.93,9.93,0,0,0-3.73-.67v-5.82a14.62,14.62,0,0,1,6.27,1.41q4.56,2.4,4.56,8.51a10.77,10.77,0,0,1-2.68,7.69,9.22,9.22,0,0,1-7.08,2.86,9.56,9.56,0,0,1-6-2,19.84,19.84,0,0,1-3.93-4.4l-1.7-2.4c-1.07-1.5-1.84-2.53-2.31-3.08a7.18,7.18,0,0,0-1.66-1.4v13.29H2.9v-20.85A14.3,14.3,0,0,1,8.88,1025.38Z"/><path class="cls-1" d="M30.56,1050.62a9.59,9.59,0,0,1,3,7.34q0,6.94-6.16,9.53a23.89,23.89,0,0,1-9.17,1.47A26,26,0,0,1,9,1067.55q-7-2.68-7-9.87a10,10,0,0,1,2-6.15,8,8,0,0,1,5.91-3.13v6a3.59,3.59,0,0,0-2.18,1.13A3.5,3.5,0,0,0,6.9,1058c0,2,1.09,3.36,3.28,4.15a18.82,18.82,0,0,0,5.27.82,6.11,6.11,0,0,1-1.58-1.74,7.85,7.85,0,0,1-1-4.13,9.35,9.35,0,0,1,2.51-6.45c1.68-1.88,4.09-2.81,7.24-2.81A11.17,11.17,0,0,1,30.56,1050.62Zm-12.08,10.07c.87,1.36,2.37,2,4.51,2a6.4,6.4,0,0,0,4.1-1.2,4,4,0,0,0,1.51-3.31,4.13,4.13,0,0,0-.86-2.62q-1.35-1.72-4.56-1.73a6.3,6.3,0,0,0-4.06,1.11,4.11,4.11,0,0,0-1.36,3.39A4.23,4.23,0,0,0,18.48,1060.69Z"/><path class="cls-1" d="M33.81,1084.81l-12.56-6.38v-4.33l12.56,4Z"/><path class="cls-1" d="M23.9,1087.73H28a25.55,25.55,0,0,0,.38,4,5.47,5.47,0,0,0,1.59,2.93,5.18,5.18,0,0,0,2.19,1.17,4.54,4.54,0,0,0,1.21.23v5H2.9v-6.13h21Z"/><path class="cls-1" d="M30.56,1112.77a9.59,9.59,0,0,1,3,7.34q0,6.95-6.16,9.53a23.89,23.89,0,0,1-9.17,1.47A26,26,0,0,1,9,1129.7q-7-2.68-7-9.87a10,10,0,0,1,2-6.15,8,8,0,0,1,5.91-3.13v6a3.59,3.59,0,0,0-2.18,1.13,3.46,3.46,0,0,0-.84,2.46c0,2,1.09,3.36,3.28,4.15a18.82,18.82,0,0,0,5.27.82,6.11,6.11,0,0,1-1.58-1.74,7.87,7.87,0,0,1-1-4.14,9.38,9.38,0,0,1,2.51-6.44q2.52-2.82,7.24-2.82A11.18,11.18,0,0,1,30.56,1112.77Zm-12.08,10.07q1.31,2,4.51,2a6.4,6.4,0,0,0,4.1-1.2,4,4,0,0,0,1.55-3.26,4.15,4.15,0,0,0-.86-2.63c-.9-1.14-2.42-1.72-4.56-1.72a6.37,6.37,0,0,0-4.06,1.1,4.58,4.58,0,0,0-.64,5.73Z"/><path class="cls-1" d="M33.81,1147l-12.56-6.38v-4.33l12.56,4Zm0,10.71-12.56-6.39V1147l12.56,4Z"/><path class="cls-1" d="M33.85,1166.31l-17.73,4.07-4.93.89,4.83.9,17.83,3.49v6.82l-17.72,3.68-4.94.94,4.75,1,17.91,4.12v6.59L2.9,1190.1v-6.19l18.1-3.74,6-1.09L21,1178l-18.1-3.74v-6l31-8.78Z"/><path class="cls-1" d="M10.23,1430.27a6.88,6.88,0,0,0-3,.59,4,4,0,0,0-2.21,4,4.4,4.4,0,0,0,1.21,3.07,4.48,4.48,0,0,0,3.48,1.3,3.9,3.9,0,0,0,4-2.42,12.58,12.58,0,0,0,.56-4.36h4.29a10.94,10.94,0,0,0,.56,4.06,3.48,3.48,0,0,0,3.57,2,4,4,0,0,0,2.84-1,3.7,3.7,0,0,0,1.1-2.92,3.63,3.63,0,0,0-1.34-3.11,5.78,5.78,0,0,0-3.59-1v-5.58a15.37,15.37,0,0,1,4.3.77,9.9,9.9,0,0,1,3.3,2.31,8,8,0,0,1,1.63,2.79,11.85,11.85,0,0,1,.57,4,10.48,10.48,0,0,1-2.26,7,7.46,7.46,0,0,1-6,2.68,6.67,6.67,0,0,1-4.54-1.6,5.34,5.34,0,0,1-1.57-2.1,4.23,4.23,0,0,1-1.45,2.39,7.48,7.48,0,0,1-5.8,2.29A9.76,9.76,0,0,1,3,1442.76c-1.95-1.79-2.92-4.43-2.93-7.92q0-6.45,4.22-9a12.73,12.73,0,0,1,5.9-1.41Z"/><path class="cls-1" d="M26.25,1469.85a38.74,38.74,0,0,0-4.71-3.75,42.49,42.49,0,0,0-7-4,42.86,42.86,0,0,0-6.91-2.33,29.34,29.34,0,0,0-6.72-1v-6.24q8.19.27,17,5.38a40.77,40.77,0,0,1,7.65,5.52v-15.17l5.37.09v21.5Z"/><path class="cls-1" d="M31.54,1479.84a6.85,6.85,0,1,1-2-4.77A6.52,6.52,0,0,1,31.54,1479.84Zm-6.78-3.41a3.38,3.38,0,1,0,2.41,1A3.34,3.34,0,0,0,24.76,1476.43Z"/><path class="cls-1" d="M21.89,1491.26H26a25.44,25.44,0,0,0,.38,4,5.5,5.5,0,0,0,1.59,2.93,5.32,5.32,0,0,0,2.19,1.18,4.54,4.54,0,0,0,1.21.23v5H.89v-6.17h21Z"/><path class="cls-1" d="M21.89,1512.83H26a25.44,25.44,0,0,0,.38,4,5.5,5.5,0,0,0,1.59,2.94,5.3,5.3,0,0,0,2.19,1.17,4.54,4.54,0,0,0,1.21.23v5H.89V1520h21Z"/><path class="cls-1" d="M31.8,1548.14l-12.56-6.38v-4.33l12.56,4Z"/><path class="cls-1" d="M27.45,1568.08q-4.1,2.36-11.63,2.35t-11.61-2.34c-2.72-1.57-4.08-4.28-4.08-8.16s1.36-6.6,4.08-8.16,6.58-2.34,11.61-2.34,8.9.78,11.63,2.34,4.09,4.28,4.09,8.16S30.18,1566.51,27.45,1568.08ZM7.79,1556.43A3.48,3.48,0,0,0,5,1560a3.43,3.43,0,0,0,2.79,3.5,29.53,29.53,0,0,0,8,.82,29.34,29.34,0,0,0,8.14-.82,3.39,3.39,0,0,0,2.65-3.5,3.45,3.45,0,0,0-2.62-3.53,29,29,0,0,0-8.14-.86A29,29,0,0,0,7.79,1556.43Z"/><path class="cls-1" d="M6.87,1574.74q3,1.29,6.45,6a42.94,42.94,0,0,0,4.24,5.35,6.23,6.23,0,0,0,4.37,1.87,4.73,4.73,0,0,0,3.21-1.07,4.35,4.35,0,0,0,0-6.16,4.65,4.65,0,0,0-.77-.62,10.3,10.3,0,0,0-3.73-.67v-5.82a14.92,14.92,0,0,1,6.27,1.41q4.56,2.4,4.56,8.51a10.75,10.75,0,0,1-2.68,7.7,9.21,9.21,0,0,1-7.08,2.85,9.52,9.52,0,0,1-6-2,19.87,19.87,0,0,1-3.88-4.35l-1.7-2.4c-1.07-1.5-1.84-2.52-2.31-3.08a6.54,6.54,0,0,0-1.66-1.39v13.29H.89v-20.87A14.41,14.41,0,0,1,6.87,1574.74Z"/><path class="cls-1" d="M31.8,1610.29l-12.56-6.38v-4.33l12.56,4Zm0,10.71-12.56-6.39v-4.32l12.56,4Z"/><path class="cls-1" d="M31.84,1625.32v6.78l-21.58,12.33H31.84v6H.89V1644l22-12.6H.89v-6Z"/><path class="cls-1" d="M21.89,1668.14H26a24.81,24.81,0,0,0,.38,3.95,5.57,5.57,0,0,0,1.59,2.94,5.3,5.3,0,0,0,2.19,1.17,4.54,4.54,0,0,0,1.21.23v5H.89v-6.14h21Z"/><path class="cls-1" d="M27.45,1709.07q-4.1,2.37-11.63,2.36t-11.61-2.34q-4.08-2.35-4.08-8.18t4.08-8.16q4.06-2.31,11.61-2.32t11.63,2.34q4.1,2.34,4.09,8.16T27.45,1709.07ZM7.79,1697.43A3.48,3.48,0,0,0,5,1701a3.43,3.43,0,0,0,2.79,3.5,29.53,29.53,0,0,0,8,.82,29.34,29.34,0,0,0,8.14-.82,3.39,3.39,0,0,0,2.65-3.5,3.45,3.45,0,0,0-2.62-3.53,29,29,0,0,0-8.14-.86A29,29,0,0,0,7.79,1697.43Z"/><path class="cls-1" d="M14,1715.27a7.45,7.45,0,0,1,3.13,3.39,7.13,7.13,0,0,1,3.18-2.87,8.81,8.81,0,0,1,3.2-.67,7.49,7.49,0,0,1,5.66,2.51c1.56,1.67,2.34,4,2.34,7.07s-.78,5.4-2.34,7.07a7.41,7.41,0,0,1-5.66,2.5,8.8,8.8,0,0,1-3.2-.66,6.11,6.11,0,0,1-3-2.87,8.29,8.29,0,0,1-3.34,3.4,9.38,9.38,0,0,1-4.64,1.14,8.63,8.63,0,0,1-6.51-2.85c-1.8-1.9-2.7-4.56-2.7-8s.9-6,2.7-7.74a9,9,0,0,1,6.54-2.62A9.52,9.52,0,0,1,14,1715.27Zm-7.73,6.23a4.81,4.81,0,0,0,0,6.44,4.89,4.89,0,0,0,3.49,1.17,4.83,4.83,0,0,0,3.54-1.19,4.87,4.87,0,0,0,0-6.4,4.87,4.87,0,0,0-3.54-1.19A4.89,4.89,0,0,0,6.24,1721.5Zm13.86.38a3.83,3.83,0,0,0-.25,5.41,3.78,3.78,0,0,0,3,1.25,3.77,3.77,0,0,0,2.82-1,3.86,3.86,0,0,0-2.82-6.69A3.79,3.79,0,0,0,20.1,1721.88Z"/><path class="cls-1" d="M31.54,1745.65a6.83,6.83,0,1,1-2-4.78A6.53,6.53,0,0,1,31.54,1745.65Zm-6.78-3.4a3.38,3.38,0,1,0,2.41,1,3.34,3.34,0,0,0-2.41-1Z"/><path class="cls-1" d="M6.87,1756.84q3,1.29,6.45,6.05a42.94,42.94,0,0,0,4.24,5.35,6.23,6.23,0,0,0,4.37,1.87,4.87,4.87,0,0,0,3.21-1.07,4.35,4.35,0,0,0,0-6.16,4.65,4.65,0,0,0-.77-.62,10.3,10.3,0,0,0-3.73-.67v-5.82a14.92,14.92,0,0,1,6.27,1.41q4.56,2.4,4.56,8.51a10.74,10.74,0,0,1-2.68,7.74,9.17,9.17,0,0,1-7.08,2.86,9.52,9.52,0,0,1-6-2,19.87,19.87,0,0,1-3.88-4.35l-1.71-2.51c-1.07-1.5-1.84-2.53-2.31-3.08a7.18,7.18,0,0,0-1.66-1.4v13.29H.89v-20.81A14.57,14.57,0,0,1,6.87,1756.84Z"/><path class="cls-1" d="M28.55,1782.11a9.59,9.59,0,0,1,3,7.34q0,6.94-6.16,9.53a23.7,23.7,0,0,1-9.17,1.47A25.81,25.81,0,0,1,7,1799q-7-2.67-7-9.86A10.07,10.07,0,0,1,2,1783a8,8,0,0,1,5.91-3.13v6A3.73,3.73,0,0,0,5.73,1787a3.58,3.58,0,0,0-.84,2.46c0,2,1.09,3.36,3.28,4.15a18.46,18.46,0,0,0,5.27.82,6.11,6.11,0,0,1-1.58-1.74,7.93,7.93,0,0,1-1-4.13,9.42,9.42,0,0,1,2.51-6.45c1.68-1.88,4.09-2.81,7.24-2.81A11.17,11.17,0,0,1,28.55,1782.11Zm-12.08,10.07c.87,1.36,2.37,2,4.51,2a6.4,6.4,0,0,0,4.1-1.2,4,4,0,0,0,1.51-3.31,4.15,4.15,0,0,0-.86-2.62q-1.35-1.72-4.56-1.73a6.37,6.37,0,0,0-4.06,1.11,4.11,4.11,0,0,0-1.36,3.39A4.18,4.18,0,0,0,16.47,1792.18Z"/><path class="cls-1" d="M31.8,1816.3l-12.56-6.38v-4.33l12.56,4Z"/><path class="cls-1" d="M21.89,1819.22H26a25.44,25.44,0,0,0,.38,4,5.5,5.5,0,0,0,1.59,2.93,5.07,5.07,0,0,0,2.19,1.17,4.54,4.54,0,0,0,1.21.23v5H.89v-6.12h21Z"/><path class="cls-1" d="M28.55,1844.26a9.59,9.59,0,0,1,3,7.34q0,6.95-6.16,9.53a23.7,23.7,0,0,1-9.17,1.47A26,26,0,0,1,7,1861.19q-7-2.67-7-9.87a10.11,10.11,0,0,1,2-6.15A8,8,0,0,1,7.91,1842v6a3.59,3.59,0,0,0-2.18,1.13,3.58,3.58,0,0,0-.84,2.46c0,2,1.09,3.36,3.28,4.15a18.46,18.46,0,0,0,5.27.82,6.11,6.11,0,0,1-1.58-1.74,8,8,0,0,1-1-4.14,9.44,9.44,0,0,1,2.51-6.44q2.54-2.85,7.26-2.85A11.23,11.23,0,0,1,28.55,1844.26Zm-12.08,10.07c.87,1.34,2.38,2,4.51,2a6.4,6.4,0,0,0,4.1-1.2,4,4,0,0,0,1.51-3.31,4.19,4.19,0,0,0-.86-2.63c-.9-1.14-2.42-1.72-4.56-1.72a6.43,6.43,0,0,0-4.06,1.1,4.58,4.58,0,0,0-.64,5.73Z"/><path class="cls-1" d="M31.8,1878.43l-12.56-6.38v-4.33l12.56,4Zm0,10.71-12.56-6.39v-4.32l12.56,4Z"/><path class="cls-1" d="M31.84,1897.8l-17.73,4.08-4.93.89,4.83.9,17.83,3.49V1914l-17.72,3.68-4.94.94,4.75,1,17.91,4.12v6.59L.89,1921.6v-6.19l18.1-3.74,6-1.09-6-1.09-18.1-3.74v-6l31-8.78Z"/><path class="cls-1" d="M12.24,2123.21a6.88,6.88,0,0,0-3,.59,4,4,0,0,0-2.21,4,4.36,4.36,0,0,0,1.21,3.07,4.47,4.47,0,0,0,3.48,1.3,3.9,3.9,0,0,0,4-2.42,12.58,12.58,0,0,0,.56-4.36h4.29a10.94,10.94,0,0,0,.56,4.06,3.47,3.47,0,0,0,3.57,2,4,4,0,0,0,2.84-1,4.28,4.28,0,0,0-.25-6,5.8,5.8,0,0,0-3.59-1v-5.58a15.37,15.37,0,0,1,4.3.77,9.9,9.9,0,0,1,3.3,2.31,8,8,0,0,1,1.63,2.79,12.11,12.11,0,0,1,.57,4,10.53,10.53,0,0,1-2.26,7,7.53,7.53,0,0,1-6,2.68,6.67,6.67,0,0,1-4.55-1.65,5.34,5.34,0,0,1-1.57-2.1,4.27,4.27,0,0,1-1.41,2.35,7.48,7.48,0,0,1-5.8,2.29,9.74,9.74,0,0,1-6.79-2.67q-2.92-2.68-2.93-7.92,0-6.45,4.22-9a12.68,12.68,0,0,1,5.88-1.47Z"/><path class="cls-1" d="M28.26,2162.81a38.74,38.74,0,0,0-4.71-3.75,42.91,42.91,0,0,0-7-4,42,42,0,0,0-6.91-2.35,29.43,29.43,0,0,0-6.72-1v-6.21q8.19.27,17,5.38a41,41,0,0,1,7.64,5.52v-15.17l5.37.09v21.49Z"/><path class="cls-1" d="M33.55,2172.81a6.85,6.85,0,1,1-2-4.77A6.52,6.52,0,0,1,33.55,2172.81Zm-6.78-3.4a3.38,3.38,0,1,0,3.39,3.37,3.42,3.42,0,0,0-1-2.37,3.33,3.33,0,0,0-2.41-1Z"/><path class="cls-1" d="M23.9,2184.2H28a25.44,25.44,0,0,0,.38,4,5.44,5.44,0,0,0,1.59,2.93,5.14,5.14,0,0,0,2.19,1.18,4.54,4.54,0,0,0,1.21.23v5H2.9v-6.13h21Z"/><path class="cls-1" d="M23.9,2205.81H28a25.44,25.44,0,0,0,.38,4,5.5,5.5,0,0,0,1.59,2.94,5.3,5.3,0,0,0,2.19,1.17,4.54,4.54,0,0,0,1.21.23v5H2.9V2213h21Z"/><path class="cls-1" d="M33.81,2241.08l-12.56-6.38v-4.33l12.56,4Z"/><path class="cls-1" d="M29.46,2261q-4.09,2.34-11.63,2.34T6.22,2261c-2.72-1.57-4.08-4.28-4.08-8.16s1.36-6.6,4.08-8.16,6.58-2.34,11.61-2.34,8.9.78,11.63,2.34,4.09,4.28,4.09,8.16S32.19,2259.45,29.46,2261ZM9.8,2249.33A3.48,3.48,0,0,0,7,2252.86a3.42,3.42,0,0,0,2.79,3.5,29.53,29.53,0,0,0,8,.82,29.34,29.34,0,0,0,8.14-.82,3.39,3.39,0,0,0,2.65-3.5,3.44,3.44,0,0,0-2.65-3.53,29,29,0,0,0-8.14-.86A29.09,29.09,0,0,0,9.8,2249.33Z"/><path class="cls-1" d="M8.88,2267.68q3,1.29,6.45,6.05a42.94,42.94,0,0,0,4.24,5.35,6.2,6.2,0,0,0,4.37,1.87,4.76,4.76,0,0,0,3.21-1.07,4.36,4.36,0,0,0,0-6.16,5.1,5.1,0,0,0-.77-.62,10.34,10.34,0,0,0-3.73-.67v-5.82a14.92,14.92,0,0,1,6.27,1.41q4.56,2.4,4.56,8.51a10.79,10.79,0,0,1-2.68,7.7,9.21,9.21,0,0,1-7.08,2.85,9.5,9.5,0,0,1-6-2,19.62,19.62,0,0,1-3.88-4.35l-1.7-2.4c-1.07-1.5-1.84-2.53-2.31-3.08a7.14,7.14,0,0,0-1.66-1.39v13.29H2.9V2266.3A14.23,14.23,0,0,1,8.88,2267.68Z"/><path class="cls-1" d="M33.81,2303.23l-12.56-6.42v-4.33l12.56,4Zm0,10.71-12.56-6.39v-4.32l12.56,4Z"/><path class="cls-1" d="M33.85,2318.26V2325l-21.58,12.29H33.85v6H2.9v-6.46l22-12.6H2.9v-6Z"/><path class="cls-1" d="M23.9,2361.07H28a25.44,25.44,0,0,0,.38,4,5.5,5.5,0,0,0,1.59,2.94,5.3,5.3,0,0,0,2.19,1.17,4.54,4.54,0,0,0,1.21.23v5H2.9v-6.13h21Z"/><path class="cls-1" d="M29.46,2402q-4.09,2.34-11.63,2.34T6.22,2402q-4.08-2.34-4.08-8.2t4.08-8.16q4.05-2.34,11.61-2.34t11.63,2.34q4.08,2.34,4.09,8.16T29.46,2402ZM9.8,2390.32A3.48,3.48,0,0,0,7,2393.85a3.42,3.42,0,0,0,2.79,3.5,29.53,29.53,0,0,0,8,.82,29.34,29.34,0,0,0,8.14-.82,3.39,3.39,0,0,0,2.7-3.54,3.44,3.44,0,0,0-2.65-3.53,29,29,0,0,0-8.14-.86A29.14,29.14,0,0,0,9.8,2390.32Z"/><path class="cls-1" d="M16,2408.21a7.4,7.4,0,0,1,3.13,3.39,7.13,7.13,0,0,1,3.18-2.87,8.77,8.77,0,0,1,3.2-.67,7.51,7.51,0,0,1,5.66,2.51c1.56,1.67,2.34,4,2.34,7.07s-.78,5.4-2.34,7.07a7.43,7.43,0,0,1-5.66,2.5,8.8,8.8,0,0,1-3.2-.66,6,6,0,0,1-3-2.87,8.29,8.29,0,0,1-3.34,3.4,9.41,9.41,0,0,1-4.64,1.14,8.62,8.62,0,0,1-6.54-2.85q-2.7-2.85-2.7-7.95t2.7-7.74a9,9,0,0,1,6.54-2.62A9.5,9.5,0,0,1,16,2408.21Zm-7.73,6.23a4.79,4.79,0,0,0,0,6.44,4.88,4.88,0,0,0,3.49,1.17,4.84,4.84,0,0,0,3.54-1.19,4.87,4.87,0,0,0,0-6.4,4.88,4.88,0,0,0-3.54-1.19A4.92,4.92,0,0,0,8.25,2414.44Zm13.86.38a3.83,3.83,0,0,0,2.71,6.66,3.78,3.78,0,0,0,2.82-1,3.86,3.86,0,0,0-2.82-6.69,3.76,3.76,0,0,0-2.71,1Z"/><path class="cls-1" d="M33.55,2438.59a6.83,6.83,0,1,1-2-4.78A6.53,6.53,0,0,1,33.55,2438.59Zm-6.78-3.4a3.38,3.38,0,1,0,3.39,3.37,3.42,3.42,0,0,0-1-2.37,3.36,3.36,0,0,0-2.41-1Z"/><path class="cls-1" d="M8.88,2449.81q3,1.29,6.45,6.05a42.94,42.94,0,0,0,4.24,5.35,6.2,6.2,0,0,0,4.37,1.87,4.87,4.87,0,0,0,3.21-1.07,3.8,3.8,0,0,0,1.28-3.07,3.75,3.75,0,0,0-2-3.71,10.34,10.34,0,0,0-3.73-.67v-5.82a14.92,14.92,0,0,1,6.27,1.41q4.56,2.4,4.56,8.51a10.77,10.77,0,0,1-2.68,7.69,9.18,9.18,0,0,1-7.08,2.86,9.5,9.5,0,0,1-6-2,19.62,19.62,0,0,1-3.93-4.4l-1.7-2.4c-1.07-1.5-1.84-2.53-2.31-3.08a7.18,7.18,0,0,0-1.66-1.4v13.29H2.9v-20.85A14.61,14.61,0,0,1,8.88,2449.81Z"/><path class="cls-1" d="M30.56,2475.05a9.59,9.59,0,0,1,3,7.34q0,7-6.16,9.53a23.7,23.7,0,0,1-9.17,1.47A25.78,25.78,0,0,1,9,2492q-7-2.67-7-9.87A10,10,0,0,1,4,2476a8.06,8.06,0,0,1,5.91-3.13v6A3.7,3.7,0,0,0,7.74,2480a3.53,3.53,0,0,0-.84,2.46c0,2,1.09,3.36,3.28,4.15a18.46,18.46,0,0,0,5.27.82,6.11,6.11,0,0,1-1.58-1.74,7.83,7.83,0,0,1-1-4.13,9.37,9.37,0,0,1,2.51-6.45c1.68-1.88,4.09-2.81,7.24-2.81A11.17,11.17,0,0,1,30.56,2475.05Zm-12.08,10.07c.87,1.36,2.37,2,4.51,2a6.4,6.4,0,0,0,4.1-1.2,4,4,0,0,0,1.51-3.31,4.15,4.15,0,0,0-.86-2.62q-1.35-1.72-4.56-1.73a6.36,6.36,0,0,0-4.06,1.11,4.11,4.11,0,0,0-1.36,3.39A4.18,4.18,0,0,0,18.48,2485.12Z"/><path class="cls-1" d="M33.81,2509.24l-12.56-6.38v-4.33l12.56,4Z"/><path class="cls-1" d="M23.9,2512.16H28a25.44,25.44,0,0,0,.38,4,5.44,5.44,0,0,0,1.59,2.93,5,5,0,0,0,2.19,1.17,4.54,4.54,0,0,0,1.21.23v5H2.9v-6.13h21Z"/><path class="cls-1" d="M30.56,2537.2a9.59,9.59,0,0,1,3,7.34q0,7-6.16,9.53a23.7,23.7,0,0,1-9.17,1.47A26,26,0,0,1,9,2554.13q-7-2.67-7-9.87a10,10,0,0,1,2-6.15A8,8,0,0,1,9.92,2535v6a3.59,3.59,0,0,0-2.18,1.13,3.49,3.49,0,0,0-.84,2.46c0,2,1.09,3.36,3.28,4.15a18.46,18.46,0,0,0,5.27.82,6.11,6.11,0,0,1-1.58-1.74,7.87,7.87,0,0,1-1-4.14,9.39,9.39,0,0,1,2.51-6.44q2.52-2.82,7.24-2.82A11.22,11.22,0,0,1,30.56,2537.2Zm-12.08,10.07c.87,1.34,2.37,2,4.51,2a6.4,6.4,0,0,0,4.1-1.2,4,4,0,0,0,1.55-3.26,4.19,4.19,0,0,0-.86-2.63c-.9-1.14-2.42-1.72-4.56-1.72a6.43,6.43,0,0,0-4.06,1.1,4.58,4.58,0,0,0-.64,5.73Z"/><path class="cls-1" d="M33.81,2571.39,21.25,2565v-4.33l12.56,4Zm0,10.71-12.56-6.39v-4.32l12.56,4Z"/><path class="cls-1" d="M33.85,2590.74l-17.73,4.07-4.93.89,4.83.9,17.83,3.49v6.82l-17.72,3.68-4.94.94,4.75,1,17.91,4.12v6.59L2.9,2614.53v-6.19L21,2604.6l6-1.09-6-1.09-18.1-3.74v-6l31-8.78Z"/><path class="cls-1" d="M10.23,2869.65a6.88,6.88,0,0,0-3,.59,4,4,0,0,0-2.21,4,4.4,4.4,0,0,0,1.21,3.07,4.48,4.48,0,0,0,3.48,1.3,3.9,3.9,0,0,0,4-2.42,12.58,12.58,0,0,0,.56-4.36h4.29a10.94,10.94,0,0,0,.56,4.06,3.48,3.48,0,0,0,3.57,2,4,4,0,0,0,2.84-1,3.7,3.7,0,0,0,1.1-2.92,3.63,3.63,0,0,0-1.34-3.11,5.78,5.78,0,0,0-3.59-1v-5.58a15.37,15.37,0,0,1,4.3.77,9.9,9.9,0,0,1,3.3,2.31,8,8,0,0,1,1.63,2.79,11.85,11.85,0,0,1,.57,4,10.48,10.48,0,0,1-2.26,7,7.46,7.46,0,0,1-6,2.68,6.67,6.67,0,0,1-4.54-1.6,5.34,5.34,0,0,1-1.57-2.1,4.23,4.23,0,0,1-1.45,2.39,7.48,7.48,0,0,1-5.8,2.29A9.76,9.76,0,0,1,3,2882.14c-1.95-1.79-2.92-4.43-2.93-7.92q0-6.45,4.22-9a12.73,12.73,0,0,1,5.9-1.41Z"/><path class="cls-1" d="M26.25,2909.23a38.74,38.74,0,0,0-4.71-3.75,42.49,42.49,0,0,0-7-4,42.86,42.86,0,0,0-6.91-2.33,29.34,29.34,0,0,0-6.72-1v-6.24q8.19.27,17,5.38a40.77,40.77,0,0,1,7.65,5.52v-15.17l5.37.09v21.5Z"/><path class="cls-1" d="M31.54,2919.22a6.85,6.85,0,1,1-2-4.77A6.52,6.52,0,0,1,31.54,2919.22Zm-6.78-3.41a3.38,3.38,0,1,0,2.41,1A3.34,3.34,0,0,0,24.76,2915.81Z"/><path class="cls-1" d="M21.89,2930.64H26a25.44,25.44,0,0,0,.38,4,5.5,5.5,0,0,0,1.59,2.93,5.2,5.2,0,0,0,2.19,1.18,4.54,4.54,0,0,0,1.21.23v5H.89v-6.17h21Z"/><path class="cls-1" d="M21.89,2952.21H26a25.44,25.44,0,0,0,.38,4,5.46,5.46,0,0,0,1.59,2.94,5.3,5.3,0,0,0,2.19,1.17,4.54,4.54,0,0,0,1.21.23v5H.89v-6.13h21Z"/><path class="cls-1" d="M31.8,2987.52l-12.56-6.38v-4.33l12.56,4Z"/><path class="cls-1" d="M27.45,3007.46q-4.1,2.36-11.63,2.35t-11.61-2.34c-2.72-1.57-4.08-4.28-4.08-8.16s1.36-6.6,4.08-8.16,6.58-2.34,11.61-2.34,8.9.78,11.63,2.34,4.09,4.28,4.09,8.16S30.18,3005.89,27.45,3007.46ZM7.79,2995.81A3.48,3.48,0,0,0,5,2999.34a3.43,3.43,0,0,0,2.79,3.5,29.53,29.53,0,0,0,8,.82,29.34,29.34,0,0,0,8.14-.82,3.39,3.39,0,0,0,2.65-3.5,3.45,3.45,0,0,0-2.62-3.53,29,29,0,0,0-8.14-.86A29,29,0,0,0,7.79,2995.81Z"/><path class="cls-1" d="M6.87,3014.12q3,1.29,6.45,6.05a42.94,42.94,0,0,0,4.24,5.35,6.23,6.23,0,0,0,4.37,1.87,4.73,4.73,0,0,0,3.21-1.07,4.35,4.35,0,0,0,0-6.16,4.65,4.65,0,0,0-.77-.62,10.3,10.3,0,0,0-3.73-.67v-5.82a14.92,14.92,0,0,1,6.27,1.41q4.56,2.4,4.56,8.51a10.75,10.75,0,0,1-2.68,7.7,9.21,9.21,0,0,1-7.08,2.85,9.52,9.52,0,0,1-6-2,19.87,19.87,0,0,1-3.88-4.35l-1.7-2.4c-1.07-1.5-1.84-2.52-2.31-3.08a6.54,6.54,0,0,0-1.66-1.39v13.29H.89v-20.87A14.41,14.41,0,0,1,6.87,3014.12Z"/><path class="cls-1" d="M31.8,3049.67l-12.56-6.38V3039l12.56,4Zm0,10.71L19.24,3054v-4.32l12.56,4Z"/><path class="cls-1" d="M31.84,3064.7v6.78l-21.58,12.33H31.84v6H.89v-6.46l22-12.6H.89v-6Z"/><path class="cls-1" d="M21.89,3107.52H26a24.81,24.81,0,0,0,.38,3.95,5.57,5.57,0,0,0,1.59,2.94,5.3,5.3,0,0,0,2.19,1.17,4.54,4.54,0,0,0,1.21.23v5H.89v-6.14h21Z"/><path class="cls-1" d="M27.45,3148.45q-4.1,2.37-11.63,2.36t-11.61-2.34q-4.08-2.35-4.08-8.18t4.08-8.16q4.06-2.31,11.61-2.32t11.63,2.34q4.1,2.34,4.09,8.16T27.45,3148.45ZM7.79,3136.81A3.48,3.48,0,0,0,5,3140.34a3.43,3.43,0,0,0,2.79,3.5,29.53,29.53,0,0,0,8,.82,29.34,29.34,0,0,0,8.14-.82,3.39,3.39,0,0,0,2.65-3.5,3.45,3.45,0,0,0-2.62-3.53,29,29,0,0,0-8.14-.86A29,29,0,0,0,7.79,3136.81Z"/><path class="cls-1" d="M14,3154.65A7.45,7.45,0,0,1,17.1,3158a7.13,7.13,0,0,1,3.18-2.87,9,9,0,0,1,3.2-.67,7.49,7.49,0,0,1,5.66,2.51c1.56,1.67,2.34,4,2.34,7.07s-.78,5.4-2.34,7.07a7.41,7.41,0,0,1-5.66,2.5,8.8,8.8,0,0,1-3.2-.66,6.11,6.11,0,0,1-3-2.87,8.29,8.29,0,0,1-3.34,3.4,9.38,9.38,0,0,1-4.64,1.14,8.63,8.63,0,0,1-6.51-2.85c-1.8-1.9-2.7-4.56-2.7-8s.9-6,2.7-7.74a9,9,0,0,1,6.54-2.62A9.52,9.52,0,0,1,14,3154.65Zm-7.73,6.23a4.81,4.81,0,0,0,0,6.44,4.89,4.89,0,0,0,3.49,1.17,4.83,4.83,0,0,0,3.54-1.19,4.87,4.87,0,0,0,0-6.4,4.91,4.91,0,0,0-3.54-1.19A4.94,4.94,0,0,0,6.24,3160.88Zm13.86.38a3.83,3.83,0,0,0,2.71,6.66,3.77,3.77,0,0,0,2.82-1,3.86,3.86,0,0,0,.22-5.45,3.91,3.91,0,0,0-3-1.24A3.79,3.79,0,0,0,20.1,3161.26Z"/><path class="cls-1" d="M31.54,3185a6.83,6.83,0,1,1-2-4.78A6.53,6.53,0,0,1,31.54,3185Zm-6.78-3.4a3.38,3.38,0,1,0,2.41,1,3.34,3.34,0,0,0-2.41-1Z"/><path class="cls-1" d="M6.87,3196.22q3,1.29,6.45,6.05a42.94,42.94,0,0,0,4.24,5.35,6.23,6.23,0,0,0,4.37,1.87,4.87,4.87,0,0,0,3.21-1.07,4.35,4.35,0,0,0,0-6.16,4.65,4.65,0,0,0-.77-.62,10.3,10.3,0,0,0-3.73-.67v-5.82a14.92,14.92,0,0,1,6.27,1.41q4.56,2.4,4.56,8.51a10.74,10.74,0,0,1-2.68,7.74,9.17,9.17,0,0,1-7.08,2.86,9.52,9.52,0,0,1-6-2,19.87,19.87,0,0,1-3.88-4.35l-1.71-2.51c-1.07-1.5-1.84-2.53-2.31-3.08a7.18,7.18,0,0,0-1.66-1.4v13.29H.89v-20.81A14.57,14.57,0,0,1,6.87,3196.22Z"/><path class="cls-1" d="M28.55,3221.49a9.59,9.59,0,0,1,3,7.34q0,6.95-6.16,9.53a23.7,23.7,0,0,1-9.17,1.47A25.81,25.81,0,0,1,7,3238.42q-7-2.67-7-9.86a10.07,10.07,0,0,1,2-6.16,8.06,8.06,0,0,1,5.91-3.13v6a3.73,3.73,0,0,0-2.18,1.13,3.58,3.58,0,0,0-.84,2.46c0,2,1.09,3.36,3.28,4.15a18.46,18.46,0,0,0,5.27.82,6.11,6.11,0,0,1-1.58-1.74,7.93,7.93,0,0,1-1-4.13,9.42,9.42,0,0,1,2.51-6.45c1.68-1.88,4.09-2.81,7.24-2.81A11.17,11.17,0,0,1,28.55,3221.49Zm-12.08,10.07c.87,1.36,2.37,2,4.51,2a6.4,6.4,0,0,0,4.1-1.2,4,4,0,0,0,1.51-3.31,4.15,4.15,0,0,0-.86-2.62q-1.35-1.72-4.56-1.73a6.37,6.37,0,0,0-4.06,1.11,4.11,4.11,0,0,0-1.36,3.39A4.18,4.18,0,0,0,16.47,3231.56Z"/><path class="cls-1" d="M31.8,3255.68l-12.56-6.38V3245l12.56,4Z"/><path class="cls-1" d="M21.89,3258.6H26a25.44,25.44,0,0,0,.38,4,5.5,5.5,0,0,0,1.59,2.93,5.07,5.07,0,0,0,2.19,1.17,4.54,4.54,0,0,0,1.21.23v5H.89v-6.12h21Z"/><path class="cls-1" d="M28.55,3283.64a9.59,9.59,0,0,1,3,7.34q0,6.95-6.16,9.53a23.7,23.7,0,0,1-9.17,1.47A25.81,25.81,0,0,1,7,3300.57q-7-2.67-7-9.87a10.11,10.11,0,0,1,2-6.15,8,8,0,0,1,5.91-3.13v6a3.59,3.59,0,0,0-2.18,1.13,3.58,3.58,0,0,0-.84,2.46c0,2,1.09,3.36,3.28,4.15a18.46,18.46,0,0,0,5.27.82,6.11,6.11,0,0,1-1.58-1.74,8,8,0,0,1-1-4.14,9.44,9.44,0,0,1,2.51-6.44q2.54-2.85,7.26-2.85A11.23,11.23,0,0,1,28.55,3283.64Zm-12.08,10.07c.87,1.34,2.38,2,4.51,2a6.4,6.4,0,0,0,4.1-1.2,4,4,0,0,0,1.51-3.31,4.19,4.19,0,0,0-.86-2.63c-.9-1.14-2.42-1.72-4.56-1.72a6.43,6.43,0,0,0-4.06,1.1,4.58,4.58,0,0,0-.64,5.73Z"/><path class="cls-1" d="M31.8,3317.81l-12.56-6.38v-4.33l12.56,4Zm0,10.71-12.56-6.39v-4.32l12.56,4Z"/><path class="cls-1" d="M31.84,3337.18l-17.73,4.08-4.93.89,4.83.9,17.83,3.49v6.82L14.12,3357l-4.94.94,4.75,1,17.91,4.12v6.59L.89,3361v-6.19l18.1-3.74,6-1.09-6-1.09-18.1-3.74v-6l31-8.78Z"/><path class="cls-1" d="M12.24,3562.59a6.88,6.88,0,0,0-3,.59,4,4,0,0,0-2.21,4,4.36,4.36,0,0,0,1.21,3.07,4.47,4.47,0,0,0,3.48,1.3,3.9,3.9,0,0,0,4-2.42,12.58,12.58,0,0,0,.56-4.36h4.29a10.94,10.94,0,0,0,.56,4.06,3.47,3.47,0,0,0,3.57,2,4,4,0,0,0,2.84-1,4.28,4.28,0,0,0-.25-6,5.8,5.8,0,0,0-3.59-1v-5.58a15.37,15.37,0,0,1,4.3.77,9.9,9.9,0,0,1,3.3,2.31,8,8,0,0,1,1.63,2.79,12.11,12.11,0,0,1,.57,4,10.53,10.53,0,0,1-2.26,7,7.5,7.5,0,0,1-6,2.68,6.67,6.67,0,0,1-4.55-1.65,5.34,5.34,0,0,1-1.57-2.1,4.27,4.27,0,0,1-1.41,2.35,7.48,7.48,0,0,1-5.8,2.29,9.74,9.74,0,0,1-6.79-2.67q-2.92-2.68-2.93-7.92,0-6.45,4.22-9a12.68,12.68,0,0,1,5.88-1.47Z"/><path class="cls-1" d="M28.26,3602.19a38.74,38.74,0,0,0-4.71-3.75,42.91,42.91,0,0,0-7-4,42,42,0,0,0-6.91-2.35,29.43,29.43,0,0,0-6.72-1v-6.21q8.19.27,17,5.38a41,41,0,0,1,7.64,5.52v-15.17l5.37.09v21.49Z"/><path class="cls-1" d="M33.55,3612.19a6.85,6.85,0,1,1-2-4.77A6.52,6.52,0,0,1,33.55,3612.19Zm-6.78-3.4a3.38,3.38,0,1,0,3.39,3.37,3.42,3.42,0,0,0-1-2.37,3.33,3.33,0,0,0-2.41-1Z"/><path class="cls-1" d="M23.9,3623.58H28a25.44,25.44,0,0,0,.38,4,5.44,5.44,0,0,0,1.59,2.93,5.14,5.14,0,0,0,2.19,1.18,4.54,4.54,0,0,0,1.21.23v5H2.9v-6.13h21Z"/><path class="cls-1" d="M23.9,3645.19H28a25.44,25.44,0,0,0,.38,4,5.46,5.46,0,0,0,1.59,2.94,5.3,5.3,0,0,0,2.19,1.17,4.54,4.54,0,0,0,1.21.23v5H2.9v-6.13h21Z"/><path class="cls-1" d="M33.81,3680.46l-12.56-6.38v-4.33l12.56,4Z"/><path class="cls-1" d="M29.46,3700.4q-4.09,2.34-11.63,2.34T6.22,3700.4c-2.72-1.57-4.08-4.28-4.08-8.16s1.36-6.6,4.08-8.16,6.58-2.34,11.61-2.34,8.9.78,11.63,2.34,4.09,4.28,4.09,8.16S32.19,3698.83,29.46,3700.4ZM9.8,3688.71A3.48,3.48,0,0,0,7,3692.24a3.42,3.42,0,0,0,2.79,3.5,29.53,29.53,0,0,0,8,.82,29.34,29.34,0,0,0,8.14-.82,3.39,3.39,0,0,0,2.65-3.5,3.44,3.44,0,0,0-2.65-3.53,29,29,0,0,0-8.14-.86A29.48,29.48,0,0,0,9.8,3688.71Z"/><path class="cls-1" d="M8.88,3707.06q3,1.29,6.45,6.05a42.94,42.94,0,0,0,4.24,5.35,6.2,6.2,0,0,0,4.37,1.87,4.76,4.76,0,0,0,3.21-1.07,4.36,4.36,0,0,0,0-6.16,5.1,5.1,0,0,0-.77-.62,10.34,10.34,0,0,0-3.73-.67V3706a14.92,14.92,0,0,1,6.27,1.41q4.56,2.4,4.56,8.51a10.79,10.79,0,0,1-2.68,7.7,9.21,9.21,0,0,1-7.08,2.85,9.5,9.5,0,0,1-6-2,19.79,19.79,0,0,1-3.88-4.34l-1.7-2.41c-1.07-1.5-1.84-2.53-2.31-3.07a6.68,6.68,0,0,0-1.66-1.39v13.29H2.9v-20.85A14.07,14.07,0,0,1,8.88,3707.06Z"/><path class="cls-1" d="M33.81,3742.61l-12.56-6.42v-4.33l12.56,4Zm0,10.71-12.56-6.39v-4.32l12.56,4Z"/><path class="cls-1" d="M33.85,3757.64v6.78l-21.58,12.29H33.85v6H2.9v-6.46l22-12.6H2.9v-6Z"/><path class="cls-1" d="M23.9,3800.45H28a25.44,25.44,0,0,0,.38,4,5.5,5.5,0,0,0,1.59,2.94,5.3,5.3,0,0,0,2.19,1.17,4.54,4.54,0,0,0,1.21.23v5H2.9v-6.13h21Z"/><path class="cls-1" d="M29.46,3841.39q-4.09,2.34-11.63,2.34t-11.61-2.34q-4.08-2.34-4.08-8.2T6.22,3825q4.05-2.34,11.61-2.34T29.46,3825q4.08,2.34,4.09,8.16T29.46,3841.39ZM9.8,3829.7A3.48,3.48,0,0,0,7,3833.23a3.42,3.42,0,0,0,2.79,3.5,29.53,29.53,0,0,0,8,.82,29.34,29.34,0,0,0,8.14-.82,3.39,3.39,0,0,0,2.7-3.54,3.44,3.44,0,0,0-2.65-3.53,29,29,0,0,0-8.14-.86A29.14,29.14,0,0,0,9.8,3829.7Z"/><path class="cls-1" d="M16,3847.59a7.4,7.4,0,0,1,3.13,3.39,7.13,7.13,0,0,1,3.18-2.87,8.77,8.77,0,0,1,3.2-.67,7.51,7.51,0,0,1,5.66,2.51c1.56,1.67,2.34,4,2.34,7.07s-.78,5.4-2.34,7.07a7.43,7.43,0,0,1-5.66,2.5,8.8,8.8,0,0,1-3.2-.66,6,6,0,0,1-3-2.87,8.29,8.29,0,0,1-3.34,3.4,9.41,9.41,0,0,1-4.64,1.14,8.62,8.62,0,0,1-6.54-2.85q-2.7-2.85-2.7-7.95t2.7-7.74a9,9,0,0,1,6.54-2.62A9.5,9.5,0,0,1,16,3847.59Zm-7.73,6.23a4.79,4.79,0,0,0,0,6.44,4.88,4.88,0,0,0,3.49,1.17,4.84,4.84,0,0,0,3.54-1.19,4.87,4.87,0,0,0,0-6.4,4.93,4.93,0,0,0-3.54-1.19A5,5,0,0,0,8.25,3853.82Zm13.86.38a3.83,3.83,0,0,0,2.71,6.66,3.78,3.78,0,0,0,2.82-1,3.86,3.86,0,0,0-2.82-6.69,3.76,3.76,0,0,0-2.71,1Z"/><path class="cls-1" d="M33.55,3878a6.83,6.83,0,1,1-2-4.78A6.53,6.53,0,0,1,33.55,3878Zm-6.78-3.4a3.38,3.38,0,1,0,3.39,3.37,3.42,3.42,0,0,0-1-2.37,3.36,3.36,0,0,0-2.41-1Z"/><path class="cls-1" d="M8.88,3889.19q3,1.29,6.45,6a42.94,42.94,0,0,0,4.24,5.35,6.2,6.2,0,0,0,4.37,1.87,4.87,4.87,0,0,0,3.21-1.07,3.8,3.8,0,0,0,1.28-3.07,3.75,3.75,0,0,0-2-3.71,10.34,10.34,0,0,0-3.73-.67v-5.82a14.92,14.92,0,0,1,6.27,1.41q4.56,2.4,4.56,8.51a10.77,10.77,0,0,1-2.68,7.69,9.18,9.18,0,0,1-7.08,2.86,9.5,9.5,0,0,1-6-2,19.62,19.62,0,0,1-3.93-4.4l-1.7-2.4c-1.07-1.5-1.84-2.53-2.31-3.08a7.18,7.18,0,0,0-1.66-1.4v13.29H2.9v-20.85A14.61,14.61,0,0,1,8.88,3889.19Z"/><path class="cls-1" d="M30.56,3914.43a9.59,9.59,0,0,1,3,7.34q0,7-6.16,9.53a23.7,23.7,0,0,1-9.17,1.47A25.78,25.78,0,0,1,9,3931.36q-7-2.67-7-9.87a10,10,0,0,1,2-6.15,8.06,8.06,0,0,1,5.91-3.13v6a3.7,3.7,0,0,0-2.18,1.13,3.53,3.53,0,0,0-.84,2.46c0,2,1.09,3.36,3.28,4.15a18.46,18.46,0,0,0,5.27.82,6.11,6.11,0,0,1-1.58-1.74,7.81,7.81,0,0,1-1-4.13,9.37,9.37,0,0,1,2.51-6.45q2.52-2.8,7.24-2.81A11.17,11.17,0,0,1,30.56,3914.43ZM18.48,3924.5c.87,1.36,2.37,2,4.51,2a6.4,6.4,0,0,0,4.1-1.2A4,4,0,0,0,28.6,3922a4.15,4.15,0,0,0-.86-2.62q-1.35-1.73-4.56-1.73a6.36,6.36,0,0,0-4.06,1.11,4.11,4.11,0,0,0-1.36,3.39A4.18,4.18,0,0,0,18.48,3924.5Z"/><path class="cls-1" d="M33.81,3948.62l-12.56-6.38v-4.33l12.56,4Z"/><path class="cls-1" d="M23.9,3951.54H28a25.44,25.44,0,0,0,.38,4,5.44,5.44,0,0,0,1.59,2.93,5,5,0,0,0,2.19,1.17,4.54,4.54,0,0,0,1.21.23v5H2.9v-6.13h21Z"/><path class="cls-1" d="M30.56,3976.58a9.59,9.59,0,0,1,3,7.34q0,7-6.16,9.53a23.7,23.7,0,0,1-9.17,1.47A25.78,25.78,0,0,1,9,3993.51q-7-2.67-7-9.87a10,10,0,0,1,2-6.15,8.06,8.06,0,0,1,5.91-3.13v6a3.59,3.59,0,0,0-2.18,1.13A3.49,3.49,0,0,0,6.9,3984c0,2,1.09,3.36,3.28,4.15a18.46,18.46,0,0,0,5.27.82,6.11,6.11,0,0,1-1.58-1.74,7.87,7.87,0,0,1-1-4.14,9.39,9.39,0,0,1,2.51-6.44q2.52-2.82,7.24-2.82A11.22,11.22,0,0,1,30.56,3976.58Zm-12.08,10.07c.87,1.34,2.37,2,4.51,2a6.4,6.4,0,0,0,4.1-1.2,4,4,0,0,0,1.55-3.26,4.19,4.19,0,0,0-.86-2.63c-.9-1.14-2.42-1.72-4.56-1.72a6.43,6.43,0,0,0-4.06,1.1,4.58,4.58,0,0,0-.64,5.73Z"/><path class="cls-1" d="M33.81,4010.77l-12.56-6.38v-4.33l12.56,4Zm0,10.71-12.56-6.39v-4.32l12.56,4Z"/><path class="cls-1" d="M33.85,4030.12l-17.73,4.07-4.93.89,4.83.9,17.83,3.49v6.82L16.13,4050l-4.94.94,4.75,1L33.85,4056v6.59L2.9,4053.91v-6.19L21,4044l6-1.09-6-1.09-18.1-3.74v-6l31-8.78Z"/><path class="cls-1" d="M12.24,4278a6.88,6.88,0,0,0-3,.59,4,4,0,0,0-2.21,4,4.36,4.36,0,0,0,1.21,3.07,4.47,4.47,0,0,0,3.48,1.3,3.9,3.9,0,0,0,4-2.42,12.58,12.58,0,0,0,.56-4.36h4.29a10.94,10.94,0,0,0,.56,4.06,3.47,3.47,0,0,0,3.57,2,4,4,0,0,0,2.84-1,4.28,4.28,0,0,0-.25-6,5.8,5.8,0,0,0-3.59-1v-5.58a15.37,15.37,0,0,1,4.3.77,9.9,9.9,0,0,1,3.3,2.31,8,8,0,0,1,1.63,2.79,12.11,12.11,0,0,1,.57,4,10.53,10.53,0,0,1-2.26,7,7.5,7.5,0,0,1-6,2.68,6.67,6.67,0,0,1-4.55-1.65,5.34,5.34,0,0,1-1.57-2.1,4.27,4.27,0,0,1-1.41,2.35,7.48,7.48,0,0,1-5.8,2.29,9.74,9.74,0,0,1-6.79-2.67q-2.92-2.68-2.93-7.92,0-6.45,4.22-9a12.68,12.68,0,0,1,5.88-1.47Z"/><path class="cls-1" d="M28.26,4317.63a38.74,38.74,0,0,0-4.71-3.75,42.91,42.91,0,0,0-7-4,42,42,0,0,0-6.91-2.35,29.43,29.43,0,0,0-6.72-1v-6.21q8.19.27,17,5.38a41,41,0,0,1,7.64,5.52v-15.17l5.37.09v21.49Z"/><path class="cls-1" d="M33.55,4327.63a6.85,6.85,0,1,1-2-4.77A6.52,6.52,0,0,1,33.55,4327.63Zm-6.78-3.4a3.38,3.38,0,1,0,3.39,3.37,3.42,3.42,0,0,0-1-2.37,3.33,3.33,0,0,0-2.41-1Z"/><path class="cls-1" d="M23.9,4339H28a25.44,25.44,0,0,0,.38,4,5.44,5.44,0,0,0,1.59,2.93,5.14,5.14,0,0,0,2.19,1.18,4.54,4.54,0,0,0,1.21.23v5H2.9v-6.13h21Z"/><path class="cls-1" d="M23.9,4360.63H28a25.44,25.44,0,0,0,.38,4,5.46,5.46,0,0,0,1.59,2.94,5.3,5.3,0,0,0,2.19,1.17,4.54,4.54,0,0,0,1.21.23v5H2.9v-6.13h21Z"/><path class="cls-1" d="M33.81,4395.9l-12.56-6.38v-4.33l12.56,4Z"/><path class="cls-1" d="M29.46,4415.84q-4.09,2.34-11.63,2.34t-11.61-2.34c-2.72-1.57-4.08-4.28-4.08-8.16s1.36-6.6,4.08-8.16,6.58-2.34,11.61-2.34,8.9.78,11.63,2.34,4.09,4.28,4.09,8.16S32.19,4414.27,29.46,4415.84ZM9.8,4404.15A3.48,3.48,0,0,0,7,4407.68a3.42,3.42,0,0,0,2.79,3.5,29.53,29.53,0,0,0,8,.82,29.34,29.34,0,0,0,8.14-.82,3.39,3.39,0,0,0,2.65-3.5,3.44,3.44,0,0,0-2.65-3.53,29,29,0,0,0-8.14-.86A29.48,29.48,0,0,0,9.8,4404.15Z"/><path class="cls-1" d="M8.88,4422.5q3,1.29,6.45,6.05a42.94,42.94,0,0,0,4.24,5.35,6.2,6.2,0,0,0,4.37,1.87,4.76,4.76,0,0,0,3.21-1.07,4.36,4.36,0,0,0,0-6.16,5.1,5.1,0,0,0-.77-.62,10.34,10.34,0,0,0-3.73-.67v-5.82a14.92,14.92,0,0,1,6.27,1.41q4.56,2.4,4.56,8.51a10.79,10.79,0,0,1-2.68,7.7,9.21,9.21,0,0,1-7.08,2.85,9.5,9.5,0,0,1-6-2,19.62,19.62,0,0,1-3.88-4.35l-1.7-2.4c-1.07-1.5-1.84-2.53-2.31-3.08a7.14,7.14,0,0,0-1.66-1.39V4442H2.9v-20.84A14.07,14.07,0,0,1,8.88,4422.5Z"/><path class="cls-1" d="M33.81,4458.05l-12.56-6.42v-4.33l12.56,4Zm0,10.71-12.56-6.39v-4.32l12.56,4Z"/><path class="cls-1" d="M33.85,4473.08v6.78l-21.58,12.29H33.85v6H2.9v-6.46l22-12.6H2.9v-6Z"/><path class="cls-1" d="M23.9,4515.89H28a25.44,25.44,0,0,0,.38,4,5.5,5.5,0,0,0,1.59,2.94,5.3,5.3,0,0,0,2.19,1.17,4.54,4.54,0,0,0,1.21.23v5H2.9v-6.13h21Z"/><path class="cls-1" d="M29.46,4556.83q-4.09,2.34-11.63,2.34t-11.61-2.34q-4.08-2.34-4.08-8.2t4.08-8.16q4.05-2.34,11.61-2.34t11.63,2.34q4.08,2.34,4.09,8.16T29.46,4556.83ZM9.8,4545.14A3.48,3.48,0,0,0,7,4548.67a3.42,3.42,0,0,0,2.79,3.5,29.53,29.53,0,0,0,8,.82,29.34,29.34,0,0,0,8.14-.82,3.39,3.39,0,0,0,2.7-3.54A3.44,3.44,0,0,0,26,4545.1a29,29,0,0,0-8.14-.86A29.14,29.14,0,0,0,9.8,4545.14Z"/><path class="cls-1" d="M16,4563a7.4,7.4,0,0,1,3.13,3.39,7.13,7.13,0,0,1,3.18-2.87,8.77,8.77,0,0,1,3.2-.67,7.51,7.51,0,0,1,5.66,2.51c1.56,1.67,2.34,4,2.34,7.07s-.78,5.4-2.34,7.07a7.43,7.43,0,0,1-5.66,2.5,8.8,8.8,0,0,1-3.2-.66,6,6,0,0,1-3-2.87,8.29,8.29,0,0,1-3.34,3.4,9.41,9.41,0,0,1-4.64,1.14,8.62,8.62,0,0,1-6.54-2.85q-2.7-2.85-2.7-7.95t2.7-7.74a9,9,0,0,1,6.54-2.62A9.5,9.5,0,0,1,16,4563Zm-7.73,6.23a4.79,4.79,0,0,0,0,6.44,4.88,4.88,0,0,0,3.49,1.17,4.84,4.84,0,0,0,3.54-1.19,4.87,4.87,0,0,0,0-6.4,4.93,4.93,0,0,0-3.54-1.19A4.92,4.92,0,0,0,8.25,4569.26Zm13.86.38a3.83,3.83,0,0,0,2.71,6.66,3.78,3.78,0,0,0,2.82-1,3.86,3.86,0,0,0-2.82-6.69,3.76,3.76,0,0,0-2.71,1Z"/><path class="cls-1" d="M33.55,4593.41a6.83,6.83,0,1,1-2-4.78A6.53,6.53,0,0,1,33.55,4593.41Zm-6.78-3.4a3.38,3.38,0,1,0,3.39,3.37,3.42,3.42,0,0,0-1-2.37,3.36,3.36,0,0,0-2.41-1Z"/><path class="cls-1" d="M8.88,4604.63q3,1.29,6.45,6.05a42.94,42.94,0,0,0,4.24,5.35,6.2,6.2,0,0,0,4.37,1.87,4.87,4.87,0,0,0,3.21-1.07,3.8,3.8,0,0,0,1.28-3.07,3.75,3.75,0,0,0-2-3.71,10.34,10.34,0,0,0-3.73-.67v-5.82A14.92,14.92,0,0,1,29,4605q4.56,2.4,4.56,8.51a10.77,10.77,0,0,1-2.68,7.69,9.18,9.18,0,0,1-7.08,2.86,9.5,9.5,0,0,1-6-2,19.62,19.62,0,0,1-3.93-4.4l-1.7-2.4c-1.07-1.5-1.84-2.53-2.31-3.08a7.18,7.18,0,0,0-1.66-1.4V4624H2.9v-20.85A14.61,14.61,0,0,1,8.88,4604.63Z"/><path class="cls-1" d="M30.56,4629.87a9.59,9.59,0,0,1,3,7.34q0,7-6.16,9.53a23.7,23.7,0,0,1-9.17,1.47A25.78,25.78,0,0,1,9,4646.8q-7-2.67-7-9.87a10,10,0,0,1,2-6.15,8.06,8.06,0,0,1,5.91-3.13v6a3.7,3.7,0,0,0-2.18,1.13,3.53,3.53,0,0,0-.84,2.46c0,2,1.09,3.36,3.28,4.15a18.46,18.46,0,0,0,5.27.82,6.11,6.11,0,0,1-1.58-1.74,7.83,7.83,0,0,1-1-4.13,9.37,9.37,0,0,1,2.51-6.45q2.52-2.8,7.24-2.81A11.17,11.17,0,0,1,30.56,4629.87Zm-12.08,10.07c.87,1.36,2.37,2,4.51,2a6.4,6.4,0,0,0,4.1-1.2,4,4,0,0,0,1.51-3.31,4.15,4.15,0,0,0-.86-2.62q-1.35-1.73-4.56-1.73a6.36,6.36,0,0,0-4.06,1.11,4.11,4.11,0,0,0-1.36,3.39A4.18,4.18,0,0,0,18.48,4639.94Z"/><path class="cls-1" d="M33.81,4664.06l-12.56-6.38v-4.33l12.56,4Z"/><path class="cls-1" d="M23.9,4667H28a25.44,25.44,0,0,0,.38,4,5.44,5.44,0,0,0,1.59,2.93,5,5,0,0,0,2.19,1.17,4.54,4.54,0,0,0,1.21.23v5H2.9v-6.13h21Z"/><path class="cls-1" d="M30.56,4692a9.59,9.59,0,0,1,3,7.34q0,7-6.16,9.53a23.7,23.7,0,0,1-9.17,1.47A25.78,25.78,0,0,1,9,4709q-7-2.67-7-9.87a10,10,0,0,1,2-6.15,8.06,8.06,0,0,1,5.91-3.13v6a3.59,3.59,0,0,0-2.18,1.13,3.49,3.49,0,0,0-.84,2.46c0,2,1.09,3.36,3.28,4.15a18.46,18.46,0,0,0,5.27.82,6.11,6.11,0,0,1-1.58-1.74,7.87,7.87,0,0,1-1-4.14,9.39,9.39,0,0,1,2.51-6.44q2.52-2.82,7.24-2.82A11.22,11.22,0,0,1,30.56,4692Zm-12.08,10.07c.87,1.34,2.37,2,4.51,2a6.4,6.4,0,0,0,4.1-1.2,4,4,0,0,0,1.55-3.26,4.19,4.19,0,0,0-.86-2.63c-.9-1.14-2.42-1.72-4.56-1.72a6.43,6.43,0,0,0-4.06,1.1,4.58,4.58,0,0,0-.64,5.73Z"/><path class="cls-1" d="M33.81,4726.21l-12.56-6.38v-4.33l12.56,4Zm0,10.71-12.56-6.39v-4.32l12.56,4Z"/><path class="cls-1" d="M33.85,4745.56l-17.73,4.07-4.93.89,4.83.9,17.83,3.49v6.82l-17.72,3.68-4.94.94,4.75,1,17.91,4.12v6.59L2.9,4769.35v-6.19l18.1-3.74,6-1.09-6-1.09L2.9,4753.5v-6l31-8.78Z"/></g></g></svg>