<svg xmlns="http://www.w3.org/2000/svg" viewBox="0 0 40.84 4625.09"><defs><style>.cls-1{fill:#fff;}</style></defs><title>CO</title><g id="Layer_2" data-name="Layer 2"><g id="Layer_1-2" data-name="Layer 1"><path class="cls-1" d="M40.21,20.64v9.3H9.26v-6h26l-26-5.87V11.81L35.23,6h-26V0h31V9.41L15.87,15Z"/><path class="cls-1" d="M12.06,54.53q-3.59-2.89-3.58-8.8t3.58-8.8A13.24,13.24,0,0,1,20.67,34a13.34,13.34,0,0,1,8.58,2.9q3.63,2.9,3.63,8.8t-3.63,8.8a13.35,13.35,0,0,1-8.58,2.89A13.22,13.22,0,0,1,12.06,54.53Zm3.31-4.79a8.66,8.66,0,0,0,5.3,1.41A8.6,8.6,0,0,0,26,49.74a5.23,5.23,0,0,0,0-8,8.55,8.55,0,0,0-5.29-1.42,8.58,8.58,0,0,0-5.3,1.42,4.76,4.76,0,0,0-1.87,4A4.75,4.75,0,0,0,15.37,49.74Z"/><path class="cls-1" d="M23.94,75.4a5.33,5.33,0,0,0,2.31-.87,3.62,3.62,0,0,0,1.38-3.13,4.13,4.13,0,0,0-3-4.15,12.41,12.41,0,0,0-4.23-.59,11.56,11.56,0,0,0-4,.59,4,4,0,0,0-2.86,4,3.57,3.57,0,0,0,1.13,3,5.6,5.6,0,0,0,2.94,1.07v6.11a9.94,9.94,0,0,1-5.16-2q-3.93-2.82-3.93-8.34T11.76,63a13.19,13.19,0,0,1,8.49-2.6q5.9,0,9.17,2.87a10,10,0,0,1,3.27,8,12,12,0,0,1-1.93,7c-1.29,1.82-3.57,2.91-6.82,3.26Z"/><path class="cls-1" d="M27.67,83.27h4.27v3.19h6.38v5.92H31.94V96.1H27.67V92.38H15.58a2.68,2.68,0,0,0-1.75.36,4,4,0,0,0-.35,2.18V96.1H9.05l-.11-2.84Q8.81,89,10.41,87.47a4.44,4.44,0,0,1,3.17-1H27.67Z"/><path class="cls-1" d="M31.68,114.85a9.26,9.26,0,0,1-3.38,4,11.27,11.27,0,0,1-4.74,1.82,29.94,29.94,0,0,1-4.54.2V104.16q-3.43.14-4.83,2.39a6.17,6.17,0,0,0-.86,3.3,5.12,5.12,0,0,0,1.05,3.33A5.16,5.16,0,0,0,16,114.41v6.11a7.4,7.4,0,0,1-4.14-2.22c-2.22-2-3.34-4.92-3.34-8.61a12.46,12.46,0,0,1,2.82-8.06q2.82-3.5,9.16-3.49c4,0,7,1,9.12,3.15a11,11,0,0,1,3.17,8.18A12.94,12.94,0,0,1,31.68,114.85Zm-5.17-8.95A6.23,6.23,0,0,0,23,104.31v10.31a5,5,0,0,0,3.62-1.6,5.24,5.24,0,0,0,1.23-3.55A4.78,4.78,0,0,0,26.51,105.9Z"/><path class="cls-1" d="M27.27,122.55h4.88v18.1h-5l-13-11.23v11.63H9.26V121.76h4.66L27.27,133.1Z"/><path class="cls-1" d="M32.15,151.32H18.35a7.2,7.2,0,0,0-2.94.46A3.18,3.18,0,0,0,13.67,155a4.16,4.16,0,0,0,2.48,4.18,9.09,9.09,0,0,0,3.54.59H32.15v6.07H9.26V160h3.23q-.11-.09-.63-.42a4.33,4.33,0,0,1-.92-.79,8.16,8.16,0,0,1-1.72-2.72A9.15,9.15,0,0,1,8.76,153c0-3.38,1.21-5.66,3.65-6.83a14,14,0,0,1,5.94-1h13.8Z"/><path class="cls-1" d="M32.06,200.18a6.76,6.76,0,0,1-5,4,22.47,22.47,0,0,1-3.38.2H9.26v-6.13H23.83a4.76,4.76,0,0,0,2.14-.42,3,3,0,0,0,1.6-2.94,3.44,3.44,0,0,0-2.06-3.42,6.52,6.52,0,0,0-2.62-.48H9.26v-6H22.89a7.64,7.64,0,0,0,3-.42,2.93,2.93,0,0,0,1.65-3c0-1.71-.55-2.85-1.65-3.44a6.49,6.49,0,0,0-2.82-.49H9.26v-6.06H32.1v5.81H28.76a9.73,9.73,0,0,1,2.55,2.1,8.29,8.29,0,0,1,.18,8.75,6.75,6.75,0,0,1-2.75,2,7.66,7.66,0,0,1,3,2.92,8.93,8.93,0,0,1,.95,4.12A8,8,0,0,1,32.06,200.18Z"/><path class="cls-1" d="M23.18,218.92a9.72,9.72,0,0,0,.52,2.39,1.81,1.81,0,0,0,1.71,1.29,2,2,0,0,0,1.94-1,6.42,6.42,0,0,0,.53-2.9,3.82,3.82,0,0,0-1.05-3,4.36,4.36,0,0,0-2.1-.85V209a8.79,8.79,0,0,1,4.94,1.68q3,2.38,3,8.19a14.65,14.65,0,0,1-1.49,6.7c-1,2-2.87,2.93-5.63,2.93H12.43a3.57,3.57,0,0,0-1.6.36,2.21,2.21,0,0,0-.69.88H9.26v-6.51a6.63,6.63,0,0,1,1.3-.37c.41-.07.87-.13,1.39-.17a12.47,12.47,0,0,1-2.29-2.87,8.78,8.78,0,0,1-1.11-4.4,7.58,7.58,0,0,1,1.77-5.16,6.32,6.32,0,0,1,5-2,6.53,6.53,0,0,1,6.11,3.28,15,15,0,0,1,1.47,5.29Zm-2.79,3.66a6.61,6.61,0,0,1-.58-1.16,9.74,9.74,0,0,1-.41-1.61l-.25-1.36a9.18,9.18,0,0,0-.82-2.75,2.74,2.74,0,0,0-2.54-1.41,2.66,2.66,0,0,0-2.22.86,3.3,3.3,0,0,0-.68,2.1A6.21,6.21,0,0,0,14,220.86c.75,1.1,2.13,1.68,4.13,1.72Z"/><path class="cls-1" d="M37,249.16a12.74,12.74,0,0,1,3.83,9.51q0,7.72-5.13,11.3a11.18,11.18,0,0,1-5.77,2.12v-6.47A8.83,8.83,0,0,0,33.26,264a6.37,6.37,0,0,0,2-5.12,6.28,6.28,0,0,0-2.84-5.45q-2.85-2-8-2c-3.48,0-6.07.7-7.8,2.11a6.59,6.59,0,0,0-2.6,5.35A6.07,6.07,0,0,0,16.21,264a9.76,9.76,0,0,0,3.59,1.6V272a14,14,0,0,1-8.23-4.25A12.4,12.4,0,0,1,8.4,259q0-6.6,4.28-10.38t11.8-3.78Q32.58,244.86,37,249.16Z"/><path class="cls-1" d="M12.06,295.86q-3.59-2.91-3.58-8.8t3.58-8.8a13.25,13.25,0,0,1,8.61-2.9,13.34,13.34,0,0,1,8.58,2.9q3.63,2.89,3.63,8.8t-3.63,8.8a13.35,13.35,0,0,1-8.58,2.89A13.24,13.24,0,0,1,12.06,295.86Zm3.31-4.79a8.66,8.66,0,0,0,5.3,1.41A8.6,8.6,0,0,0,26,291.07,5.31,5.31,0,0,0,26,283a8.55,8.55,0,0,0-5.29-1.42,8.58,8.58,0,0,0-5.3,1.42,5.29,5.29,0,0,0-.61,7.46,5,5,0,0,0,.61.61Z"/><path class="cls-1" d="M32.15,309H18.35a7.2,7.2,0,0,0-2.94.46,3.18,3.18,0,0,0-1.74,3.2,4.15,4.15,0,0,0,2.48,4.17,9.09,9.09,0,0,0,3.54.59H32.15v6.07H9.26v-5.82h3.23l-.63-.42a4.33,4.33,0,0,1-.92-.79,8.12,8.12,0,0,1-1.72-2.71,9.15,9.15,0,0,1-.46-3.07c0-3.38,1.21-5.66,3.65-6.83a14,14,0,0,1,5.94-1h13.8Z"/><path class="cls-1" d="M30.83,347.76c-1.24,1.5-3.29,2.24-6.16,2.24H9.26v-6.13H23.18a6.41,6.41,0,0,0,2.77-.48,3.35,3.35,0,0,0,1.76-3.33,4.13,4.13,0,0,0-2.58-4.15,9,9,0,0,0-3.48-.58H9.26v-6H32.1v5.8H28.76a10.38,10.38,0,0,1,2.55,2.17,7.57,7.57,0,0,1,1.38,4.7A8.81,8.81,0,0,1,30.83,347.76Z"/><path class="cls-1" d="M27.67,353.22h4.27v3.19h6.38v5.92H31.94v3.72H27.67v-3.72H15.58a2.68,2.68,0,0,0-1.75.36,3.9,3.9,0,0,0-.35,2.18v1.18H9.05l-.11-2.84q-.13-4.24,1.47-5.79a4.34,4.34,0,0,1,3.17-1H27.67Z"/><path class="cls-1" d="M4.87,370.79v.76a9.44,9.44,0,0,0,.06,1.68,2.94,2.94,0,0,0,.49,1.34,3.16,3.16,0,0,0,1.49,1,3.7,3.7,0,0,0,1.38.39l23.9-8.41v6.65l-16.89,5,16.89,4.72v6.36L9.64,382.42q-6.51-2.28-8.08-3.6T0,373.52v-1.28a13,13,0,0,1,.07-1.45Z"/><path class="cls-1" d="M4.28,390.32A4.67,4.67,0,0,0,6,393a6.15,6.15,0,0,0,3.3,1v-3.63h6.28v6.47H10.1a12.65,12.65,0,0,1-3-.38A6,6,0,0,1,4.43,395a7.26,7.26,0,0,1-1.84-2.61A7,7,0,0,1,2,390.32Z"/><path class="cls-1" d="M37,418a12.74,12.74,0,0,1,3.83,9.51q0,7.73-5.13,11.3a11.18,11.18,0,0,1-5.77,2.12v-6.47a9,9,0,0,0,3.36-1.58,6.37,6.37,0,0,0,2-5.12,6.28,6.28,0,0,0-2.84-5.45q-2.85-2-8-2c-3.48,0-6.07.7-7.8,2.11a6.59,6.59,0,0,0-2.6,5.35,6,6,0,0,0,2.23,5.07,9.76,9.76,0,0,0,3.59,1.6v6.43a14,14,0,0,1-8.23-4.25,12.39,12.39,0,0,1-3.17-8.76q0-6.6,4.28-10.38t11.8-3.78Q32.57,413.67,37,418Z"/><path class="cls-1" d="M12.06,464.67q-3.59-2.91-3.58-8.8t3.58-8.8a13.25,13.25,0,0,1,8.61-2.9,13.34,13.34,0,0,1,8.58,2.9q3.63,2.9,3.63,8.8t-3.63,8.8a13.35,13.35,0,0,1-8.58,2.89A13.24,13.24,0,0,1,12.06,464.67Zm3.31-4.79a8.66,8.66,0,0,0,5.3,1.41A8.6,8.6,0,0,0,26,459.88a5.31,5.31,0,0,0,0-8.07,8.55,8.55,0,0,0-5.29-1.42,8.58,8.58,0,0,0-5.3,1.42,5.29,5.29,0,0,0-.61,7.46,5,5,0,0,0,.61.61Z"/><path class="cls-1" d="M9.26,478v-6h31v6Z"/><path class="cls-1" d="M12.06,502.88q-3.59-2.89-3.58-8.8t3.58-8.8a13.24,13.24,0,0,1,8.61-2.89,13.35,13.35,0,0,1,8.58,2.89q3.63,2.91,3.63,8.8t-3.63,8.8a13.34,13.34,0,0,1-8.58,2.9A13.25,13.25,0,0,1,12.06,502.88Zm3.31-4.79a8.66,8.66,0,0,0,5.3,1.41A8.6,8.6,0,0,0,26,498.09a5.32,5.32,0,0,0,.6-7.49,5.66,5.66,0,0,0-.6-.6,8.55,8.55,0,0,0-5.29-1.42,8.58,8.58,0,0,0-5.3,1.42,5.29,5.29,0,0,0-.61,7.46,5,5,0,0,0,.61.61Z"/><path class="cls-1" d="M32.68,522.77v.52H26.52c0-.38.07-.72.08-1s0-.53,0-.71q0-3.62-2.35-4.86A9.22,9.22,0,0,0,20.2,516H9.26v-6H32.15v5.71h-4a12.83,12.83,0,0,1,3.12,2.41,6.58,6.58,0,0,1,1.41,4.37A1.31,1.31,0,0,1,32.68,522.77Z"/><path class="cls-1" d="M23.18,535.86a9.72,9.72,0,0,0,.52,2.39,1.81,1.81,0,0,0,1.71,1.29,2,2,0,0,0,1.94-1,6.47,6.47,0,0,0,.53-2.91,3.82,3.82,0,0,0-1.05-3,4.26,4.26,0,0,0-2.1-.85V526a8.8,8.8,0,0,1,4.94,1.69q3,2.38,3,8.18a14.72,14.72,0,0,1-1.49,6.71c-1,1.95-2.86,2.93-5.63,2.93H12.43a3.27,3.27,0,0,0-1.6.36,2.21,2.21,0,0,0-.69.88H9.26v-6.51a6.47,6.47,0,0,1,1.3-.38c.41-.07.87-.12,1.39-.16a12.26,12.26,0,0,1-2.29-2.88,8.74,8.74,0,0,1-1.11-4.39,7.58,7.58,0,0,1,1.77-5.16,6.32,6.32,0,0,1,5-2,6.51,6.51,0,0,1,6.11,3.28,15,15,0,0,1,1.47,5.29Zm-2.79,3.66a7.39,7.39,0,0,1-.58-1.16,9.74,9.74,0,0,1-.41-1.61l-.25-1.36a9.18,9.18,0,0,0-.82-2.75,2.74,2.74,0,0,0-2.54-1.42,2.66,2.66,0,0,0-2.22.87,3.3,3.3,0,0,0-.68,2.1A6.21,6.21,0,0,0,14,537.8c.75,1.1,2.13,1.67,4.13,1.72Z"/><path class="cls-1" d="M31.78,562.84a7.25,7.25,0,0,1-2.53,2.63H40.17v6.07H9.26v-5.82h3.17a8.39,8.39,0,0,1-3-2.92,8.11,8.11,0,0,1-.92-4.07A8.47,8.47,0,0,1,11.79,552a12.43,12.43,0,0,1,8.32-2.74c3.91,0,7,.9,9.22,2.7a8.76,8.76,0,0,1,3.36,7.21A7.35,7.35,0,0,1,31.78,562.84Zm-16.31,1.47a8.42,8.42,0,0,0,4.9,1.33q4.2,0,6-2.13a4.51,4.51,0,0,0,1.09-3,4.2,4.2,0,0,0-2-3.85,9.22,9.22,0,0,0-4.92-1.23,9.15,9.15,0,0,0-5.08,1.25,4.25,4.25,0,0,0-1.9,3.79A4.41,4.41,0,0,0,15.47,564.31Z"/><path class="cls-1" d="M12.06,596.06q-3.59-2.89-3.58-8.8t3.58-8.8a13.24,13.24,0,0,1,8.61-2.89,13.35,13.35,0,0,1,8.58,2.89q3.63,2.91,3.63,8.8t-3.63,8.8a13.34,13.34,0,0,1-8.58,2.9A13.25,13.25,0,0,1,12.06,596.06Zm3.31-4.79a8.66,8.66,0,0,0,5.3,1.41A8.6,8.6,0,0,0,26,591.27a5.31,5.31,0,0,0,0-8.07,8.55,8.55,0,0,0-5.29-1.42,8.58,8.58,0,0,0-5.3,1.42,5.29,5.29,0,0,0-.61,7.46,5,5,0,0,0,.61.61Z"/><path class="cls-1" d="M40.21,823.71V833H9.26v-6h26l-26-5.87v-6.28l26-5.82h-26v-6h31v9.47l-24.34,5.63Z"/><path class="cls-1" d="M12.06,857.6q-3.59-2.88-3.58-8.8t3.58-8.8a13.31,13.31,0,0,1,8.61-2.9,13.4,13.4,0,0,1,8.58,2.9q3.63,2.91,3.63,8.8t-3.63,8.8a13.29,13.29,0,0,1-8.58,2.89A13.19,13.19,0,0,1,12.06,857.6Zm3.31-4.79a8.59,8.59,0,0,0,5.3,1.41,8.59,8.59,0,0,0,5.33-1.4,5.31,5.31,0,0,0,.58-7.49,4.54,4.54,0,0,0-.58-.58,8.43,8.43,0,0,0-5.29-1.42,8.45,8.45,0,0,0-5.3,1.42,5.28,5.28,0,0,0-.61,7.45,5.1,5.1,0,0,0,.61.62Z"/><path class="cls-1" d="M23.94,878.51a5.21,5.21,0,0,0,2.31-.87,3.61,3.61,0,0,0,1.38-3.13,4.14,4.14,0,0,0-3-4.15,12.92,12.92,0,0,0-4.23-.59,11.56,11.56,0,0,0-4,.59,4,4,0,0,0-2.86,4,3.55,3.55,0,0,0,1.13,3,5.6,5.6,0,0,0,2.94,1.07v6.08a9.86,9.86,0,0,1-5.16-2q-3.93-2.82-3.93-8.33T11.8,866a13.07,13.07,0,0,1,8.49-2.6q5.9,0,9.17,2.87a10,10,0,0,1,3.27,8,12,12,0,0,1-1.93,7c-1.29,1.83-3.57,2.91-6.82,3.25Z"/><path class="cls-1" d="M27.67,886.34h4.27v3.17h6.38v5.93H31.94v3.71H27.67v-3.71H15.58a2.63,2.63,0,0,0-1.75.36,4,4,0,0,0-.35,2.18v1.17H9.05l-.11-2.83q-.13-4.23,1.47-5.8a4.44,4.44,0,0,1,3.17-1H27.67Z"/><path class="cls-1" d="M31.68,917.93a9.32,9.32,0,0,1-3.38,4,11.12,11.12,0,0,1-4.74,1.81,27.56,27.56,0,0,1-4.54.2V907.27q-3.43.13-4.83,2.39a6.2,6.2,0,0,0-.86,3.3,5.12,5.12,0,0,0,1.05,3.33A5.2,5.2,0,0,0,16,917.51v6.11a7.4,7.4,0,0,1-4.14-2.22c-2.22-2-3.34-4.92-3.34-8.6a12.49,12.49,0,0,1,2.82-8.07q2.82-3.5,9.16-3.49c4,0,7,1,9.12,3.15a11,11,0,0,1,3.17,8.19A12.83,12.83,0,0,1,31.68,917.93Zm-5.17-9A6.19,6.19,0,0,0,23,907.34v10.31a5.06,5.06,0,0,0,3.62-1.6,5.24,5.24,0,0,0,1.23-3.55A4.8,4.8,0,0,0,26.51,909Z"/><path class="cls-1" d="M27.27,925.62h4.88v18.1h-5l-13-11.23v11.63H9.26V924.83h4.66l13.35,11.34Z"/><path class="cls-1" d="M32.15,954.39H18.35a7.37,7.37,0,0,0-2.94.46A3.18,3.18,0,0,0,13.67,958a4.14,4.14,0,0,0,2.48,4.18,8.74,8.74,0,0,0,3.54.59H32.15v6.07H9.26v-5.82h3.23q-.11-.09-.63-.42a4.06,4.06,0,0,1-.92-.79,8.06,8.06,0,0,1-1.72-2.72,9.06,9.06,0,0,1-.46-3.06c0-3.38,1.21-5.66,3.65-6.83a14.33,14.33,0,0,1,5.94-1h13.8Z"/><path class="cls-1" d="M32.06,1003.25a6.69,6.69,0,0,1-5,4,21.24,21.24,0,0,1-3.38.21H9.26v-6.13H23.83a4.77,4.77,0,0,0,2.14-.43,3,3,0,0,0,1.6-2.93,3.45,3.45,0,0,0-2.06-3.43,6.51,6.51,0,0,0-2.62-.47H9.26v-6H22.89a7.65,7.65,0,0,0,3-.43,2.92,2.92,0,0,0,1.65-3c0-1.71-.55-2.85-1.65-3.43a6.21,6.21,0,0,0-2.82-.49H9.26v-6.07H32.1v5.82H28.76a9.36,9.36,0,0,1,2.55,2.1,8.31,8.31,0,0,1,.18,8.76,6.75,6.75,0,0,1-2.75,2,7.59,7.59,0,0,1,3,2.92,8.9,8.9,0,0,1,.95,4.12A7.88,7.88,0,0,1,32.06,1003.25Z"/><path class="cls-1" d="M23.18,1022a9.72,9.72,0,0,0,.52,2.39,1.83,1.83,0,0,0,1.71,1.3,2,2,0,0,0,1.94-1,6.47,6.47,0,0,0,.53-2.91,3.84,3.84,0,0,0-1.05-3,4.35,4.35,0,0,0-2.1-.84v-5.78a8.8,8.8,0,0,1,4.94,1.69q3,2.37,3,8.18a14.65,14.65,0,0,1-1.49,6.7c-1,2-2.87,2.93-5.63,2.93H12.43a3.57,3.57,0,0,0-1.6.36,2.28,2.28,0,0,0-.69.88H9.26v-6.51a7.4,7.4,0,0,1,1.3-.37c.41-.06.87-.13,1.39-.17A12.26,12.26,0,0,1,9.66,1023a8.78,8.78,0,0,1-1.11-4.4,7.62,7.62,0,0,1,1.77-5.16,6.32,6.32,0,0,1,5-2,6.53,6.53,0,0,1,6.11,3.28A15.08,15.08,0,0,1,22.9,1020Zm-2.79,3.66a6,6,0,0,1-.58-1.16,9.74,9.74,0,0,1-.41-1.61l-.25-1.36a9.18,9.18,0,0,0-.82-2.75,2.76,2.76,0,0,0-2.54-1.41,2.69,2.69,0,0,0-2.22.86,3.34,3.34,0,0,0-.68,2.1,6.19,6.19,0,0,0,1.14,3.61c.75,1.1,2.13,1.68,4.13,1.72Z"/><path class="cls-1" d="M37,1052.23a12.77,12.77,0,0,1,3.83,9.51q0,7.74-5.13,11.31a11.27,11.27,0,0,1-5.77,2.12v-6.47a9.11,9.11,0,0,0,3.36-1.58,6.37,6.37,0,0,0,2-5.12,6.27,6.27,0,0,0-2.84-5.45c-1.9-1.34-4.57-2-8-2s-6.07.7-7.8,2.11a6.58,6.58,0,0,0-2.6,5.35,6.13,6.13,0,0,0,2.23,5.07,9.93,9.93,0,0,0,3.59,1.6v6.43a14.08,14.08,0,0,1-8.23-4.25,12.39,12.39,0,0,1-3.17-8.76q0-6.6,4.28-10.38t11.8-3.78Q32.57,1047.94,37,1052.23Z"/><path class="cls-1" d="M12.06,1098.94q-3.59-2.93-3.58-8.81t3.58-8.8a13.31,13.31,0,0,1,8.61-2.9,13.4,13.4,0,0,1,8.58,2.9q3.63,2.91,3.63,8.8t-3.63,8.81a13.41,13.41,0,0,1-8.58,2.89A13.3,13.3,0,0,1,12.06,1098.94Zm3.31-4.8a8.67,8.67,0,0,0,5.3,1.42,8.62,8.62,0,0,0,5.29-1.42,5.3,5.3,0,0,0,.58-7.48,4.54,4.54,0,0,0-.58-.58,8.5,8.5,0,0,0-5.29-1.43,8.53,8.53,0,0,0-5.3,1.43,5.28,5.28,0,0,0-.61,7.45A4.4,4.4,0,0,0,15.37,1094.14Z"/><path class="cls-1" d="M32.15,1112.08H18.35a7,7,0,0,0-2.94.46,3.17,3.17,0,0,0-1.74,3.19,4.15,4.15,0,0,0,2.48,4.17,8.74,8.74,0,0,0,3.54.59H32.15v6.07H9.26v-5.82h3.23l-.63-.42a4.06,4.06,0,0,1-.92-.79,8.06,8.06,0,0,1-1.72-2.72,9.06,9.06,0,0,1-.46-3.06c0-3.38,1.21-5.66,3.65-6.83a14.33,14.33,0,0,1,5.94-1h13.8Z"/><path class="cls-1" d="M30.83,1150.83c-1.24,1.5-3.29,2.24-6.16,2.24H9.26v-6.13H23.18a6.19,6.19,0,0,0,2.82-.43,3.35,3.35,0,0,0,1.76-3.32,4.13,4.13,0,0,0-2.58-4.15,8.62,8.62,0,0,0-3.48-.58H9.26v-6H32.1v5.8H28.76a10.17,10.17,0,0,1,2.55,2.17,7.55,7.55,0,0,1,1.38,4.67A8.73,8.73,0,0,1,30.83,1150.83Z"/><path class="cls-1" d="M27.67,1156.3h4.27v3.21h6.38v5.93H31.94v3.71H27.67v-3.71H15.58a2.63,2.63,0,0,0-1.75.36,3.88,3.88,0,0,0-.35,2.18v1.17H9.05l-.11-2.83q-.13-4.24,1.47-5.8a4.43,4.43,0,0,1,3.17-1H27.67Z"/><path class="cls-1" d="M4.87,1173.86v.76a9.52,9.52,0,0,0,.06,1.69,2.86,2.86,0,0,0,.49,1.33,3.16,3.16,0,0,0,1.49,1,3.54,3.54,0,0,0,1.38.4l23.9-8.42v6.65l-16.89,5L32.19,1187v6.36l-22.55-7.84q-6.51-2.28-8.08-3.59T0,1176.59v-1.28a13,13,0,0,1,.07-1.45Z"/><path class="cls-1" d="M4.28,1193.39A4.72,4.72,0,0,0,6,1196.05a6.32,6.32,0,0,0,3.3,1v-3.63h6.28v6.46H10.1a12.15,12.15,0,0,1-3-.38,5.93,5.93,0,0,1-2.69-1.41,7.13,7.13,0,0,1-1.82-2.58,7.11,7.11,0,0,1-.62-2.06Z"/><path class="cls-1" d="M37,1221.05a12.71,12.71,0,0,1,3.8,9.46c0,5.16-1.71,8.92-5.13,11.31a11.27,11.27,0,0,1-5.77,2.12v-6.43a8.93,8.93,0,0,0,3.36-1.57,6.37,6.37,0,0,0,2-5.12,6.27,6.27,0,0,0-2.84-5.45c-1.9-1.34-4.57-2-8-2s-6.07.7-7.8,2.11a6.58,6.58,0,0,0-2.6,5.35,6,6,0,0,0,2.23,5.06,9.6,9.6,0,0,0,3.59,1.6v6.44a14.08,14.08,0,0,1-8.23-4.25,12.39,12.39,0,0,1-3.17-8.76c0-4.41,1.43-7.86,4.28-10.38s6.79-3.79,11.8-3.79Q32.58,1216.75,37,1221.05Z"/><path class="cls-1" d="M12.06,1267.74q-3.59-2.9-3.58-8.8t3.58-8.8a13.31,13.31,0,0,1,8.61-2.9,13.4,13.4,0,0,1,8.58,2.9q3.63,2.89,3.63,8.8t-3.63,8.8a13.29,13.29,0,0,1-8.58,2.89A13.19,13.19,0,0,1,12.06,1267.74Zm3.31-4.79a8.59,8.59,0,0,0,5.3,1.41A8.55,8.55,0,0,0,26,1263a5.3,5.3,0,0,0,.58-7.48,5.39,5.39,0,0,0-.58-.59,8.55,8.55,0,0,0-5.29-1.42,8.58,8.58,0,0,0-5.3,1.42,5.29,5.29,0,0,0-.61,7.46A4.4,4.4,0,0,0,15.37,1263Z"/><path class="cls-1" d="M9.26,1281v-6h31v6Z"/><path class="cls-1" d="M12.06,1306q-3.59-2.88-3.58-8.8t3.58-8.8a13.3,13.3,0,0,1,8.61-2.89,13.41,13.41,0,0,1,8.58,2.89q3.63,2.91,3.63,8.8t-3.63,8.8a13.28,13.28,0,0,1-8.58,2.9A13.2,13.2,0,0,1,12.06,1306Zm3.31-4.79a8.59,8.59,0,0,0,5.3,1.41,8.55,8.55,0,0,0,5.29-1.41,5.3,5.3,0,0,0,.58-7.48,5.39,5.39,0,0,0-.58-.59,8.55,8.55,0,0,0-5.29-1.42,8.58,8.58,0,0,0-5.3,1.42,5.29,5.29,0,0,0-.61,7.46A4.4,4.4,0,0,0,15.37,1301.16Z"/><path class="cls-1" d="M32.68,1325.84v.52H26.52c0-.38.07-.72.08-1s0-.53,0-.71q0-3.62-2.35-4.85a9,9,0,0,0-4.07-.69H9.26v-6H32.15v5.71h-4a12.36,12.36,0,0,1,3.12,2.41,6.56,6.56,0,0,1,1.41,4.37Z"/><path class="cls-1" d="M23.18,1338.94a9.92,9.92,0,0,0,.52,2.39,1.83,1.83,0,0,0,1.71,1.29,2,2,0,0,0,1.94-1,6.49,6.49,0,0,0,.53-2.91,3.82,3.82,0,0,0-1.05-3,4.17,4.17,0,0,0-2.1-.85v-5.78a8.79,8.79,0,0,1,4.94,1.68q3,2.38,3,8.19a14.65,14.65,0,0,1-1.49,6.7c-1,1.95-2.86,2.93-5.63,2.94H12.43a3.16,3.16,0,0,0-1.6.36,2.14,2.14,0,0,0-.69.88H9.26v-6.51a5.88,5.88,0,0,1,1.3-.38c.41-.07.87-.12,1.39-.17a12.52,12.52,0,0,1-2.29-2.88,8.68,8.68,0,0,1-1.11-4.38,7.62,7.62,0,0,1,1.77-5.16,6.32,6.32,0,0,1,5-2,6.53,6.53,0,0,1,6.11,3.28,15.08,15.08,0,0,1,1.47,5.3Zm-2.79,3.66a7.39,7.39,0,0,1-.58-1.16,10.28,10.28,0,0,1-.41-1.61l-.25-1.36a9,9,0,0,0-.82-2.75,2.7,2.7,0,0,0-2.54-1.42,2.63,2.63,0,0,0-2.22.87,3.3,3.3,0,0,0-.68,2.09,6.19,6.19,0,0,0,1.14,3.61c.75,1.1,2.13,1.68,4.13,1.72Z"/><path class="cls-1" d="M31.78,1365.92a7.33,7.33,0,0,1-2.53,2.63H40.17v6.06H9.26v-5.81h3.17a8.42,8.42,0,0,1-3-2.93,8.07,8.07,0,0,1-.92-4.06,8.47,8.47,0,0,1,3.24-6.75,12.38,12.38,0,0,1,8.32-2.74c3.91,0,7,.9,9.22,2.69a8.76,8.76,0,0,1,3.36,7.21A7.34,7.34,0,0,1,31.78,1365.92Zm-16.31,1.46a8.34,8.34,0,0,0,4.9,1.33q4.2,0,6-2.13a4.51,4.51,0,0,0,1.09-3,4.21,4.21,0,0,0-2-3.85,9.31,9.31,0,0,0-4.92-1.23,9.23,9.23,0,0,0-5.08,1.25,4.26,4.26,0,0,0-1.9,3.8A4.39,4.39,0,0,0,15.47,1367.38Z"/><path class="cls-1" d="M12.06,1399.13q-3.59-2.88-3.58-8.8t3.58-8.8a13.3,13.3,0,0,1,8.61-2.89,13.41,13.41,0,0,1,8.58,2.89q3.63,2.91,3.63,8.8t-3.63,8.8a13.35,13.35,0,0,1-8.58,2.91A13.26,13.26,0,0,1,12.06,1399.13Zm3.31-4.79a8.59,8.59,0,0,0,5.3,1.41,8.55,8.55,0,0,0,5.29-1.41,5.3,5.3,0,0,0,.58-7.48,5.39,5.39,0,0,0-.58-.59,8.55,8.55,0,0,0-5.29-1.42,8.58,8.58,0,0,0-5.3,1.42,5.29,5.29,0,0,0-.61,7.46A4.4,4.4,0,0,0,15.37,1394.34Z"/><path class="cls-1" d="M40.21,1632.16v9.3H9.26v-6h26l-26-5.87v-6.26l26-5.81h-26v-6h31v9.41l-24.39,5.59Z"/><path class="cls-1" d="M12.06,1666.05q-3.59-2.88-3.58-8.8t3.58-8.8a13.24,13.24,0,0,1,8.61-2.93,13.4,13.4,0,0,1,8.58,2.9q3.63,2.91,3.63,8.8t-3.63,8.8a13.29,13.29,0,0,1-8.58,2.89A13.16,13.16,0,0,1,12.06,1666.05Zm3.31-4.79a8.59,8.59,0,0,0,5.3,1.41,8.53,8.53,0,0,0,5.33-1.41,5.23,5.23,0,0,0,0-8,8.55,8.55,0,0,0-5.29-1.42,8.58,8.58,0,0,0-5.3,1.42,5.25,5.25,0,0,0,0,8Z"/><path class="cls-1" d="M23.94,1686.92a5.21,5.21,0,0,0,2.31-.87,3.61,3.61,0,0,0,1.38-3.13,4.14,4.14,0,0,0-3-4.15,12.92,12.92,0,0,0-4.23-.59,11.56,11.56,0,0,0-4,.59,4,4,0,0,0-2.86,4,3.55,3.55,0,0,0,1.13,3,5.6,5.6,0,0,0,2.94,1.07V1693a9.86,9.86,0,0,1-5.16-2q-3.93-2.82-3.93-8.34c0-3.68,1.08-6.37,3.24-8.09a13.19,13.19,0,0,1,8.49-2.6q5.9,0,9.17,2.87a10,10,0,0,1,3.27,8,12,12,0,0,1-1.93,7c-1.29,1.82-3.57,2.91-6.82,3.26Z"/><path class="cls-1" d="M27.67,1694.79h4.27V1698h6.38v5.92H31.94v3.72H27.67v-3.72H15.58a2.75,2.75,0,0,0-1.75.36,4,4,0,0,0-.35,2.18v1.18H9.05l-.11-2.84q-.13-4.26,1.47-5.79a4.44,4.44,0,0,1,3.17-1H27.67Z"/><path class="cls-1" d="M31.68,1726.37a9.26,9.26,0,0,1-3.38,4,11.14,11.14,0,0,1-4.74,1.82,27.56,27.56,0,0,1-4.54.2v-16.71c-2.29.1-3.9.89-4.83,2.39a6.2,6.2,0,0,0-.86,3.3,5.12,5.12,0,0,0,1.05,3.33,5,5,0,0,0,1.62,1.23V1732a7.4,7.4,0,0,1-4.14-2.22c-2.22-2-3.34-4.92-3.34-8.61a12.48,12.48,0,0,1,2.82-8.06q2.82-3.5,9.16-3.49c4,0,7,1,9.12,3.15a11,11,0,0,1,3.17,8.18A12.91,12.91,0,0,1,31.68,1726.37Zm-5.17-8.95a6.3,6.3,0,0,0-3.51-1.59v10.31a5,5,0,0,0,3.62-1.6,5.22,5.22,0,0,0,1.23-3.55A4.8,4.8,0,0,0,26.51,1717.42Z"/><path class="cls-1" d="M27.27,1734.07h4.88v18.1h-5l-13-11.23v11.63H9.26v-19.29h4.66l13.35,11.34Z"/><path class="cls-1" d="M32.15,1762.84H18.35a7.37,7.37,0,0,0-2.94.46,3.18,3.18,0,0,0-1.74,3.22,4.14,4.14,0,0,0,2.48,4.18,8.74,8.74,0,0,0,3.54.59H32.15v6.07H9.26v-5.84h3.23q-.11-.09-.63-.42a4.06,4.06,0,0,1-.92-.79,8.06,8.06,0,0,1-1.72-2.72,9.11,9.11,0,0,1-.46-3.07c0-3.38,1.21-5.66,3.65-6.83a14.33,14.33,0,0,1,5.94-1h13.8Z"/><path class="cls-1" d="M32.06,1811.7a6.74,6.74,0,0,1-5,4,20.12,20.12,0,0,1-3.38.2H9.26v-6.13H23.83a4.63,4.63,0,0,0,2.14-.42,3,3,0,0,0,1.6-2.94,3.44,3.44,0,0,0-2.06-3.42,6.69,6.69,0,0,0-2.62-.48H9.26v-6H22.89a7.64,7.64,0,0,0,3-.42,2.92,2.92,0,0,0,1.65-3c0-1.71-.55-2.85-1.65-3.44a6.49,6.49,0,0,0-2.82-.49H9.26v-6.06H32.1v5.81H28.76a9.73,9.73,0,0,1,2.55,2.1,7.22,7.22,0,0,1,1.34,4.51,7.14,7.14,0,0,1-1.16,4.24,6.58,6.58,0,0,1-2.75,2,7.72,7.72,0,0,1,3,2.92,8.93,8.93,0,0,1,.95,4.12A8,8,0,0,1,32.06,1811.7Z"/><path class="cls-1" d="M23.18,1830.44a9.72,9.72,0,0,0,.52,2.39,1.81,1.81,0,0,0,1.71,1.29,2,2,0,0,0,1.94-1,6.4,6.4,0,0,0,.53-2.9,3.83,3.83,0,0,0-1.05-3,4.46,4.46,0,0,0-2.1-.85v-5.8a8.87,8.87,0,0,1,4.94,1.68q3,2.4,3,8.19a14.65,14.65,0,0,1-1.49,6.7c-1,2-2.87,2.93-5.63,2.93H12.43a3.7,3.7,0,0,0-1.6.36,2.28,2.28,0,0,0-.69.88H9.26v-6.51a7.4,7.4,0,0,1,1.3-.37c.41-.07.87-.13,1.39-.17a12.26,12.26,0,0,1-2.29-2.87,8.78,8.78,0,0,1-1.11-4.4,7.6,7.6,0,0,1,1.77-5.16,6.32,6.32,0,0,1,5-2,6.55,6.55,0,0,1,6.11,3.28,15.08,15.08,0,0,1,1.47,5.29Zm-2.79,3.66a6,6,0,0,1-.58-1.16,9.74,9.74,0,0,1-.41-1.61l-.25-1.36a9.18,9.18,0,0,0-.82-2.75,2.76,2.76,0,0,0-2.54-1.41,2.69,2.69,0,0,0-2.22.86,3.34,3.34,0,0,0-.68,2.1,6.19,6.19,0,0,0,1.11,3.61c.75,1.1,2.13,1.68,4.13,1.72Z"/><path class="cls-1" d="M37,1860.68a12.77,12.77,0,0,1,3.83,9.51q0,7.72-5.13,11.3a11.1,11.1,0,0,1-5.77,2.12v-6.47a8.83,8.83,0,0,0,3.33-1.62,7,7,0,0,0-.84-10.57q-2.85-2-8-2c-3.48,0-6.07.7-7.8,2.11a6.6,6.6,0,0,0-2.6,5.35,6.07,6.07,0,0,0,2.19,5.11,9.6,9.6,0,0,0,3.59,1.6v6.4a14,14,0,0,1-8.23-4.25,12.4,12.4,0,0,1-3.17-8.75q0-6.6,4.28-10.38t11.8-3.78Q32.58,1856.39,37,1860.68Z"/><path class="cls-1" d="M12.06,1907.38q-3.59-2.91-3.58-8.8t3.58-8.8a13.31,13.31,0,0,1,8.61-2.9,13.4,13.4,0,0,1,8.58,2.9q3.63,2.9,3.63,8.8t-3.63,8.8a13.29,13.29,0,0,1-8.58,2.89A13.19,13.19,0,0,1,12.06,1907.38Zm3.31-4.79a8.59,8.59,0,0,0,5.3,1.41,8.53,8.53,0,0,0,5.33-1.41,5.3,5.3,0,0,0,.58-7.48,5.39,5.39,0,0,0-.58-.59,8.55,8.55,0,0,0-5.29-1.42,8.58,8.58,0,0,0-5.3,1.42,5.29,5.29,0,0,0-.61,7.46,4.4,4.4,0,0,0,.61.61Z"/><path class="cls-1" d="M32.15,1920.52H18.35a7.37,7.37,0,0,0-2.94.46,3.19,3.19,0,0,0-1.74,3.2,4.15,4.15,0,0,0,2.48,4.17,8.74,8.74,0,0,0,3.54.59H32.15V1935H9.26v-5.82h3.23l-.63-.42a4.06,4.06,0,0,1-.92-.79,8.12,8.12,0,0,1-1.72-2.71,9.11,9.11,0,0,1-.46-3.07c0-3.38,1.21-5.66,3.65-6.83a14.33,14.33,0,0,1,5.94-1h13.8Z"/><path class="cls-1" d="M30.83,1959.28c-1.24,1.5-3.29,2.24-6.16,2.24H9.26v-6.13H23.18a6.27,6.27,0,0,0,2.77-.48,3.35,3.35,0,0,0,1.76-3.33,4.15,4.15,0,0,0-2.58-4.15,9,9,0,0,0-3.48-.58H9.26v-6H32.1v5.8H28.76a10.6,10.6,0,0,1,2.55,2.17,7.59,7.59,0,0,1,1.38,4.7A8.79,8.79,0,0,1,30.83,1959.28Z"/><path class="cls-1" d="M27.67,1964.74h4.27v3.19h6.38v5.92H31.94v3.72H27.67v-3.72H15.58a2.75,2.75,0,0,0-1.75.36,3.91,3.91,0,0,0-.35,2.18v1.18H9.05l-.11-2.84q-.13-4.23,1.47-5.79a4.43,4.43,0,0,1,3.17-1H27.67Z"/><path class="cls-1" d="M4.87,1982.31v.76a9.38,9.38,0,0,0,.06,1.68,2.9,2.9,0,0,0,.49,1.34,3.09,3.09,0,0,0,1.49,1,3.37,3.37,0,0,0,1.38.39l23.9-8.41v6.65l-16.89,5,16.89,4.72v6.36l-22.55-7.86q-6.51-2.28-8.08-3.6c-1-.88-1.57-2.64-1.56-5.3v-1.28a13,13,0,0,1,.07-1.45Z"/><path class="cls-1" d="M4.28,2001.84A4.64,4.64,0,0,0,6,2004.52a6.15,6.15,0,0,0,3.3,1v-3.63h6.28v6.47H10.1a12.15,12.15,0,0,1-3-.38,5.9,5.9,0,0,1-2.67-1.46,7.17,7.17,0,0,1-1.84-2.61,7,7,0,0,1-.59-2.07Z"/><path class="cls-1" d="M37,2029.52a12.77,12.77,0,0,1,3.83,9.51q0,7.73-5.13,11.3a11.1,11.1,0,0,1-5.77,2.12V2046a8.8,8.8,0,0,0,3.36-1.58,7,7,0,0,0-.84-10.57q-2.85-2-8-2c-3.48,0-6.07.7-7.8,2.11a6.6,6.6,0,0,0-2.6,5.35,6,6,0,0,0,2.23,5.07,9.6,9.6,0,0,0,3.59,1.6v6.43a14,14,0,0,1-8.23-4.25,12.36,12.36,0,0,1-3.17-8.76q0-6.6,4.28-10.38t11.8-3.78Q32.57,2025.19,37,2029.52Z"/><path class="cls-1" d="M12.06,2076.19q-3.59-2.91-3.58-8.8t3.58-8.8a13.31,13.31,0,0,1,8.61-2.9,13.4,13.4,0,0,1,8.58,2.9q3.63,2.91,3.63,8.8t-3.63,8.8a13.29,13.29,0,0,1-8.58,2.89A13.19,13.19,0,0,1,12.06,2076.19Zm3.31-4.79a8.59,8.59,0,0,0,5.3,1.41A8.53,8.53,0,0,0,26,2071.4a5.3,5.3,0,0,0,.58-7.48,5.39,5.39,0,0,0-.58-.59,8.55,8.55,0,0,0-5.29-1.42,8.58,8.58,0,0,0-5.3,1.42,5.29,5.29,0,0,0-.61,7.46,4.4,4.4,0,0,0,.61.61Z"/><path class="cls-1" d="M9.26,2089.52v-6h31v6Z"/><path class="cls-1" d="M12.06,2114.4q-3.59-2.88-3.58-8.8t3.58-8.8a13.3,13.3,0,0,1,8.61-2.89,13.41,13.41,0,0,1,8.58,2.89q3.63,2.91,3.63,8.8t-3.63,8.8a13.28,13.28,0,0,1-8.58,2.9A13.2,13.2,0,0,1,12.06,2114.4Zm3.31-4.79a8.59,8.59,0,0,0,5.3,1.41,8.53,8.53,0,0,0,5.33-1.41,5.31,5.31,0,0,0,.6-7.48,4.93,4.93,0,0,0-.6-.61,8.55,8.55,0,0,0-5.29-1.42,8.58,8.58,0,0,0-5.3,1.42,5.29,5.29,0,0,0-.61,7.46,4.4,4.4,0,0,0,.61.61Z"/><path class="cls-1" d="M32.68,2134.29v.52H26.52c0-.38.07-.72.08-1s0-.53,0-.71q0-3.61-2.35-4.86a9.22,9.22,0,0,0-4.05-.72H9.26v-6H32.15v5.71h-4a12.83,12.83,0,0,1,3.12,2.41,6.59,6.59,0,0,1,1.41,4.37A1.31,1.31,0,0,1,32.68,2134.29Z"/><path class="cls-1" d="M23.18,2147.38a9.72,9.72,0,0,0,.52,2.39,1.81,1.81,0,0,0,1.71,1.29,2,2,0,0,0,1.94-1,6.44,6.44,0,0,0,.53-2.91,3.83,3.83,0,0,0-1.05-3,4.36,4.36,0,0,0-2.1-.85v-5.78a8.88,8.88,0,0,1,4.94,1.69c2,1.6,3,4.32,3,8.18a14.67,14.67,0,0,1-1.49,6.71c-1,2-2.86,2.93-5.63,2.93H12.43a3.38,3.38,0,0,0-1.6.36,2.28,2.28,0,0,0-.69.88H9.26v-6.51a7.19,7.19,0,0,1,1.3-.38c.41-.07.87-.12,1.39-.16a11.87,11.87,0,0,1-2.29-2.88A8.71,8.71,0,0,1,8.55,2144a7.6,7.6,0,0,1,1.77-5.16,6.32,6.32,0,0,1,5-2,6.53,6.53,0,0,1,6.11,3.28,15.08,15.08,0,0,1,1.47,5.29ZM20.39,2151a6.61,6.61,0,0,1-.58-1.16,9.74,9.74,0,0,1-.41-1.61l-.25-1.36a9.18,9.18,0,0,0-.82-2.75,2.74,2.74,0,0,0-2.54-1.42,2.68,2.68,0,0,0-2.22.87,3.34,3.34,0,0,0-.68,2.1,6.19,6.19,0,0,0,1.11,3.61c.75,1.1,2.13,1.67,4.13,1.72Z"/><path class="cls-1" d="M31.78,2174.36a7.17,7.17,0,0,1-2.53,2.63H40.17v6.07H9.26v-5.82h3.17a8.31,8.31,0,0,1-3-2.92,8.09,8.09,0,0,1-.92-4.07,8.48,8.48,0,0,1,3.28-6.73,12.49,12.49,0,0,1,8.32-2.74c3.91,0,7,.9,9.22,2.7a8.76,8.76,0,0,1,3.36,7.21A7.32,7.32,0,0,1,31.78,2174.36Zm-16.31,1.47a8.34,8.34,0,0,0,4.9,1.33q4.2,0,6-2.13a4.51,4.51,0,0,0,1.09-3,4.21,4.21,0,0,0-2-3.85,9.22,9.22,0,0,0-4.92-1.23,9.23,9.23,0,0,0-5.08,1.25,4.26,4.26,0,0,0-1.9,3.79A4.4,4.4,0,0,0,15.47,2175.83Z"/><path class="cls-1" d="M12.06,2207.58q-3.59-2.88-3.58-8.8t3.58-8.8a13.3,13.3,0,0,1,8.61-2.89,13.41,13.41,0,0,1,8.58,2.89q3.63,2.91,3.63,8.8t-3.63,8.8a13.28,13.28,0,0,1-8.58,2.9A13.2,13.2,0,0,1,12.06,2207.58Zm3.31-4.79a8.59,8.59,0,0,0,5.3,1.41,8.53,8.53,0,0,0,5.33-1.41,5.3,5.3,0,0,0,.58-7.48,5.39,5.39,0,0,0-.58-.59,8.55,8.55,0,0,0-5.29-1.42,8.58,8.58,0,0,0-5.3,1.42,5.29,5.29,0,0,0-.61,7.46,4.4,4.4,0,0,0,.61.61Z"/><path class="cls-1" d="M40.21,2435.24v9.3H9.26v-6h26l-26-5.87v-6.28l26-5.83h-26v-6h31V2424l-24.34,5.63Z"/><path class="cls-1" d="M12.06,2469.13q-3.59-2.9-3.58-8.8t3.58-8.8a13.25,13.25,0,0,1,8.61-2.9,13.34,13.34,0,0,1,8.58,2.9q3.63,2.89,3.63,8.8t-3.63,8.8a13.35,13.35,0,0,1-8.58,2.89A13.24,13.24,0,0,1,12.06,2469.13Zm3.31-4.79a8.66,8.66,0,0,0,5.3,1.41,8.6,8.6,0,0,0,5.33-1.41,5.31,5.31,0,0,0,0-8.07,8.55,8.55,0,0,0-5.29-1.42,8.58,8.58,0,0,0-5.3,1.42,5.29,5.29,0,0,0-.61,7.46,5,5,0,0,0,.61.61Z"/><path class="cls-1" d="M23.94,2490a5.33,5.33,0,0,0,2.31-.87,3.62,3.62,0,0,0,1.38-3.13,4.13,4.13,0,0,0-3-4.15,12.41,12.41,0,0,0-4.23-.59,11.56,11.56,0,0,0-4,.59,4,4,0,0,0-2.86,4,3.57,3.57,0,0,0,1.13,3,5.6,5.6,0,0,0,2.94,1.07V2496a10,10,0,0,1-5.16-2q-3.93-2.82-3.93-8.34t3.28-8.14a13.19,13.19,0,0,1,8.49-2.6q5.9,0,9.17,2.87a10,10,0,0,1,3.27,8,12,12,0,0,1-1.93,7c-1.29,1.83-3.57,2.92-6.82,3.25Z"/><path class="cls-1" d="M27.67,2497.87h4.27V2501h6.38V2507H31.94v3.72H27.67V2507H15.58a2.68,2.68,0,0,0-1.75.36,4,4,0,0,0-.35,2.18v1.18H9.05l-.11-2.84q-.13-4.23,1.47-5.79a4.4,4.4,0,0,1,3.17-1H27.67Z"/><path class="cls-1" d="M31.68,2529.45a9.26,9.26,0,0,1-3.38,4,11.27,11.27,0,0,1-4.74,1.82,29.94,29.94,0,0,1-4.54.2V2518.8c-2.29.09-3.9.88-4.83,2.39a6.17,6.17,0,0,0-.86,3.3,5.12,5.12,0,0,0,1.05,3.33A5.36,5.36,0,0,0,16,2529v6.11a7.46,7.46,0,0,1-4.14-2.22c-2.22-2-3.34-4.92-3.34-8.61a12.44,12.44,0,0,1,2.82-8.06q2.82-3.5,9.16-3.49c4,0,7,1,9.12,3.15a11,11,0,0,1,3.17,8.18A12.8,12.8,0,0,1,31.68,2529.45Zm-5.17-9a6.25,6.25,0,0,0-3.54-1.59v10.31a5,5,0,0,0,3.62-1.6,5.24,5.24,0,0,0,1.23-3.55,4.78,4.78,0,0,0-1.31-3.52Z"/><path class="cls-1" d="M27.27,2537.15h4.88v18.1h-5l-13-11.23v11.63H9.26v-19.29h4.66l13.35,11.34Z"/><path class="cls-1" d="M32.15,2565.92H18.35a7.2,7.2,0,0,0-2.94.46,3.17,3.17,0,0,0-1.74,3.19,4.16,4.16,0,0,0,2.48,4.18,9.09,9.09,0,0,0,3.54.59H32.15v6.07H9.26v-5.82h3.23q-.11-.09-.63-.42a4.33,4.33,0,0,1-.92-.79,8.16,8.16,0,0,1-1.72-2.72,9.09,9.09,0,0,1-.46-3.06c0-3.38,1.21-5.66,3.65-6.83a14,14,0,0,1,5.94-1h13.8Z"/><path class="cls-1" d="M32.06,2614.78a6.48,6.48,0,0,1-2.06,2.66,6.41,6.41,0,0,1-2.94,1.3,21.24,21.24,0,0,1-3.38.21H9.26v-6.13H23.83a4.76,4.76,0,0,0,2.14-.42,3,3,0,0,0,1.6-2.94,3.44,3.44,0,0,0-2.06-3.42,6.52,6.52,0,0,0-2.62-.48H9.26v-6H22.89a7.64,7.64,0,0,0,3-.42,2.93,2.93,0,0,0,1.65-3c0-1.71-.55-2.85-1.65-3.44a6.49,6.49,0,0,0-2.82-.49H9.26v-6.06H32.1V2592H28.76a9.73,9.73,0,0,1,2.55,2.1,8.31,8.31,0,0,1,.18,8.76,6.75,6.75,0,0,1-2.75,2,7.66,7.66,0,0,1,3,2.92,8.93,8.93,0,0,1,.95,4.12A8,8,0,0,1,32.06,2614.78Z"/><path class="cls-1" d="M23.18,2633.52a9.72,9.72,0,0,0,.52,2.39,1.82,1.82,0,0,0,1.71,1.29,2,2,0,0,0,1.94-1,6.42,6.42,0,0,0,.53-2.9,3.82,3.82,0,0,0-1.05-3,4.36,4.36,0,0,0-2.1-.85v-5.77a8.79,8.79,0,0,1,4.94,1.68q3,2.38,3,8.19a14.65,14.65,0,0,1-1.49,6.7c-1,2-2.87,2.93-5.63,2.93H12.43a3.44,3.44,0,0,0-1.6.36,2.21,2.21,0,0,0-.69.88H9.26v-6.51a6.63,6.63,0,0,1,1.3-.37c.41-.07.87-.13,1.39-.17a12.47,12.47,0,0,1-2.29-2.87,8.78,8.78,0,0,1-1.11-4.4,7.58,7.58,0,0,1,1.77-5.16,6.32,6.32,0,0,1,5-2,6.51,6.51,0,0,1,6.11,3.28,15,15,0,0,1,1.47,5.29Zm-2.79,3.66a6.61,6.61,0,0,1-.58-1.16,9.74,9.74,0,0,1-.41-1.61l-.25-1.36a9.18,9.18,0,0,0-.82-2.75,2.72,2.72,0,0,0-2.54-1.41,2.66,2.66,0,0,0-2.22.86,3.3,3.3,0,0,0-.68,2.1,6.24,6.24,0,0,0,1.14,3.61c.75,1.1,2.13,1.68,4.13,1.72Z"/><path class="cls-1" d="M37,2663.76a12.74,12.74,0,0,1,3.83,9.51q0,7.72-5.13,11.3a11.18,11.18,0,0,1-5.77,2.12v-6.47a9,9,0,0,0,3.36-1.58,6.37,6.37,0,0,0,2-5.12,6.28,6.28,0,0,0-2.84-5.45q-2.85-2-8-2c-3.48,0-6.07.7-7.8,2.11a6.59,6.59,0,0,0-2.6,5.35,6.11,6.11,0,0,0,2.23,5.07,9.76,9.76,0,0,0,3.59,1.6v6.43a14,14,0,0,1-8.23-4.25,12.39,12.39,0,0,1-3.17-8.76q0-6.6,4.28-10.38t11.8-3.78Q32.57,2659.46,37,2663.76Z"/><path class="cls-1" d="M12.06,2710.46q-3.59-2.91-3.58-8.8t3.58-8.8a13.25,13.25,0,0,1,8.61-2.9,13.34,13.34,0,0,1,8.58,2.9q3.63,2.89,3.63,8.8t-3.63,8.8a13.35,13.35,0,0,1-8.58,2.89A13.24,13.24,0,0,1,12.06,2710.46Zm3.31-4.79a8.66,8.66,0,0,0,5.3,1.41,8.61,8.61,0,0,0,5.29-1.41,5.31,5.31,0,0,0,0-8.07,8.55,8.55,0,0,0-5.29-1.42,8.58,8.58,0,0,0-5.3,1.42,5.29,5.29,0,0,0-.61,7.46A5,5,0,0,0,15.37,2705.67Z"/><path class="cls-1" d="M32.15,2723.6H18.35a7.2,7.2,0,0,0-2.94.46,3.18,3.18,0,0,0-1.74,3.2,4.15,4.15,0,0,0,2.48,4.17,9.09,9.09,0,0,0,3.54.59H32.15v6.07H9.26v-5.82h3.23l-.63-.42a4.33,4.33,0,0,1-.92-.79,8.16,8.16,0,0,1-1.72-2.72,9.09,9.09,0,0,1-.46-3.06c0-3.38,1.21-5.66,3.65-6.83a14,14,0,0,1,5.94-1h13.8Z"/><path class="cls-1" d="M30.83,2762.36c-1.24,1.5-3.29,2.24-6.16,2.24H9.26v-6.13H23.18A6.47,6.47,0,0,0,26,2758a3.35,3.35,0,0,0,1.76-3.33,4.13,4.13,0,0,0-2.58-4.15,9,9,0,0,0-3.48-.58H9.26v-6H32.1v5.8H28.76a10.38,10.38,0,0,1,2.55,2.17,7.55,7.55,0,0,1,1.38,4.67A8.76,8.76,0,0,1,30.83,2762.36Z"/><path class="cls-1" d="M27.67,2767.82h4.27V2771h6.38V2777H31.94v3.72H27.67V2777H15.58a2.68,2.68,0,0,0-1.75.36,3.9,3.9,0,0,0-.35,2.18v1.18H9.05l-.11-2.84q-.13-4.24,1.47-5.79a4.34,4.34,0,0,1,3.17-1H27.67Z"/><path class="cls-1" d="M4.87,2785.39v.76a9.44,9.44,0,0,0,.06,1.68,2.94,2.94,0,0,0,.49,1.34,3.24,3.24,0,0,0,1.49,1,3.7,3.7,0,0,0,1.38.39l23.9-8.41v6.65l-16.89,5,16.89,4.72v6.36L9.64,2797q-6.51-2.28-8.08-3.6T0,2788.12v-1.28a13,13,0,0,1,.07-1.45Z"/><path class="cls-1" d="M4.28,2804.92A4.73,4.73,0,0,0,6,2807.57a6.15,6.15,0,0,0,3.3,1v-3.63h6.28v6.47H10.1a12.65,12.65,0,0,1-3-.38,6,6,0,0,1-2.69-1.41A7.3,7.3,0,0,1,2.59,2807,7.08,7.08,0,0,1,2,2805Z"/><path class="cls-1" d="M37,2832.57a12.73,12.73,0,0,1,3.8,9.47q0,7.73-5.13,11.3a11.18,11.18,0,0,1-5.77,2.12V2849a9,9,0,0,0,3.36-1.58,6.37,6.37,0,0,0,2-5.12,6.28,6.28,0,0,0-2.84-5.45q-2.85-2-8-2c-3.48,0-6.07.7-7.8,2.11a6.59,6.59,0,0,0-2.6,5.35,6,6,0,0,0,2.23,5.07,9.76,9.76,0,0,0,3.59,1.6v6.43a14,14,0,0,1-8.23-4.25,12.39,12.39,0,0,1-3.17-8.76q0-6.6,4.28-10.38t11.8-3.78Q32.58,2828.27,37,2832.57Z"/><path class="cls-1" d="M12.06,2879.27q-3.59-2.91-3.58-8.8t3.58-8.8a13.25,13.25,0,0,1,8.61-2.9,13.34,13.34,0,0,1,8.58,2.9q3.63,2.89,3.63,8.8t-3.63,8.8a13.35,13.35,0,0,1-8.58,2.89A13.24,13.24,0,0,1,12.06,2879.27Zm3.31-4.79a8.66,8.66,0,0,0,5.3,1.41,8.61,8.61,0,0,0,5.29-1.41,5.31,5.31,0,0,0,0-8.07,8.55,8.55,0,0,0-5.29-1.42,8.58,8.58,0,0,0-5.3,1.42,5.29,5.29,0,0,0-.61,7.46A5,5,0,0,0,15.37,2874.48Z"/><path class="cls-1" d="M9.26,2892.56v-6h31v6Z"/><path class="cls-1" d="M12.06,2917.48q-3.59-2.89-3.58-8.8t3.58-8.8a13.24,13.24,0,0,1,8.61-2.89,13.35,13.35,0,0,1,8.58,2.89q3.63,2.91,3.63,8.8t-3.63,8.8a13.34,13.34,0,0,1-8.58,2.9A13.25,13.25,0,0,1,12.06,2917.48Zm3.31-4.79a8.66,8.66,0,0,0,5.3,1.41,8.61,8.61,0,0,0,5.29-1.41,5.31,5.31,0,0,0,0-8.07,8.55,8.55,0,0,0-5.29-1.42,8.58,8.58,0,0,0-5.3,1.42,5.29,5.29,0,0,0-.61,7.46A5,5,0,0,0,15.37,2912.69Z"/><path class="cls-1" d="M32.68,2937.37v.52H26.52c0-.38.07-.72.08-1s0-.53,0-.71q0-3.61-2.35-4.86a9.16,9.16,0,0,0-4.07-.69H9.26v-6H32.15v5.71h-4a12.83,12.83,0,0,1,3.12,2.41,6.58,6.58,0,0,1,1.41,4.37Z"/><path class="cls-1" d="M23.18,2950.46a9.72,9.72,0,0,0,.52,2.39,1.82,1.82,0,0,0,1.71,1.29,2,2,0,0,0,1.94-1,6.47,6.47,0,0,0,.53-2.91,3.82,3.82,0,0,0-1.05-3,4.26,4.26,0,0,0-2.1-.85v-5.78a8.8,8.8,0,0,1,4.94,1.69c2,1.59,3,4.31,3,8.18a14.72,14.72,0,0,1-1.49,6.71c-1,2-2.86,2.92-5.63,2.93H12.43a3.27,3.27,0,0,0-1.6.36,2.21,2.21,0,0,0-.69.88H9.26v-6.51a6.47,6.47,0,0,1,1.3-.38c.41-.07.87-.12,1.39-.16a12.52,12.52,0,0,1-2.29-2.88A8.73,8.73,0,0,1,8.55,2947a7.58,7.58,0,0,1,1.77-5.16,6.32,6.32,0,0,1,5-2,6.51,6.51,0,0,1,6.11,3.28,15,15,0,0,1,1.47,5.29Zm-2.79,3.66a7.39,7.39,0,0,1-.58-1.16,9.74,9.74,0,0,1-.41-1.61l-.25-1.36a9.18,9.18,0,0,0-.82-2.75,2.72,2.72,0,0,0-2.54-1.42,2.66,2.66,0,0,0-2.22.87,3.3,3.3,0,0,0-.68,2.1A6.24,6.24,0,0,0,14,2952.4c.75,1.1,2.13,1.67,4.13,1.72Z"/><path class="cls-1" d="M31.78,2977.44a7.25,7.25,0,0,1-2.53,2.63H40.17v6.07H9.26v-5.82h3.17a8.39,8.39,0,0,1-3-2.92,8.11,8.11,0,0,1-.92-4.07,8.5,8.5,0,0,1,3.24-6.75,12.43,12.43,0,0,1,8.32-2.74c3.91,0,7,.9,9.22,2.7a8.76,8.76,0,0,1,3.36,7.21A7.31,7.31,0,0,1,31.78,2977.44Zm-16.31,1.47a8.42,8.42,0,0,0,4.9,1.33q4.2,0,6-2.13a4.51,4.51,0,0,0,1.09-3,4.19,4.19,0,0,0-2-3.85,9.22,9.22,0,0,0-4.92-1.23,9.15,9.15,0,0,0-5.08,1.25,4.25,4.25,0,0,0-1.9,3.79A4.41,4.41,0,0,0,15.47,2978.91Z"/><path class="cls-1" d="M12.06,3010.66q-3.59-2.89-3.58-8.8t3.58-8.8a13.24,13.24,0,0,1,8.61-2.89,13.35,13.35,0,0,1,8.58,2.89q3.63,2.91,3.63,8.8t-3.63,8.8a13.34,13.34,0,0,1-8.58,2.9A13.25,13.25,0,0,1,12.06,3010.66Zm3.31-4.79a8.66,8.66,0,0,0,5.3,1.41,8.61,8.61,0,0,0,5.29-1.41,5.31,5.31,0,0,0,0-8.07,8.55,8.55,0,0,0-5.29-1.42,8.58,8.58,0,0,0-5.3,1.42,5.29,5.29,0,0,0-.61,7.46A5,5,0,0,0,15.37,3005.87Z"/><path class="cls-1" d="M40.21,3243.69v9.3H9.26v-6h26l-26-5.87v-6.26l26-5.81h-26v-6h31v9.41l-24.39,5.59Z"/><path class="cls-1" d="M12.06,3277.58q-3.59-2.89-3.58-8.8t3.58-8.8a13.24,13.24,0,0,1,8.61-2.93,13.34,13.34,0,0,1,8.58,2.9q3.63,2.9,3.63,8.8t-3.63,8.8a13.35,13.35,0,0,1-8.58,2.89A13.22,13.22,0,0,1,12.06,3277.58Zm3.31-4.79a8.66,8.66,0,0,0,5.3,1.41,8.6,8.6,0,0,0,5.33-1.41,5.23,5.23,0,0,0,0-8,8.55,8.55,0,0,0-5.29-1.42,8.58,8.58,0,0,0-5.3,1.42,5.25,5.25,0,0,0,0,8Z"/><path class="cls-1" d="M23.94,3298.45a5.46,5.46,0,0,0,2.31-.87,3.62,3.62,0,0,0,1.38-3.13,4.13,4.13,0,0,0-3-4.15,12.41,12.41,0,0,0-4.23-.59,11.56,11.56,0,0,0-4,.59,4,4,0,0,0-2.86,4,3.57,3.57,0,0,0,1.13,3,5.6,5.6,0,0,0,2.94,1.07v6.11a10,10,0,0,1-5.16-2q-3.93-2.82-3.93-8.34t3.24-8.09a13.19,13.19,0,0,1,8.49-2.6q5.9,0,9.17,2.87a10,10,0,0,1,3.27,8,12,12,0,0,1-1.93,7c-1.29,1.82-3.57,2.91-6.82,3.26Z"/><path class="cls-1" d="M27.67,3306.32h4.27v3.19h6.38v5.92H31.94v3.72H27.67v-3.72H15.58a2.68,2.68,0,0,0-1.75.36,4,4,0,0,0-.35,2.18v1.18H9.05l-.11-2.84q-.13-4.26,1.47-5.79a4.35,4.35,0,0,1,3.17-1H27.67Z"/><path class="cls-1" d="M31.68,3337.9a9.26,9.26,0,0,1-3.38,4,11.27,11.27,0,0,1-4.74,1.82,29.94,29.94,0,0,1-4.54.2v-16.71q-3.43.14-4.83,2.39a6.17,6.17,0,0,0-.86,3.3,5.12,5.12,0,0,0,1.05,3.33,5.16,5.16,0,0,0,1.62,1.23v6.11a7.46,7.46,0,0,1-4.14-2.22c-2.22-2-3.34-4.92-3.34-8.61a12.44,12.44,0,0,1,2.82-8.06q2.82-3.49,9.16-3.49c4,0,7,1,9.12,3.15a11,11,0,0,1,3.17,8.18A12.94,12.94,0,0,1,31.68,3337.9Zm-5.17-9a6.23,6.23,0,0,0-3.51-1.59v10.31a5,5,0,0,0,3.62-1.6,5.24,5.24,0,0,0,1.23-3.55A4.77,4.77,0,0,0,26.51,3329Z"/><path class="cls-1" d="M27.27,3345.6h4.88v18.1h-5l-13-11.23v11.63H9.26v-19.29h4.66l13.35,11.34Z"/><path class="cls-1" d="M32.15,3374.37H18.35a7.2,7.2,0,0,0-2.94.46,3.18,3.18,0,0,0-1.74,3.22,4.16,4.16,0,0,0,2.48,4.18,9.09,9.09,0,0,0,3.54.59H32.15v6.07H9.26v-5.84h3.23q-.11-.09-.63-.42a4.33,4.33,0,0,1-.92-.79,8.16,8.16,0,0,1-1.72-2.72,9.15,9.15,0,0,1-.46-3.07c0-3.38,1.21-5.66,3.65-6.83a14,14,0,0,1,5.94-1h13.8Z"/><path class="cls-1" d="M32.06,3423.23a6.76,6.76,0,0,1-5,4,22.47,22.47,0,0,1-3.38.2H9.26v-6.13H23.83a4.76,4.76,0,0,0,2.14-.42,3,3,0,0,0,1.6-2.94,3.44,3.44,0,0,0-2.06-3.42,6.52,6.52,0,0,0-2.62-.48H9.26v-6H22.89a7.64,7.64,0,0,0,3-.42,2.93,2.93,0,0,0,1.65-3c0-1.71-.55-2.85-1.65-3.44a6.49,6.49,0,0,0-2.82-.49H9.26v-6.06H32.1v5.81H28.76a9.73,9.73,0,0,1,2.55,2.1,8.29,8.29,0,0,1,.18,8.75,6.75,6.75,0,0,1-2.75,2,7.59,7.59,0,0,1,3,2.92,8.93,8.93,0,0,1,.95,4.12A8,8,0,0,1,32.06,3423.23Z"/><path class="cls-1" d="M23.18,3442a9.82,9.82,0,0,0,.52,2.39,1.82,1.82,0,0,0,1.71,1.29,2,2,0,0,0,1.94-1,6.42,6.42,0,0,0,.53-2.9,3.82,3.82,0,0,0-1.05-3.05,4.26,4.26,0,0,0-2.1-.85v-5.8a8.79,8.79,0,0,1,4.94,1.68q3,2.39,3,8.19a14.65,14.65,0,0,1-1.49,6.7c-1,2-2.87,2.93-5.63,2.93H12.43a3.44,3.44,0,0,0-1.6.36,2.21,2.21,0,0,0-.69.88H9.26v-6.51a6.63,6.63,0,0,1,1.3-.37c.41-.07.87-.13,1.39-.17a12.69,12.69,0,0,1-2.29-2.87,8.78,8.78,0,0,1-1.11-4.4,7.58,7.58,0,0,1,1.77-5.16,6.32,6.32,0,0,1,5-2,6.53,6.53,0,0,1,6.11,3.28,15,15,0,0,1,1.47,5.29Zm-2.79,3.66a6.61,6.61,0,0,1-.58-1.16,10,10,0,0,1-.41-1.61l-.25-1.36a9.1,9.1,0,0,0-.82-2.75,2.72,2.72,0,0,0-2.54-1.41,2.66,2.66,0,0,0-2.22.86,3.3,3.3,0,0,0-.68,2.1,6.21,6.21,0,0,0,1.11,3.61c.75,1.1,2.13,1.68,4.13,1.72Z"/><path class="cls-1" d="M37,3472.21a12.74,12.74,0,0,1,3.83,9.51q0,7.72-5.13,11.3a11.18,11.18,0,0,1-5.77,2.12v-6.47a8.83,8.83,0,0,0,3.33-1.62,6.37,6.37,0,0,0,2-5.12,6.28,6.28,0,0,0-2.84-5.45q-2.85-2-8-2c-3.48,0-6.07.7-7.8,2.11a6.59,6.59,0,0,0-2.6,5.35,6.07,6.07,0,0,0,2.19,5.11,9.76,9.76,0,0,0,3.59,1.6v6.4a14,14,0,0,1-8.23-4.25,12.4,12.4,0,0,1-3.17-8.75q0-6.6,4.28-10.38t11.8-3.78Q32.58,3467.91,37,3472.21Z"/><path class="cls-1" d="M12.06,3518.91q-3.59-2.91-3.58-8.8t3.58-8.8a13.25,13.25,0,0,1,8.61-2.9,13.34,13.34,0,0,1,8.58,2.9q3.63,2.89,3.63,8.8t-3.63,8.8a13.35,13.35,0,0,1-8.58,2.89A13.24,13.24,0,0,1,12.06,3518.91Zm3.31-4.79a8.66,8.66,0,0,0,5.3,1.41,8.6,8.6,0,0,0,5.33-1.41,5.31,5.31,0,0,0,0-8.07,8.55,8.55,0,0,0-5.29-1.42,8.58,8.58,0,0,0-5.3,1.42,5.28,5.28,0,0,0-.61,7.45,4.47,4.47,0,0,0,.61.62Z"/><path class="cls-1" d="M32.15,3532.05H18.35a7.2,7.2,0,0,0-2.94.46,3.18,3.18,0,0,0-1.74,3.2,4.16,4.16,0,0,0,2.48,4.17,9.09,9.09,0,0,0,3.54.59H32.15v6.07H9.26v-5.82h3.23l-.63-.42a4.33,4.33,0,0,1-.92-.79,8.12,8.12,0,0,1-1.72-2.71,9.15,9.15,0,0,1-.46-3.07c0-3.38,1.21-5.66,3.65-6.83a14,14,0,0,1,5.94-1h13.8Z"/><path class="cls-1" d="M30.83,3570.81c-1.24,1.5-3.29,2.24-6.16,2.24H9.26v-6.13H23.18a6.41,6.41,0,0,0,2.77-.48,3.36,3.36,0,0,0,1.76-3.33,4.13,4.13,0,0,0-2.58-4.15,9,9,0,0,0-3.48-.58H9.26v-6H32.1v5.8H28.76a10.38,10.38,0,0,1,2.55,2.17,7.57,7.57,0,0,1,1.38,4.7A8.81,8.81,0,0,1,30.83,3570.81Z"/><path class="cls-1" d="M27.67,3576.27h4.27v3.19h6.38v5.92H31.94v3.72H27.67v-3.72H15.58a2.68,2.68,0,0,0-1.75.36,3.9,3.9,0,0,0-.35,2.18v1.18H9.05l-.11-2.84q-.13-4.25,1.47-5.79a4.34,4.34,0,0,1,3.17-1H27.67Z"/><path class="cls-1" d="M4.87,3593.84v.76a9.44,9.44,0,0,0,.06,1.68,2.94,2.94,0,0,0,.49,1.34,3.16,3.16,0,0,0,1.49,1,3.7,3.7,0,0,0,1.38.39l23.9-8.41v6.65l-16.89,5L32.19,3607v6.36l-22.55-7.86q-6.51-2.28-8.08-3.6T0,3596.57v-1.28a13,13,0,0,1,.07-1.45Z"/><path class="cls-1" d="M4.28,3613.37A4.7,4.7,0,0,0,6,3616.05a6.15,6.15,0,0,0,3.3,1v-3.63h6.28v6.47H10.1a13.19,13.19,0,0,1-3-.38,6,6,0,0,1-2.67-1.46,7.34,7.34,0,0,1-1.84-2.61,7.11,7.11,0,0,1-.59-2.07Z"/><path class="cls-1" d="M37,3641.05a12.74,12.74,0,0,1,3.83,9.51q0,7.72-5.13,11.3a11.18,11.18,0,0,1-5.77,2.12v-6.47a9,9,0,0,0,3.36-1.58,6.37,6.37,0,0,0,2-5.12,6.28,6.28,0,0,0-2.84-5.45q-2.85-2-8-2c-3.48,0-6.07.7-7.8,2.11a6.59,6.59,0,0,0-2.6,5.35,6,6,0,0,0,2.23,5.07,9.76,9.76,0,0,0,3.59,1.6v6.43a14,14,0,0,1-8.23-4.25,12.39,12.39,0,0,1-3.17-8.76q0-6.6,4.28-10.38t11.8-3.78Q32.57,3636.72,37,3641.05Z"/><path class="cls-1" d="M12.06,3687.72q-3.59-2.91-3.58-8.8t3.58-8.8a13.25,13.25,0,0,1,8.61-2.9,13.34,13.34,0,0,1,8.58,2.9q3.63,2.9,3.63,8.8t-3.63,8.8a13.35,13.35,0,0,1-8.58,2.89A13.24,13.24,0,0,1,12.06,3687.72Zm3.31-4.79a8.66,8.66,0,0,0,5.3,1.41,8.6,8.6,0,0,0,5.33-1.41,5.31,5.31,0,0,0,0-8.07,8.55,8.55,0,0,0-5.29-1.42,8.58,8.58,0,0,0-5.3,1.42,5.28,5.28,0,0,0-.61,7.45,4.47,4.47,0,0,0,.61.62Z"/><path class="cls-1" d="M9.26,3701.05v-6h31v6Z"/><path class="cls-1" d="M12.06,3725.93q-3.59-2.89-3.58-8.8t3.58-8.8a13.24,13.24,0,0,1,8.61-2.89,13.29,13.29,0,0,1,8.58,2.89q3.63,2.91,3.63,8.8t-3.63,8.8a13.34,13.34,0,0,1-8.58,2.9A13.25,13.25,0,0,1,12.06,3725.93Zm3.31-4.79a8.66,8.66,0,0,0,5.3,1.41,8.6,8.6,0,0,0,5.33-1.41,5.32,5.32,0,0,0,.6-7.49,4.86,4.86,0,0,0-.6-.6,8.55,8.55,0,0,0-5.29-1.42,8.58,8.58,0,0,0-5.3,1.42,5.28,5.28,0,0,0-.61,7.45,4.47,4.47,0,0,0,.61.62Z"/><path class="cls-1" d="M32.68,3745.82v.52H26.52c0-.38.07-.72.08-1s0-.53,0-.71q0-3.62-2.35-4.86a9.22,9.22,0,0,0-4.05-.72H9.26v-6H32.15v5.71h-4a12.83,12.83,0,0,1,3.12,2.41,6.58,6.58,0,0,1,1.41,4.37A1.31,1.31,0,0,1,32.68,3745.82Z"/><path class="cls-1" d="M23.18,3758.91a9.82,9.82,0,0,0,.52,2.39,1.82,1.82,0,0,0,1.71,1.29,2,2,0,0,0,1.94-1,6.47,6.47,0,0,0,.53-2.91,3.82,3.82,0,0,0-1.05-3,4.26,4.26,0,0,0-2.1-.85v-5.78a8.8,8.8,0,0,1,4.94,1.69q3,2.39,3,8.18a14.72,14.72,0,0,1-1.49,6.71c-1,1.95-2.86,2.93-5.63,2.93H12.43a3.27,3.27,0,0,0-1.6.36,2.21,2.21,0,0,0-.69.88H9.26v-6.51a6.47,6.47,0,0,1,1.3-.38c.41-.07.87-.12,1.39-.16a12.26,12.26,0,0,1-2.29-2.88,8.77,8.77,0,0,1-1.11-4.39,7.58,7.58,0,0,1,1.77-5.16,6.32,6.32,0,0,1,5-2,6.51,6.51,0,0,1,6.11,3.28,15,15,0,0,1,1.47,5.29Zm-2.79,3.66a7.39,7.39,0,0,1-.58-1.16,10,10,0,0,1-.41-1.61l-.25-1.36a9.1,9.1,0,0,0-.82-2.75,2.72,2.72,0,0,0-2.54-1.42,2.63,2.63,0,0,0-2.22.87,3.3,3.3,0,0,0-.68,2.1,6.21,6.21,0,0,0,1.11,3.61c.75,1.1,2.13,1.67,4.13,1.72Z"/><path class="cls-1" d="M31.78,3785.89a7.25,7.25,0,0,1-2.53,2.63H40.17v6.07H9.26v-5.82h3.17a8.39,8.39,0,0,1-3-2.92,8.11,8.11,0,0,1-.92-4.07,8.47,8.47,0,0,1,3.28-6.73,12.43,12.43,0,0,1,8.32-2.74c3.91,0,7,.9,9.22,2.7a8.76,8.76,0,0,1,3.36,7.21A7.35,7.35,0,0,1,31.78,3785.89Zm-16.31,1.47a8.42,8.42,0,0,0,4.9,1.33q4.2,0,6-2.13a4.53,4.53,0,0,0,1.09-3,4.19,4.19,0,0,0-2-3.85,9.22,9.22,0,0,0-4.92-1.23,9.15,9.15,0,0,0-5.08,1.25,4.25,4.25,0,0,0-1.9,3.79A4.41,4.41,0,0,0,15.47,3787.36Z"/><path class="cls-1" d="M12.06,3819.11q-3.59-2.9-3.58-8.8t3.58-8.8a13.24,13.24,0,0,1,8.61-2.89,13.29,13.29,0,0,1,8.58,2.89q3.63,2.91,3.63,8.8t-3.63,8.8a13.34,13.34,0,0,1-8.58,2.9A13.25,13.25,0,0,1,12.06,3819.11Zm3.31-4.79a8.66,8.66,0,0,0,5.3,1.41,8.6,8.6,0,0,0,5.33-1.41,5.31,5.31,0,0,0,0-8.07,8.55,8.55,0,0,0-5.29-1.42,8.58,8.58,0,0,0-5.3,1.42,5.28,5.28,0,0,0-.61,7.45,4.47,4.47,0,0,0,.61.62Z"/><path class="cls-1" d="M40.21,4046.76v9.3H9.26v-6h26l-26-5.87v-6.28l26-5.83h-26v-6h31v9.48l-24.34,5.63Z"/><path class="cls-1" d="M12.06,4080.65q-3.59-2.88-3.58-8.8t3.58-8.8a13.25,13.25,0,0,1,8.61-2.9,13.4,13.4,0,0,1,8.58,2.9q3.63,2.91,3.63,8.8t-3.63,8.8a13.29,13.29,0,0,1-8.58,2.89A13.19,13.19,0,0,1,12.06,4080.65Zm3.31-4.79a8.59,8.59,0,0,0,5.3,1.41,8.53,8.53,0,0,0,5.33-1.41,5.3,5.3,0,0,0,.58-7.48,5.39,5.39,0,0,0-.58-.59,8.55,8.55,0,0,0-5.29-1.42,8.58,8.58,0,0,0-5.3,1.42,5.29,5.29,0,0,0-.61,7.46,4.4,4.4,0,0,0,.61.61Z"/><path class="cls-1" d="M23.94,4101.56a5.21,5.21,0,0,0,2.31-.87,3.61,3.61,0,0,0,1.38-3.13,4.14,4.14,0,0,0-3-4.15,12.92,12.92,0,0,0-4.23-.59,11.56,11.56,0,0,0-4,.59,4,4,0,0,0-2.86,4,3.55,3.55,0,0,0,1.13,3,5.6,5.6,0,0,0,2.94,1.07v6.08a9.86,9.86,0,0,1-5.16-2q-3.93-2.82-3.93-8.34t3.28-8.14a13.19,13.19,0,0,1,8.49-2.6q5.9,0,9.17,2.87a10,10,0,0,1,3.27,8,12,12,0,0,1-1.93,7c-1.29,1.84-3.57,2.92-6.82,3.25Z"/><path class="cls-1" d="M27.67,4109.39h4.27v3.17h6.38v5.92H31.94v3.72H27.67v-3.72H15.58a2.75,2.75,0,0,0-1.75.36,4,4,0,0,0-.35,2.18v1.18H9.05l-.11-2.84q-.13-4.23,1.47-5.79a4.44,4.44,0,0,1,3.17-1H27.67Z"/><path class="cls-1" d="M31.68,4141a9.26,9.26,0,0,1-3.38,4,11.14,11.14,0,0,1-4.74,1.82,27.56,27.56,0,0,1-4.54.2v-16.67q-3.43.14-4.83,2.39a6.17,6.17,0,0,0-.86,3.3,5.12,5.12,0,0,0,1.05,3.33,5.2,5.2,0,0,0,1.62,1.22v6.11a7.4,7.4,0,0,1-4.14-2.22c-2.22-2-3.34-4.92-3.34-8.61a12.46,12.46,0,0,1,2.82-8.06q2.82-3.49,9.16-3.49c4,0,7,1,9.12,3.15a11,11,0,0,1,3.17,8.18A12.77,12.77,0,0,1,31.68,4141Zm-5.17-9a6.32,6.32,0,0,0-3.54-1.59v10.31a5,5,0,0,0,3.62-1.6,5.22,5.22,0,0,0,1.23-3.55,4.79,4.79,0,0,0-1.31-3.52Z"/><path class="cls-1" d="M27.27,4148.67h4.88v18.1h-5l-13-11.23v11.63H9.26v-19.29h4.66l13.35,11.34Z"/><path class="cls-1" d="M32.15,4177.44H18.35a7.37,7.37,0,0,0-2.94.46,3.18,3.18,0,0,0-1.74,3.19,4.14,4.14,0,0,0,2.48,4.18,8.74,8.74,0,0,0,3.54.59H32.15v6.07H9.26v-5.82h3.23q-.11-.09-.63-.42a4.06,4.06,0,0,1-.92-.79,8.06,8.06,0,0,1-1.72-2.72,9.06,9.06,0,0,1-.46-3.06c0-3.38,1.21-5.66,3.65-6.83a14.33,14.33,0,0,1,5.94-1h13.8Z"/><path class="cls-1" d="M32.06,4226.3A6.48,6.48,0,0,1,30,4229a6.31,6.31,0,0,1-2.94,1.3,19.13,19.13,0,0,1-3.38.21H9.26v-6.13H23.83a4.63,4.63,0,0,0,2.14-.42,3,3,0,0,0,1.6-2.94,3.44,3.44,0,0,0-2.06-3.42,6.52,6.52,0,0,0-2.62-.48H9.26v-6H22.89a7.64,7.64,0,0,0,3-.42,2.93,2.93,0,0,0,1.65-3c0-1.71-.55-2.85-1.65-3.44a6.49,6.49,0,0,0-2.82-.49H9.26v-6.06H32.1v5.81H28.76a9.73,9.73,0,0,1,2.55,2.1,7.25,7.25,0,0,1,1.34,4.52,7.14,7.14,0,0,1-1.16,4.24,6.58,6.58,0,0,1-2.75,2,7.72,7.72,0,0,1,3,2.92,8.93,8.93,0,0,1,.95,4.12A7.89,7.89,0,0,1,32.06,4226.3Z"/><path class="cls-1" d="M23.18,4245a9.72,9.72,0,0,0,.52,2.39,1.81,1.81,0,0,0,1.71,1.29,2,2,0,0,0,1.94-1,6.4,6.4,0,0,0,.53-2.9,3.83,3.83,0,0,0-1.05-3,4.46,4.46,0,0,0-2.1-.85v-5.77a8.87,8.87,0,0,1,4.94,1.68q3,2.39,3,8.19a14.65,14.65,0,0,1-1.49,6.7c-1,2-2.87,2.93-5.63,2.93H12.43a3.57,3.57,0,0,0-1.6.36,2.28,2.28,0,0,0-.69.88H9.26v-6.51a7.4,7.4,0,0,1,1.3-.37c.41-.07.87-.13,1.39-.17A12.26,12.26,0,0,1,9.66,4246a8.78,8.78,0,0,1-1.11-4.4,7.58,7.58,0,0,1,1.77-5.16,6.32,6.32,0,0,1,5-2,6.53,6.53,0,0,1,6.11,3.28A15,15,0,0,1,22.9,4243Zm-2.79,3.66a6,6,0,0,1-.58-1.16,9.74,9.74,0,0,1-.41-1.61l-.25-1.36a9.18,9.18,0,0,0-.82-2.75,2.76,2.76,0,0,0-2.54-1.41,2.66,2.66,0,0,0-2.22.86,3.34,3.34,0,0,0-.68,2.1A6.19,6.19,0,0,0,14,4247c.75,1.1,2.13,1.68,4.13,1.72Z"/><path class="cls-1" d="M37,4275.28a12.77,12.77,0,0,1,3.83,9.51q0,7.74-5.13,11.3a11.1,11.1,0,0,1-5.77,2.12v-6.47a8.8,8.8,0,0,0,3.36-1.58,7,7,0,0,0-.84-10.57q-2.85-2-8-2c-3.48,0-6.07.7-7.8,2.11a6.6,6.6,0,0,0-2.6,5.35,6.1,6.1,0,0,0,2.23,5.07,9.6,9.6,0,0,0,3.59,1.6v6.43a14,14,0,0,1-8.23-4.25,12.36,12.36,0,0,1-3.17-8.76q0-6.6,4.28-10.38t11.8-3.78Q32.57,4271,37,4275.28Z"/><path class="cls-1" d="M12.06,4322q-3.59-2.91-3.58-8.8t3.58-8.8a13.25,13.25,0,0,1,8.61-2.9,13.4,13.4,0,0,1,8.58,2.9q3.63,2.91,3.63,8.8t-3.63,8.8a13.29,13.29,0,0,1-8.58,2.89A13.19,13.19,0,0,1,12.06,4322Zm3.31-4.79a8.59,8.59,0,0,0,5.3,1.41,8.55,8.55,0,0,0,5.29-1.41,5.3,5.3,0,0,0,.58-7.48,5.39,5.39,0,0,0-.58-.59,8.55,8.55,0,0,0-5.29-1.42,8.58,8.58,0,0,0-5.3,1.42,5.29,5.29,0,0,0-.61,7.46A4.4,4.4,0,0,0,15.37,4317.19Z"/><path class="cls-1" d="M32.15,4335.12H18.35a7.37,7.37,0,0,0-2.94.46,3.19,3.19,0,0,0-1.74,3.2,4.15,4.15,0,0,0,2.48,4.17,8.74,8.74,0,0,0,3.54.59H32.15v6.07H9.26v-5.82h3.23l-.63-.42a4.06,4.06,0,0,1-.92-.79,8.06,8.06,0,0,1-1.72-2.72,9.06,9.06,0,0,1-.46-3.06c0-3.38,1.21-5.66,3.65-6.83a14.33,14.33,0,0,1,5.94-1h13.8Z"/><path class="cls-1" d="M30.83,4373.88c-1.24,1.5-3.29,2.24-6.16,2.24H9.26V4370H23.18a6.19,6.19,0,0,0,2.82-.43,3.35,3.35,0,0,0,1.76-3.33,4.15,4.15,0,0,0-2.58-4.15,9,9,0,0,0-3.48-.58H9.26v-6H32.1v5.8H28.76a10.6,10.6,0,0,1,2.55,2.17,7.59,7.59,0,0,1,1.38,4.67A8.74,8.74,0,0,1,30.83,4373.88Z"/><path class="cls-1" d="M27.67,4379.34h4.27v3.22h6.38v5.92H31.94v3.72H27.67v-3.72H15.58a2.75,2.75,0,0,0-1.75.36,3.91,3.91,0,0,0-.35,2.18v1.18H9.05l-.11-2.84q-.13-4.23,1.47-5.79a4.43,4.43,0,0,1,3.17-1H27.67Z"/><path class="cls-1" d="M4.87,4396.91v.76a9.41,9.41,0,0,0,.06,1.68,2.9,2.9,0,0,0,.49,1.34,3.16,3.16,0,0,0,1.49,1,3.53,3.53,0,0,0,1.38.39l23.9-8.41v6.65l-16.89,5L32.19,4410v6.36l-22.55-7.84q-6.51-2.28-8.08-3.6T0,4399.64v-1.28a13,13,0,0,1,.07-1.45Z"/><path class="cls-1" d="M4.28,4416.44A4.66,4.66,0,0,0,6,4419.09a6.15,6.15,0,0,0,3.3,1v-3.63h6.28v6.47H10.1a12.15,12.15,0,0,1-3-.38,5.93,5.93,0,0,1-2.69-1.41,7.13,7.13,0,0,1-1.82-2.58,7.08,7.08,0,0,1-.62-2.07Z"/><path class="cls-1" d="M37,4444.09a12.75,12.75,0,0,1,3.8,9.47q0,7.74-5.13,11.3A11.1,11.1,0,0,1,29.9,4467v-6.42a8.8,8.8,0,0,0,3.36-1.58,6.36,6.36,0,0,0,2-5.12,6.29,6.29,0,0,0-2.84-5.45q-2.85-2-8-2c-3.48,0-6.07.7-7.8,2.11a6.6,6.6,0,0,0-2.6,5.35,6,6,0,0,0,2.23,5.07,9.6,9.6,0,0,0,3.59,1.6V4467a14,14,0,0,1-8.23-4.25A12.36,12.36,0,0,1,8.44,4454q0-6.6,4.28-10.38t11.8-3.78Q32.58,4439.8,37,4444.09Z"/><path class="cls-1" d="M12.06,4490.79q-3.59-2.91-3.58-8.8t3.58-8.8a13.25,13.25,0,0,1,8.61-2.9,13.4,13.4,0,0,1,8.58,2.9q3.63,2.9,3.63,8.8t-3.63,8.8a13.29,13.29,0,0,1-8.58,2.89A13.19,13.19,0,0,1,12.06,4490.79Zm3.31-4.79a8.59,8.59,0,0,0,5.3,1.41A8.55,8.55,0,0,0,26,4486a5.3,5.3,0,0,0,.58-7.48,5.39,5.39,0,0,0-.58-.59,8.55,8.55,0,0,0-5.29-1.42,8.58,8.58,0,0,0-5.3,1.42,5.29,5.29,0,0,0-.61,7.46A4.4,4.4,0,0,0,15.37,4486Z"/><path class="cls-1" d="M9.26,4504.08v-6h31v6Z"/><path class="cls-1" d="M12.06,4529q-3.59-2.88-3.58-8.8t3.58-8.8a13.24,13.24,0,0,1,8.61-2.89,13.41,13.41,0,0,1,8.58,2.89q3.63,2.91,3.63,8.8t-3.63,8.8a13.28,13.28,0,0,1-8.58,2.9A13.2,13.2,0,0,1,12.06,4529Zm3.31-4.79a8.59,8.59,0,0,0,5.3,1.41,8.55,8.55,0,0,0,5.29-1.41,5.3,5.3,0,0,0,.58-7.48,5.39,5.39,0,0,0-.58-.59,8.55,8.55,0,0,0-5.29-1.42,8.58,8.58,0,0,0-5.3,1.42,5.29,5.29,0,0,0-.61,7.46A4.4,4.4,0,0,0,15.37,4524.21Z"/><path class="cls-1" d="M32.68,4548.89v.52H26.52c0-.38.07-.72.08-1s0-.53,0-.71q0-3.61-2.35-4.86a9.31,9.31,0,0,0-4.07-.69H9.26v-6H32.15v5.71h-4a12.83,12.83,0,0,1,3.12,2.41,6.59,6.59,0,0,1,1.41,4.37Z"/><path class="cls-1" d="M23.18,4562a9.72,9.72,0,0,0,.52,2.39,1.81,1.81,0,0,0,1.71,1.29,2,2,0,0,0,1.94-1,6.44,6.44,0,0,0,.53-2.91,3.83,3.83,0,0,0-1.05-3,4.36,4.36,0,0,0-2.1-.85v-5.78a8.8,8.8,0,0,1,4.94,1.69q3,2.38,3,8.18a14.67,14.67,0,0,1-1.49,6.71c-1,1.95-2.86,2.93-5.63,2.93H12.43a3.38,3.38,0,0,0-1.6.36,2.28,2.28,0,0,0-.69.88H9.26v-6.51a7.19,7.19,0,0,1,1.3-.38c.41-.07.87-.12,1.39-.16a12.52,12.52,0,0,1-2.29-2.88,8.68,8.68,0,0,1-1.11-4.38,7.6,7.6,0,0,1,1.77-5.16,6.32,6.32,0,0,1,5-2,6.53,6.53,0,0,1,6.11,3.28A15,15,0,0,1,22.9,4560Zm-2.79,3.66a6.61,6.61,0,0,1-.58-1.16,9.74,9.74,0,0,1-.41-1.61l-.25-1.36a9.18,9.18,0,0,0-.82-2.75,2.74,2.74,0,0,0-2.54-1.42,2.68,2.68,0,0,0-2.22.87,3.32,3.32,0,0,0-.68,2.1,6.19,6.19,0,0,0,1.14,3.61c.75,1.1,2.13,1.67,4.13,1.72Z"/><path class="cls-1" d="M31.78,4589a7.17,7.17,0,0,1-2.53,2.63H40.17v6.07H9.26v-5.82h3.17a8.31,8.31,0,0,1-3-2.92,8.09,8.09,0,0,1-.92-4.07,8.5,8.5,0,0,1,3.24-6.75,12.49,12.49,0,0,1,8.32-2.74c3.91,0,7,.9,9.22,2.7a8.76,8.76,0,0,1,3.36,7.21A7.28,7.28,0,0,1,31.78,4589Zm-16.31,1.47a8.34,8.34,0,0,0,4.9,1.33q4.2,0,6-2.13a4.51,4.51,0,0,0,1.09-3,4.21,4.21,0,0,0-2-3.85,9.22,9.22,0,0,0-4.92-1.23,9.23,9.23,0,0,0-5.08,1.25,4.26,4.26,0,0,0-1.9,3.79A4.4,4.4,0,0,0,15.47,4590.43Z"/><path class="cls-1" d="M12.06,4622.18q-3.59-2.88-3.58-8.8t3.58-8.8a13.24,13.24,0,0,1,8.61-2.89,13.41,13.41,0,0,1,8.58,2.89q3.63,2.91,3.63,8.8t-3.63,8.8a13.28,13.28,0,0,1-8.58,2.9A13.2,13.2,0,0,1,12.06,4622.18Zm3.31-4.79a8.59,8.59,0,0,0,5.3,1.41,8.55,8.55,0,0,0,5.29-1.41,5.3,5.3,0,0,0,.58-7.48,5.39,5.39,0,0,0-.58-.59,8.55,8.55,0,0,0-5.29-1.42,8.58,8.58,0,0,0-5.3,1.42,5.29,5.29,0,0,0-.61,7.46A4.4,4.4,0,0,0,15.37,4617.39Z"/></g></g></svg>