<svg xmlns="http://www.w3.org/2000/svg" viewBox="0 0 2700 1699.85"><defs><style>.cls-1{fill:#fff;}</style></defs><title>Map</title><g id="Layer_2" data-name="Layer 2"><g id="Layer_1-2" data-name="Layer 1"><path class="cls-1" d="M0,564c4.39-1.61,3.81-5.8,4.52-9.15a19.66,19.66,0,0,1,7.76-12.28c7.41-5.54,13-12.26,13.6-22.15.14-2.1,2-4.07,2.87-6.17,1.81-4.24,3.79-8.43,5.22-12.8,2.54-7.75,3.68-15.56-1.91-22.88L39,469.41c-6.6-13.2-6.94-26.66-.81-40,2.22-4.84,3.32-9.72,1.43-14.46-2.67-6.65.62-11.48,3.65-16.58,3.36-5.64,6.77-11.24,10.17-16.85,2.29-3.77,2.41-9.31,8.36-10.1a2.39,2.39,0,0,0,1.44-1.29C70.27,355,83.3,342.63,84.32,324.58c.51-9,6-16,10.84-23.11,2.89-4.23,5.31-8.38,4.5-13.74a5.71,5.71,0,0,1,.13-3c5.52-12.72,10.32-25.83,17-37.89,3.32-6,6.72-11.16,6.24-18.25-.57-8.56.63-16.66,8-21.94a8.55,8.55,0,0,0,.14-2.49c-2.76-8.66-3.46-16.81,1.09-25.58,3.24-6.22,6.15-13.39,3.39-21.51l7.84-3.88c.16-.83.52-1.53.35-2.06-.41-1.25-1.58-2.42-1.55-3.6.32-12.18-4.23-24.07-1.14-36.53,2.07-8.32,2.66-17.16-3.15-24.92-2.4-3.21-1.72-6.28-.05-10.11,2.19-5,2.38-10.87,3.78-16.28,1-3.75,2.56-7.35,4-11.45,9.48,2.23,18.37,3.45,23.11,12.74.65,1.28,2.58,2,4,2.79,8.59,5,17.14,10.13,25.84,15a23.47,23.47,0,0,0,8.2,2.83c7.82,1,10.22,3.13,10.71,11.2.3,5,.06,10,.06,15,12.77-2.83,14.25-5.31,13.13-17.21-.38-4,1.24-8.28,2.46-12.27.76-2.49,2.72-4.58,3.74-7,2.34-5.6,3.65-11.1.72-17.22-2.4-5-3.6-10.63-5.69-17.1,5.28-2.21,10.26-4.56,15.45-6.3A7,7,0,0,1,253,31.76c9.38,7,20.57,8.53,31.44,11.49,21.45,5.85,42.55,13,63.91,19.11,14.32,4.13,28.67,8.71,43.33,11C414.14,76.72,435.51,84,457.45,89c16.78,3.88,33.68,7.25,50.57,10.62,31.86,6.36,63.72,12.74,95.64,18.77,30.6,5.78,60.76,13.87,92,16.23,19.45,1.48,38.75,4.86,58.17,6.88,13.53,1.41,27.24,1.26,40.7,3.06,25.58,3.42,51,8.14,76.58,11.53,15.1,2,30.4,2.58,45.61,3.69Q946.46,162,976.18,164c13.58.91,27.22,1.11,40.73,2.63,38.79,4.35,77.75,1.71,116.58,3.39s77.8,2.77,116.73,2.27q45.87-.58,91.72-2.73c21.83-1,43.62-3.07,66.19-4.72.94-4.67,1.79-9.52,2.9-14.31,1.81-7.81,7.6-11.37,14.78-8.13a20.64,20.64,0,0,1,9.26,8.43,120.78,120.78,0,0,1,8.37,21.28c1.28,4.23,3.11,7.18,7.27,8.65,4.68,1.65,9.21,4.11,14,4.92,5.6.94,10.82,2.13,16,4.74,2.37,1.2,6.67.65,9.15-.77,14.85-8.43,29-4.91,42.66,2.37,3.23,1.72,5.32,5.57,8.34,8.88l12.83-11c1.35,2.37,2.25,4.6,3.69,6.4,9.55,12,23.51,15,37.16,8.17.6-.3,1.23-.52,1.81-.84,10.4-5.63,10.26-5.45,19.58,1.77,2,1.52,5.51,1.84,8.13,1.44,3.88-.6,7.53-2.58,11.4-3.51,2.09-.5,4.9-.85,6.54.14,5.16,3.12,10.36,3.56,16.17,2.63,5.17-.84,9.87.81,14,5.57-4,7.94-8,14.89-17.9,19-11.78,4.81-22.26,13-32.94,20.25a66.31,66.31,0,0,0-20.49,22.72c-4.29,7.6-10.77,13.32-17.63,18.68a46.87,46.87,0,0,0-10.25,11.5c19.49-6.48,37.27-16.83,58.83-21.45-2.39,8.26-4.42,15.31-6.93,24,10-3.69,18.39-6.5,26.48-9.9,2.19-.92,3.94-3.45,5.29-5.61,2.71-4.32,6.44-6.18,11.43-6.8,8.86-1.1,15.7-5.24,21.68-12.42,7.62-9.14,17.59-16.3,25.26-25.4,8.83-10.47,18.62-15.92,32.69-14.08,6.66.88,13.66-.82,20.82-.46-5.57,7.32-12.61,12.38-20.06,16.87-8.13,4.9-12.51,12.34-15.47,21,7.72-.64,15-1.58,22.34-1.69a13.26,13.26,0,0,1,7.94,3c6.78,5.66,13.17,11.81,20.2,18.22,5.84-5.17,12.27-3,18.89,1,2.65-3,5.2-5.59,7.31-8.45,4.34-5.87,10.15-9.31,17-11.43,9.8-3,19.42-6.71,29.33-9.32,8.81-2.33,17.9-3.58,27.61-5.45.64,7,1.13,12.37,1.67,18.21,10.24-2.48,19.43-4.48,28.47-7,4.41-1.22,7.22.31,9.19,3.79,3.08,5.45,5.84,11.07,9.15,17.41l20.32-5.27c2.16,6.56,4.2,12.71,6.22,18.8-9.38,3.86-17.79,7.59-26.42,10.72-3,1.08-6.46.95-9.7.85-2.6-.09-5.17-1-7.77-1.46-8.21-1.33-8.21-1.3-9.09,6.43,12.25,4.58,24.17,9.34,36.3,13.46,6.25,2.12,12.88,3.13,19.35,4.58,10,2.24,17.21,12.2,16.54,22.44-.15,2.34.74,4.87,1.64,7.11,1.31,3.28,3.68,6.22,4.51,9.57,2.86,11.57,4.49,22.82-.16,34.88-3.56,9.24-5.07,19.14-12,26.92-3.23,3.64-2,7.39,1.38,11,6-3.74,8.14-10.19,10.78-16.05,4.25-9.39,10.63-15.64,20.93-18,9.54-2.21,15.34,0,20.17,8.7,7.27,13.17,13,26.92,16.12,41.7.6,2.82,1.53,5.94,3.32,8.07,6.37,7.55,7.11,16.49,5.88,25.39-1.34,9.77-4.2,19.34-6.69,30.27l-5.36-6.79c-.68.33-1.48.48-1.56.8-1,4.21-1.78,8.4-5.53,11.35-1.21.95-2.62,2.74-2.54,4.06.52,8.46-4.16,15.25-6.73,22.72-1.16,3.36-1.5,7-2.38,11.38,14.21,4.06,27.82,8.2,42.31,6.68a16,16,0,0,0,8.83-4.17,21.71,21.71,0,0,1,15.24-6.19,11,11,0,0,0,9.89-5.66c8.78-14.74,21.46-24.64,36.63-32.41,26.17-13.4,43.86-36.12,61.48-58.7,2.24-2.87,4-6.2,6.49-8.78,3.94-4.07,4.67-8.59,3.31-14-1.53-1-3.25-2.06-4.78-3.31-10.9-8.85-9.84-22.21,1.51-30.6,12.46-9.21,26.78-13.07,41.48-15.64,4.93-.86,10.46,1,15.59,2.21a19.5,19.5,0,0,0,14.42-1.79c9.57-5.18,19.95-9.08,26-19.18,1.63-2.7,4.83-4.47,7.35-6.63,5.24-4.5,5.47-5.88,1.72-11.58-1.09-1.67-2.21-3.32-3.32-5-7.43-11.06-5.13-21.31,1.51-32,8.56-13.79,16.13-28.19,24.18-42.3,15.5-27.19,18-28.78,47.21-38.58,23.61-7.93,46.9-16.79,70.32-25.25,11.87-4.29,23.71-8.69,35.61-12.9,5.17-1.83,8.55-4.27,8-10.72-.3-3.78,1.41-7.72,2.34-12.18l6.62-.37,11-8.82c3.27-4.06,5.38-8.92,3.28-14.9-.68-2,.78-5.2,2.16-7.23,6.26-9.19,7.27-18.14,2.27-28.6-3.63-7.6-5.91-16.3-1.67-24.87,2-4,1.33-7.66-.25-11.53a19.9,19.9,0,0,1,.59-17.23c6.24-12.54,5.15-26.51,7.34-39.85.68-4.14,1.41-8.76,3.69-12.08,6.51-9.42,15.06-8.92,21.28.64.67,1,1.28,2.09,2.69,4.42,4.11-4.42,7.7-8.16,11.15-12,3-3.39,5.85-6.92,8.77-10.39h8c6.57,3.72,13,7.62,19.73,11.08a20.73,20.73,0,0,1,10.37,11.3c9.24,22.69,19.07,45.14,28.39,67.81,2.11,5.11,5.22,7.32,10.56,6.84,4.11-.38,8.23-.68,13-1.06-.66,10,1.49,18,9.14,24.37,6-2.43,10.82.28,15.86,4A34.19,34.19,0,0,1,2700,142v4c-4.51,5.69-9.56,11-13.38,17.15a98.44,98.44,0,0,0-9.91,20.38c-3.39,10-2.87,10.21-13.4,10.86-1.31.08-2.62.32-4.11.51-2.77,4.18-5.65,8.24-8.23,12.48-4.12,6.78-8.92,11.73-17.43,7.68-.71.87-1.51,1.4-1.47,1.85,1.1,10.92-5.32,18.19-12.63,24.55-4.26,3.7-7.15,7.6-8.26,13.09-1,4.82-2.93,8.07-9,8.77-7,.82-9.12,7.5-9.57,13.41-.61,8.09-3.15,15.4-5.44,23-2.69,9-3,19-2.88,28.48,0,3.76,3.34,8,6.13,11.12,3.43,3.86,4,7.19,1.52,11.64a15.31,15.31,0,0,0-2.2,7.57c.08,2.36,1.23,6.16,2.84,6.74,10.23,3.69,15.35,13.68,24.23,18.87.82.48,1.7.87,2.79,1.42,3.09-2.94,3.14-5.1-.25-8.16-4.74-4.28-5.52-9.58-2.9-13,2.41-3.2,7.71-3.86,12.86-2.57,11.65,2.94,22.37,22,16.27,32.89a25.84,25.84,0,0,1-5.21,6.95c-4.74,4.08-10.4,7.19-14.66,11.66-4.06,4.28-6.83,9.79-10.81,15.72-5.39,0-11.31.07-17.23,0-4.48-.07-8.37.63-11.64,4.3-11.13,12.44-26.79,18.2-40.53,26.74-11.53,7.18-21.95,16.23-35.13,20.77-2.88,1-5,4.3-7.43,6.55-5.59,5.12-11.21,10.23-16.75,15.41-1.39,1.3-3.45,2.73-3.66,4.31-1,7.8-1.53,15.67-2.3,24.35,10.26-.31,11.63,7.1,13.05,13.67a103.27,103.27,0,0,1,2.58,21.7c0,13.53-.15,27.1-7.82,39.34-2.92,4.67-4.62,10.27-6.05,15.67-3,11.22-4.46,23-15.8,30,2.49,5.33,4.33,9.93,6.73,14.23,10.07,18,5.55,35.14-3.64,51.64-3.82,6.84-6.6,13.68-6.89,21.5-.26,7-.35,14-1,20.93-.39,4.57-.75,9.46-2.63,13.49s-5.69,7.28-9.45,11.83c3.05,2.67,6.06,5.13,8.87,7.81,9.5,9.07,12.9,21.36,17.47,33.08,3.63,9.28,7.88,18.32,11.44,27.62a18.93,18.93,0,0,1,1.09,9.35c-2.33,14.75-12.19,25.6-20.22,37.32-2,3-5.67,4.78-8.95,7.43l16.36,9.25c-2,12.76-3.85,24.4-5.82,36.89l-15.21-4.53c-6.85,3.24-13.93,6-20.38,9.86-3.57,2.12-5.74,6.49-9.17,9-6.22,4.48-9.59,10.73-13.08,17.24-4.19,7.82-6.88,15.72-6.28,24.75.21,3.15-1.06,6.4-1.68,9.78-11,1.6-21.45,2.22-30.79,8.52-14.37,9.7-22.11,22.69-21.84,39.85.19,12-2.91,21.31-14.06,27.49-3.48,1.94-5.59,6.42-8.2,9.84-1.6,2.1-2.68,4.66-4.48,6.55-12.57,13.2-25.17,26.39-38,39.36-5.72,5.78-9.59,12.44-13,19.78-10.4,22.3-14.36,46.18-17,70.18-1,9.22,1.79,19.06,3.91,28.38,3.44,15,10.94,28.6,18.49,41.83,8.36,14.67,18,28.64,27.49,42.62,3.71,5.46,8.59,10.11,12.93,15.12,3,3.51,6.14,7,9.09,10.55,5.71,6.94,9.4,14.25,6.17,23.75-.83,2.44.18,6.16,1.59,8.56,4.53,7.71,9.77,15,14.48,22.61,2.75,4.45,5,9.22,7.5,13.83,4,7.27,7.63,14.75,12.08,21.72s10.62,13,14.37,20.26c3.06,5.94,4.56,13.05,5.17,19.79,1.49,16.5,2.08,33.09,3,49.64.12,2.31.75,5.26-.36,6.85-5.14,7.31-3.6,15-2.34,22.85.92,5.74-1.21,9.64-6.06,13.45-14.59,11.46-31.69,17.88-48.48,27l-11-22.37,5.16-3.34a9.25,9.25,0,0,0-.88-2.58c-3.74-5.07-7.58-10.06-11.34-15.1s-9.61-5.06-14.5-4.8c-10.13.56-15.59-4-18.74-12.94-.87-2.49-2.88-4.61-3.58-7.12-2.57-9.19-9-12.5-17.84-12.15-4.93.2-8-1.47-10.19-6.08-9.24-19.45-23.08-35.58-37.61-51.19-1.56-1.68-2.86-3.59-4.36-5.49,2.25-2.85,4.27-5.42,6.82-8.64-3.65-2.7-6.82-5.5-10.41-7.58-4-2.32-5.53-5.31-5-9.84,1-9.55,2-19.1,2.65-28.68s2.46-19.42,1-28.7c-1-6.18-6.6-11.77-10.73-17.19-.87-1.14-4.37-.81-6.49-.37a14.71,14.71,0,0,1-13-3.22c-6.55-5.51-13.48-10.34-18.74-17.64-7.89-11-19.46-18.07-32.09-22.8-8.38-3.13-16-.27-21.19,8.05-7.64,12.24-18.24,20.89-30.57,27.86-4.33,2.44-8.32,3.17-13.23,1.18-5.44-2.22-11.34-3.34-17.31-5-.4-4.23-.76-8.14-1.13-12.17-6.84-3.75-13.2-8.47-20.33-10.82-7.71-2.54-16.17-2.75-24.26-4.19-20.33-3.62-39.36,2.46-58.54,7.59-5.77,1.55-12,1.94-17.39,4.25-10.75,4.61-18.52-1.91-26.79-6.24-2.25-1.18-3.31-4.63-4.91-7-7.83,11.86-7.79,12-22.86,15.26a87.47,87.47,0,0,1-15.75,1.71c-14.66.44-32.18,6.86-42.9,16.55,4.69-.89,8.41-1.59,12.12-2.32,3.52-.69,7-1.42,11.3-2.29-2.91,15.18-4.8,29.76-22.56,37.34,4.64,3.49,7,6.79,9.37,6.79,11,0,18.45,6.48,26.38,13.37l-3.16,20.81c-9.41-1.24-16.41,3.42-23.78,11.25-.32-5.42-.87-8.31-.58-11.1.54-5.1-1.52-8.47-6.19-9.94-5.89-1.86-11.92-3.26-17.5-4.75-7.72,13.12-16.36,15.83-31.4,6.72-6.29,11-17.1,10.1-27.72,9.83-2,0-4,0-6,0-12.79,0-18.47-4.38-22.34-17a6.1,6.1,0,0,0-1.9-3.26c-4.92-3.19-10-6.16-16.64-10.19,1,4.1,1.66,6.44,2.33,9-.71.48-1.46,1.39-2.28,1.46-5.54.44-11.09.75-16.64,1-3.26.15-6.87-.81-9.74.28-16.52,6.26-32.27,2.44-47.46-3.88-9.7-4-18.8-5.93-28.85-2a43.79,43.79,0,0,1-11.68,2.45c-16.56,1.59-31,9.16-45.7,16-4,1.87-7.3,5.47-10.57,8.64-22.84,22.13-44.42,45.12-74.52,58.9-20.35,9.31-37.05,25.62-51.66,43.14-2.32,2.79-3.8,6.3-6.14,9.08-10.3,12.24-13.27,27.13-15.54,42.26a21.14,21.14,0,0,0,.72,7.84c3.9,16.12,8.11,32.16,11.85,48.31,1.4,6.07,1.82,12.37,2.6,17.9l-24.52,14.36c-3.84-6.27-9.17-12-17.74-13.07-3.27-.41-6.69-1.36-9.82-.83-10.31,1.75-19.32-.71-28.5-5.58-10.42-5.53-21.51-9.92-32.56-14.11-8.5-3.21-15.13-7.75-19-16.34-2.57-5.73-5.59-11.53-9.6-16.29-8.3-9.89-10-21.53-9.9-33.52.07-8-2.4-13.25-8.45-18.82-9.21-8.48-16.46-19-25-28.35-11.72-12.82-22.41-26.26-28.69-42.67-2-5.23-4.18-10.5-5.19-16-2.09-11.19-8.17-19-17.37-25.46-6.9-4.82-14.55-9.09-18-18-1.83-4.77-6.24-7.14-12.09-7-11.63.37-23.2-.37-34.14-5.18-1.74-.77-4.25-1.33-5.82-.64-8.11,3.54-17.51,5-23.5,12.19a32.48,32.48,0,0,0-5.58,11.39c-2.62,8.79-6.63,16.32-13.64,22.61-9.85,8.83-17.43,9.57-28.29,1.93a132.05,132.05,0,0,0-18.65-11.38c-8.42-4-17.06-7.42-23.63-14.48-1.21-1.31-3.61-1.43-5.23-2.47-4.41-2.82-10.06-4.93-12.73-9-5.76-8.74-11.7-17.66-11.85-29.07-.07-5.12-2.25-10.25-3.76-15.29-1-3.16-3.07-6-3.6-9.25-2.09-12.67-11.47-20.39-20.62-26.78-7.16-5-12.42-11.87-19.23-16.38-8.67-5.75-14.67-13-20.34-21.16-1.09-1.57-2.67-3.31-4.38-3.85-8.27-2.62-12-9.41-14.69-16.54-2.87-7.65-8.48-10.63-15.69-11.47-10.86-1.27-21.75-2.16-32.64-3.09-14.84-1.28-29.69-2.45-46-3.78-1.82,8.28-3.68,16.77-5.69,26-18.48-1.74-36.56-3.48-54.64-5.13-20.79-1.9-41.6-3.66-62.4-5.58-14.85-1.38-29.69-2.83-44.51-4.48a21.5,21.5,0,0,1-7.4-2.65c-22.28-11.92-44.51-24-66.76-35.93q-31.61-17-63.25-34c-18.18-9.73-36.54-19.16-54.51-29.26-5.81-3.27-12.28-6.55-13.53-14.8-.29-1.86-4.24-4.12-6.78-4.54-30.79-5.09-61.64-9.31-93-8.58-8.8.2-17.65-2.09-26-3.18-.78-1.1-1.49-1.64-1.48-2.16.47-15.35-2.18-30.39-4.82-45.4-1.55-8.81-7.56-15.2-13.25-21.69-3.88-4.43-8.12-8.74-11-13.78-2.83-4.85-6-7.87-11.71-7.4-6.09.5-10.82-2.37-16.21-6,1.43-3.09,3-5.94,4.09-8.94,2.08-5.5-1.21-11.16-7.05-11.14-17.26,0-27.38-9.09-33.91-24.2-3.64-8.41-10.17-13.67-20.19-13.37-2.73.08-5.6-.91-8.22-1.9-5.5-2.08-10.77-4.85-16.35-6.66-4-1.31-8.44-1.53-12.44-2.2L90,987.23a61.59,61.59,0,0,0,4.37-4.78c1.35-1.79,3.74-4.18,3.34-5.71-2.75-10.65,3.77-22.61-4.58-32.43a6.64,6.64,0,0,1-1.6-3.61C91,927.61,81.26,918.86,76,908c-1-2-3.36-3.29-4.55-5.24-1.32-2.16-3-4.79-2.81-7,1-9.52-3.26-17-9.15-23.42A18.34,18.34,0,0,1,54.39,858c.38-7.26.09-14.55.09-21.63,5.12-3.56,14,0,14.08-9.58-.14-.17-.51-1.11-1-1.14-10.8-.9-15.52-8.61-19.45-17.21-1.66-3.63-3.26-7.3-4.68-11-.55-1.45-1.26-3.57-.63-4.62C49.32,782,42.7,770,46.21,759c1.08-3.38-1.1-5.87-3.9-8.36-6.1-5.4-11.52-11.55-17.81-18l7.39-6c-1.25-9.92-6-17.65-11-25.63-5.78-9.2-9.79-19.51-14.37-29.43-.61-1.32-.71-3.75.1-4.7,3.75-4.44,2-9.3,1.92-14.15a44.33,44.33,0,0,1,1.52-10.75c1.14-4.83,2.92-9.51,4-14.35,2.36-10.53,3.13-20.94-2.43-31C7.26,588.67,5.11,579.63,0,572Zm1795.5,856.53c4,1.64,3.18,8.86,10.36,8.46-3.7-3.7-2.69-11.48-10.62-8.17-.42-1.69-.85-3.37-1.49-5.94,6.37-7,13.21-14.6,20.06-22.17l-.91-.89-10.32,8.57c-6.68-4.16-14.13-6.44-19.07-13,5.9-6.51,10.54-14.06,17.22-18.53,15-10.05,31.69-16.47,50.3-16.8a92.92,92.92,0,0,0,19.55-3c2.15-.51,4.16-3.05,5.49-5.14,1.58-2.48,2.3-5.49,3.5-8.23,2.71-6.19,6.45-8.77,11.82-8.68,6.36.11,7,5,8.28,9.45,3.3,11.1,9.52,14.53,21,11.61,4.82-1.23,9.63-2.53,14.48-3.64,12.26-2.78,24.43-6.36,36.85-7.92,10.11-1.27,20.59-.61,30.82.22a96.48,96.48,0,0,1,22.14,4.6c5.93,1.95,11.25,5.73,17,8.41,6.65,3.11,12.1,6.9,10.81,14.89,10.09,6.46,18.47,3.73,25.81-3.3,5.25-5,9.85-10.73,14.71-16.16,3.95-4.4,7.2-11.5,11.94-12.68,7.7-1.91,17.07-1.92,24.47.76,15.67,5.69,29.29,15,39.45,29,5.57,7.69,12.67,14.32,23.87,12.06,2.54-.52,5.27-.08,8-.08,3.74,5.19,7,10.23,10.78,14.8s5.3,9.53,5.36,15.53c.16,15.32-.39,30.48-4.19,45.47-1,4.12-2.19,9.35,1.85,11.77l22.31-7.53c-1.38,7.61-1.87,13.13-3.48,18.31s-4.36,10.07-6.9,15.72l24.35,29.2,14.69-9.12c1.94,11.29,3.65,21.31,5.43,31.65,9-.65,14.24,3.45,17.21,11.84,2.4,6.77,6.09,13.08,9.22,19.64,3.17,0,5.48,0,7.8,0,9.44,0,17.64,2.32,23,11.12a89.05,89.05,0,0,0,8.92,11.93c9.58,11.1,18.9,15.8,31.45,5.95,1.83-1.44,3.58-3,5.5-4.3,4.37-3,5.76-6.39,4-11.88-1.6-4.83-3.52-10.4.61-15.24,3.33-3.9,3.56-8.48,3.17-13.19-.82-9.88-2.81-19.79-2.42-29.61.72-17.93-4.76-32.83-16.53-46.34a89.85,89.85,0,0,1-14.28-23.72,76.53,76.53,0,0,0-9-16.29c-4.16-5.57-7.62-11.67-11.38-17.54-3.92-6.11-5.86-12.88-4.5-20,1.21-6.3-.75-10.94-4.92-15.3-5.75-6-12-11.67-16.83-18.37-9.87-13.74-19.6-27.67-28.13-42.27-9.86-16.89-19.68-34-24.45-53.3-3.19-12.92-5.85-25.82-3.24-39.22,3-15.59,4.93-31.48,9.11-46.76,5.2-19,13.66-36.55,29.13-50,6.94-6,12.58-13.59,18.83-20.44,1.55-1.69,3.23-3.27,4.76-5,4.17-4.68,8.48-9.26,12.37-14.16,3.7-4.65,6.56-9.78,12.56-12.4,4.95-2.16,6.48-7.34,7-12.46a57.39,57.39,0,0,0,.06-9c-.69-12.43,5.18-23.27,12-32,8.4-10.84,20.36-18.76,35.14-20.32,2.43-.26,4.74-1.71,7.21-2.65-1.52-16,6.5-28.3,13.84-40.33,4.33-7.12,11.59-12.49,17.78-18.4,1.28-1.22,3.73-1.12,5.49-2,4.69-2.22,9.3-4.61,13.7-6.82a64,64,0,0,1,1.81-31.42c1.46-4.93,3.57-10.89,7.37-13.67,7.54-5.53,12.34-13,17.09-20.35,4-6.25,7.66-13.41,3.2-21.68l-16.8-1.3c1.32-7.79-1.89-16.14,8.78-18.76-5.23-11.6-7.71-23.34-16.19-32.45-3-3.18-5.84-5.25-10-5.48-2.32-.13-4.67-.13-7,0-4.6.2-7.24-2.14-6.82-6.51.56-5.79-2.36-9.38-6.23-12.81a32.39,32.39,0,0,1-3.15-3.72c.74-5.92-.27-11.41-.41-16.92-.29-11.19-1.06-22-12.55-28l4.21-8.72c-8.84-12-14.69-24.72-15.65-39.59l16.18-15.6,2.11.78c0,5.23-.4,10.5.13,15.68.46,4.51,1,9.43,3.2,13.24a38.68,38.68,0,0,0,21.94,17.92c7.2,2.39,13.08,6.26,16.2,12.59,2.19-3.92,4.18-8,6.67-11.86a45,45,0,0,0,7-32.31c-1.08-6.74-3.68-15.13-10.78-18-7.48-3.07-11.65-8.21-15.42-14.61-3.49-6-7.42-11.65-11.53-18.05l5.91-7.53c11.57,4.69,23.05,9.39,33.12,3.64,4.72-10.84,8.69-19.87,12.59-28.94a52.61,52.61,0,0,0,2.36-6.5c4.24-15.41,3.05-30.59-1.75-45.94l-10.18-1.51c-1.68-14-.19-27.43,1.53-40.82.31-2.43,2.89-5,5-6.67,6.75-5.36,13.85-10.12,18.89-17.51,2.28-3.35,6.43-5.65,10.08-7.83,8-4.75,16.22-9,24.24-13.68,6.89-4,13.56-8.4,20.43-12.46,9.4-5.58,19.63-10.25,26.76-18.67,4.94-5.83,10.32-8.08,17.4-7.07,9.59,1.37,16.76-1,20.55-10.92,1.23-3.2,4.29-5.71,7.4-9.65-7.45,2.09-11.42-1.64-15.4-5.88-6.36-6.74-12.42-13.88-21.89-16.82-2.08-.65-3.78-3.43-5.07-5.58-4.56-7.63-2.71-15.28.92-22.46a40.75,40.75,0,0,0-2.55-3.77c-5.61-6.33-7.76-13.43-6.2-21.94,1.12-6.12,1.09-12.44,1.81-18.64a19.37,19.37,0,0,1,1.88-6.62,49.86,49.86,0,0,0,5.47-22,25.14,25.14,0,0,1,18.61-23.07c1.53-7.54,5.41-13.4,12-18.38,5.7-4.3,9.65-10.84,8.12-19.15-.56-3.05,0-6.31.11-9.78h19.06c4.32-7.2,8.91-14.82,13.67-22.74l12.15,2.37c1.32-17.17,13.66-27.85,22.3-40.63-5.27-9.48-12.56-12.81-22.75-8.84l-16.65-25.61c1.2.46.58,0,0,0-10.89.43-17.11-4.06-21.1-14.94-8-21.8-17.71-43-26.85-64.34-1-2.36-2.48-5.06-4.53-6.33-6.13-3.84-12.65-7-19.62-10.82-8.19,12.68-16.87,24-34.13,21.08L2539,24.69c-2.9,5-5.15,10.06-4.86,15,.66,11.33-2.09,21.75-6.14,32-1.8,4.58-2.07,9,0,13.52,2.34,5.19,1.93,10.29-.23,15.46-2.76,6.63-1.5,13,1.76,19.09.93,1.74,2.51,3.49,2.58,5.28.42,11.87,1.51,23.92-5.76,34.75l6.31,9.37c-8.3,2.45-9.89,8.93-11,15.9-9.2-.35-10.78,10.52-18.75,12.08-.63.12-1.16,3.08-1,4.64.64,5.67-2.63,8.61-7.09,10.73-4.2,2-8.41,4-12.77,5.58q-58.58,21.21-117.23,42.21a29.69,29.69,0,0,0-16.52,13.55c-11.67,20.08-23.65,40-35.33,60.05-3,5.13-3.92,10.5.38,15.78,2.91,3.59,5.19,7.68,8,11.34,2.54,3.28,3.53,6.39.46,9.81-5.3,5.88-11.33,11.26-15.73,17.75-5.73,8.46-14.23,12.65-22.43,17.64-9.63,5.87-19.78,7.26-30.72,5.11a37.85,37.85,0,0,0-11.78-.85,75.55,75.55,0,0,0-33.2,12.7c-6.24,4.2-6.71,9.87-.17,13.06s8,7.55,8.09,14.26c.09,7.39-1.51,13.48-6.46,19.07-4.16,4.69-7.4,10.17-11.3,15.11-18.4,23.37-38.19,45.28-65.57,58.5-10.19,4.93-18.23,11.74-24.14,21.44-2.9,4.75-7,8.81-10.38,13-11.37,1.05-11.38,1-22.33,7.21-5.89,3.31-11.94,5.94-18.93,4.8q-24.95-4.08-50-8.2c-.4-2.65-1.2-4.4-.78-5.77,3.13-10.1,6.54-20.11,9.76-30.18.8-2.49,1.15-5.11,1.87-7.63,1-3.41,1.32-7.39,3.36-10,4.3-5.56,5.69-11.82,6.61-18.42.31-2.25.65-4.49.94-6.45,1.74-.78,3-1.34,4.16-1.87,6.9-3,8.18-4.91,7.11-12.06a19.09,19.09,0,0,0-3-7.15,59.18,59.18,0,0,1-7.39-17.15c-3.07-11.13-7.55-21.89-11.9-32.62-1.27-3.13-4.09-5.63-5.82-7.93-10.44,1.59-15.45,7.56-19.33,15.55-3,6.16-7.14,11.81-11.16,17.42-1.22,1.71-4.15,3.91-5.52,3.48-4.85-1.55-11.69-3-13.47-6.6-3-6-7.44-13.71-2.1-20.66,6.59-8.58,10.54-17.88,13.37-28.36,3.88-14.37,2.47-26.69-8.19-37.8.21-2.08.51-4.36.65-6.65.59-9.75-2.33-12.93-11.69-14.81a202.2,202.2,0,0,1-21.89-6.16c-6.31-2-12.36-4.95-18.73-6.78a35.89,35.89,0,0,0-11.8-1c-4.26.24-7,2.86-5.65,7.43,2.3,7.74-1.55,13.4-5.76,19-1.58,2.09-3.49,3.92-6,6.75,5.88,7.43,3.68,15.15.64,23.24-3.11,8.28-9.49,13-16.51,18.89-1.18-6.26-2.14-11.33-3.08-16.33-6.57.38-10.16,3.22-10.14,10,0,2.93-1.4,5.88-1.25,8.78.62,12.13-1.57,23.76-5.1,35.29-.78,2.53-.67,6.14.6,8.34,3.85,6.66,4.77,12.91-.52,19.28,2,3.46,3.76,6.6,5.51,9.78,4.48,8.13,9.52,16,13.27,24.46,10.17,22.9,6,46.48.73,69.4-3.85,16.68-15.17,29.11-29.71,38.57-6.33,4.11-12.91,3.2-19.23,2.48-3.11-.36-6.25-4.24-8.51-7.19-2.94-3.85-5-8.36-7.5-12.56-1.66-2.82-2.78-6.37-5.19-8.26-6-4.68-7.45-10.51-6.85-17.6.37-4.29-.3-8.68.08-13,.6-6.89-.59-13.34-4.28-19.09-8.7-13.57-7.72-28.38-6.28-43.39.6-6.2.38-12.48.77-18.71.35-5.62.87-11.24,1.6-16.82q2.32-17.72,5-35.4c1.48-10,.68-20.45,8.35-28.94,2.53-2.8,4-7.59,1.61-13.86-4.37,9.95-7.76,18.18-11.63,26.17-1.21,2.5-3.84,6.26-5.64,6.16-7.38-.42-9.47,4.94-12.66,9.52-2.81,4-6,7.77-8.87,11.41-9.91-2.64-9.44-5.77-6.68-13.33,6.95-19,13.43-38.22,20.13-57.33,3.72-10.61,7.51-21.19,11.17-31.51,4.11,0,8.69,1.43,10.86-.26,7.51-5.81,13-1.16,18.9,2.27,1.87,1.09,3.42,2.7,5.84,4.65,8.35-14.22,15.89-28.88,35.22-25.63,6.14-11.85,22.21-13.65,39.6-5.73l6.18-10.87,25.4,3.86-11.34-22.76c-6.59,1.34-13.9,1.18-19.29,4.32-6.77,4-12.45,2.49-18.94,1.29-1.34-5.56-2.56-10.62-4-16.71-4.58,1.28-8.69,2.3-12.71,3.58-8.86,2.82-17.54,6.29-26.53,8.52-8.76,2.16-14.78,7.09-19,14.7-1.43,2.58-2.83,5.17-4.43,8.1-4.84-1.16-9.3-2.33-13.81-3.25a24.12,24.12,0,0,0-6.55-.54c-5.54.41-11,1.11-14.37,1.46-6-7.12-10.46-12.8-15.38-18s-11.12-5.51-17.41-2.55c-2.68,1.27-5,3.24-7.68,4.61-6.53,3.39-12.8,7.48-20.92,9.71,2.78-16.89,8.42-31.31,15.57-45.26-10.82,9.78-22.14,18.91-30.92,30-7,8.82-15.08,13.33-25.37,15.82-3,.71-6.62,2.27-8.13,4.61-4,6.2-9.5,8.79-16.34,9.93a17.52,17.52,0,0,0-7.43,2.81c-7.53,5.6-16,5.79-25.1,5.1l-3.28-17.27L1568.37,320l-12.12-10.16c3.41-9.72,8.29-17.22,15.45-22.91,10.76-8.55,20.08-18.24,26.73-30.39a20.34,20.34,0,0,1,5.29-5.89c7.81-6.15,15.62-12.32,23.74-18,6.88-4.83,14.2-9,20.82-13.18-6.65-5.87-13.62-3.93-21.33-2-7.53,1.9-16.09,2.92-21.5-5.14-19.14,8.76-37.32,9.2-55.19-3.71l-12.32,12.91c-2.27-4.24-4.3-7.55-5.85-11.07-2.21-5-5.15-9-10.5-11.28-8.74-3.79-17-4.95-25.6.49-6.57,4.17-14.17,5.16-20.9,1.44-5.45-3-11.23-3.59-16.82-5.39-11.89-3.81-24.41-6.63-26.56-22.87a33.24,33.24,0,0,0-9.4-19.16c-1.52,8-2.86,15-4.31,22.59-8,0-15.29-.42-22.56.07-25.78,1.74-51.51,4.33-77.31,5.55-25.57,1.2-51.2,1.26-76.8,1.58-18.33.22-36.66,0-55,0-2.33,0-4.67.06-7-.07-18.55-1-37.09-2.88-55.63-2.9-43.54,0-87-.23-130.44-4.34-25.07-2.37-50.19-4.86-75.33-5.55-32.62-.9-64.71-5.55-96.85-10.36q-29.46-4.41-59.05-7.8c-12.18-1.39-24.49-1.54-36.69-2.77-16.82-1.7-33.73-3.05-50.33-6.06-35.56-6.45-70.94-13.92-106.41-20.88-23.09-4.53-46.23-8.81-69.32-13.35-14.31-2.82-28.64-5.57-42.83-8.94-18.39-4.37-36.46-10.29-55-13.81-24.18-4.59-48-9.79-71.21-18.32-14-5.17-28.38-9.56-42.82-13.4-13.26-3.53-27.53-3.51-40.93-14.19.85,4.95.63,7.71,1.79,9.64,4.91,8.14,2.87,16-.43,23.81-1.28,3-3,5.93-4.18,9-.8,2.07-1.77,4.5-1.39,6.53,2.37,12.73-1.53,22.15-13.29,26.87.52,8.61,1,16.49,1.4,22.89-9.7,10.87-20,17.22-33.78,18-.57-4.78-.85-9.05-1.64-13.23-1.51-7.86-.48-14.64,4.54-21.51,6.38-8.73,8.29-19,6.42-29.85-11.56-.57-19.13-7.61-27.53-12.7C169.78,75,161.62,69,152.63,62.89c-2.12,7.64-4.48,15-1.71,23.51,1.82,5.54,3.42,12,2.31,17.47-2.3,11.22-2,22.19-1.3,33.43.32,4.76,2.08,7.38,6,9.2,2,.92,4,1.91,6.65,3.21-1.93,2.35-3,4.51-4.82,5.72-9.66,6.61-11.83,15-6.61,25.38.21.42-.32,1.21-.5,1.83l-9.29,7.11,19.31,11.67c-5.81,3.8-10.19,7.5-15.21,9.78-12.56,5.7-13.82,6.73-13.43,20.6a30.14,30.14,0,0,1-6,19.47c-3.25,4.47-5.67,9.56-8.19,14.52-1.8,3.54-2.93,7.42-4.74,11-3,6-5.6,11.91-5.11,19,.18,2.67-1.23,5.85-2.84,8.15-6.53,9.35-12.71,18.71-13.2,30.66a13.74,13.74,0,0,1-1.79,5.67C86.86,350.12,81.46,360,76,369.85c-2.24,4.08-3.66,9.58-7.13,11.78-4.83,3.06-6,7.6-8.41,11.75-2,3.39-3.7,7.1-6.36,9.89-3.37,3.54-4.5,6.78-2.91,11.62,1.79,5.42,1.6,10.88-1.81,16.17-1.91,3-2.11,7-3.56,10.34a17.74,17.74,0,0,0,1.59,17.16c3.72,5.82,3.68,11.16.88,16.88-1.36,2.77-2.31,5.06-1,8.4,1,2.52.68,5.92,0,8.71-2.33,9.93-3.08,20.41-9.74,28.92a6.94,6.94,0,0,0-1.31,3.71c-.57,11.3-7.23,18.62-15.56,25.2-2.39,1.89-3.86,5.24-5.14,8.18-3.4,7.78-2.3,15,1.56,22.74,4,7.92,7.55,16.51,8.83,25.17a64.82,64.82,0,0,1-4.19,35.3c-4.3,10-.44,20.24-1.49,30.38-.63,6,3.92,13.46,7.94,18.94,8.27,11.29,13.15,23.74,16,37.17.62,2.9.39,6,.6,10a17.56,17.56,0,0,0,3.69,2.91c7.57,3.78,10.2,9.79,9,18-.72,4.88-2.55,10.37-1.09,14.63,2.66,7.71,1.37,14.25-2.3,20.89,2.54,5,4.74,9.81,7.45,14.34,1.1,1.83,3.21,4.09,5,4.26,10.69,1,13.1,9.56,17.7,16.93l-18.5,19.72c-1.26,6.58.54,13.35,6.32,20.26,4.16,5,5.14,12.61,7.49,19.07,1.09,3,1.72,6.2,3.19,9,6.93,13.11,20.12,23.13,19.55,39.93a3.47,3.47,0,0,0,.77,1.82c5.76,8.35,9.84,17,4.78,27.25-.25.5.17,1.3.15,2-.18,5.56-.06,11.17-.69,16.69-.78,6.83.36,8.8,6.77,10.38,6.12,1.51,12.16,3.32,18.23,5,5.68,1.59,11.26,3.86,17,4.57a14.67,14.67,0,0,1,9.47,4.52c4.43,4.54,8.46,9.05,11,15.17,4.39,10.55,12,17.31,24.44,16.82,6.07-.24,11.58,2,14.25,7.51s3.93,11.61,5.93,17.81c8.24.89,15.32,4.31,19.4,13.41,2.08,4.64,6.33,8.32,9.63,12.41,7.19,8.94,15.41,17,16.31,29.75.85,12.16,3.32,24.2,5.29,37.82,41.15,1.3,82.72,3.82,124.13,12.42.5,2.36.48,5.23,1.7,7.41a34.42,34.42,0,0,0,7.05,9.16c2.92,2.55,6.68,4.17,10.16,6q47.85,25.76,95.73,51.46c21.34,11.5,42.49,23.39,64,34.5,7.54,3.89,14.36,9.52,23.45,10.37,22.42,2.09,44.79,4.75,67.21,6.81,22.1,2,44.24,3.56,66.35,5.4,4.17.35,8.3,1.12,13.07,1.78,1-4.81,1.9-8.63,2.66-12.47,2.73-13.73,3.4-14.23,17.6-12.69l1,.11c13.5,1.34,27,2.65,40.5,4,15.08,1.55,30.37,0,45.31,4.67,5.18,1.63,7.79,3,9.29,8.22,2.53,8.77,6.85,16.51,15.88,20.56a11.71,11.71,0,0,1,5.14,4.41c4.36,7.58,9.25,14.38,17.44,18.43,2.53,1.25,4.24,4.16,6.31,6.31s3.71,5.25,6.23,6.28c6.77,2.79,11.29,8,16.26,12.89,3.28,3.22,8.22,5.59,9.9,9.43a219.89,219.89,0,0,1,11.91,33.65c2.59,10.24,3.31,20.84,10,29.79,2.94,4,6,6.78,10.91,7.94a25,25,0,0,1,7.76,3.61c5.17,3.43,9.93,7.52,15.23,10.72,8.5,5.14,17.46,9.53,25.94,14.71,6.2,3.79,7.13,3.83,12.87-1,6.4-5.38,9.74-12.3,11.88-20.15,1.84-6.76,4.06-13.35,11.19-16.76,5.94-2.85,12.61-5,17.34-9.3,6.94-6.26,13.87-4,20.34-1.48,10.47,4.07,21.21,6.06,32.09,5,9.65-1,15.92,3.75,19.64,10.76,4.36,8.19,11.26,12.67,18.24,17.6,8.34,5.89,14.73,13.56,17,23.56,4.38,19.51,12.05,37.1,26.2,51.61,4.15,4.26,7.46,9.32,11.38,13.82,7.41,8.5,14.24,17.74,22.76,25,5.55,4.7,7.6,9.65,8.09,16.09.22,3-.38,6.08.18,9,1.38,7.06,2.29,14.43,5.1,20.94,3.4,7.85,8.83,14.79,12.91,22.39,3.55,6.61,8.48,10.75,15.92,12.38a58.26,58.26,0,0,1,11.85,4.54c9,4.19,17.72,8.92,26.84,12.75,3.47,1.46,8.09,2.25,11.57,1.24,9.12-2.65,17.11.83,25.31,3.24,3.68,1.09,7,3.4,10.46,5.13l8.88-6.83c-3.89-16.67-7-32.92-11.63-48.75-2.38-8.23-3.68-15.94-1.3-24.18,2.9-10.07,2.53-21.06,9-30.14,9.56-13.47,17.17-28.27,31-38.55,12.77-9.48,23.55-21.79,38.37-28.31,29.12-12.81,50.54-35,71.68-57.62,4.6-4.93,9.35-9.22,16.07-11.22,4.73-1.41,9.63-3.16,13.64-6,6.85-4.75,14.59-6,22.37-7.45,4.89-.93,9.8-1.8,14.6-3,14.74-3.85,29.13-5.35,43.64,1.71,13.31,6.46,27.31,7.68,41.61,2.46,3.31-1.21,7.11-1.08,10.63-1.56v-6.56c5.71-1,11.18-2.16,16.71-2.79a11,11,0,0,1,6.53,1.31c8.47,5.18,16.73,10.69,24.93,16-1.7,11.29-.71,12.14,10.29,12.67,10.67.51,20.66.06,27-10.34.47-.77,1.59-1.14,2.63-1.84l18.26,8.17c4.32-7.53-5.44-10.34-4.26-16.84,4.15-.5,8.39-1,12.62-1.54C1789,1421.62,1792.22,1421.08,1795.5,1420.53Zm7.94-1078.68c-3,2.48-5.18,5.69-7.64,5.94-5.22.55-6.19,3.92-7.47,7.72-2.87,8.5-5.86,16.95-8.85,25.41-2.59,7.32-5.25,14.62-7.88,21.93,3,.36,5.07-.11,5.8-1.37,1.81-3.13,2.79-6.76,4.52-10,4.21-7.74,5.58-17,12.25-23.63a64,64,0,0,0,7.86,2.62c5.88,1.16,7.75,4.89,8.56,10.49,1.2,8.33-1,15.51-4.76,22.74a46.22,46.22,0,0,0-4.84,13.83c-1.9,12.08-2.92,24.3-4.63,36.42-1,6.87-4.37,13.88-3.52,20.41,1.2,9.17-.62,17.75-1.09,26.61s-2.77,18.19,2.48,26.36c7.39,11.48,9.11,24,8,37.19a29.1,29.1,0,0,0,.11,8c.48,2.46,1.28,5.42,3,7a28.8,28.8,0,0,1,9.09,15c.71,2.74,2.76,5.22,4.53,7.58,3.3,4.4,8.75,6,13,3,6.64-4.81,13.53-9.27,18.31-16.54,6.2-9.44,9.07-19.75,10.7-30.61,3.13-20.88,2.4-41-10.2-59.34-5.42-7.88-9.75-16.51-14.66-24.95,5.37-7,4.3-13.67.28-20.57a9.19,9.19,0,0,1-.52-7.32c5.45-11.7,7.25-23.89,7.38-36.72.13-11.91.13-24.61,13.77-28.54,1.48-4.77,1.58-9,3.77-11.35a159.5,159.5,0,0,1,17.79-15.61c4.3-3.36,6.73-7.21,6.23-12.73-.36-3.91-.7-7.83-1-11.29l8.13-6.45c-2.6-2.07-4.67-4.22-7.17-5.6-7.22-4-15.48-3.78-17.83,1.43-2.86,6.36-7.94,7.08-13,6.62-9.11-.82-13.86,3.43-18.07,10.88-4,7-8,14.42-15.32,19.45C1814.84,351.22,1809.51,346.83,1803.44,341.85Zm635,442.83c4.52-.31,6.68-1.84,5.73-5.76a48.69,48.69,0,0,0-2.13-6.59,58.28,58.28,0,0,1-2.94-34c2.34-11.84,1.9-11.67-9.21-16.68-5.1-2.3-8.07-1.51-9.9,3.79,1.65,2.92,3.79,5.63,4.76,8.7,1.08,3.4.68,7.26,1.67,10.71,3.44,11.93.1,26,11,35.66C2438.18,781.17,2438,782.92,2438.41,784.68ZM206.61,142.44c13.79-2.94,16.85-11.88,8.39-22.27-2.16,3.41-4.07,7.25-6.76,10.45C205,134.44,205,138.19,206.61,142.44Zm2254,796.27c2.25-10.63,2.25-10.63-.45-17.5l-10.63,12Zm-629.36,504.44c-1.62-9.86-5.25-12-19.48-11.85Zm618-802.14c3.1,4.19,4.14,9.1,10,9.52V638.39Zm2.41,101-2.11-.57-1.32,13,.86.1Q2450.38,748.32,2451.66,742.05Zm180-350.66,2.52.58,1.92-8.41-2.34-.54Z"/><path class="cls-1" d="M2631.63,391.39l2.1-8.37,2.34.54-1.92,8.41Z"/><path class="cls-1" d="M728.77,945.91c.24-4.45.42-8.75.72-13,.6-8.41,1.19-16.83,1.94-25.22,1.09-12.12,2.46-24.21,3.45-36.34,1.27-15.39,2.17-30.82,3.43-46.22,1-12.18,2.42-24.34,3.43-36.52,1.21-14.69,2.12-29.41,3.27-44.1,1.47-18.68,3-37.34,4.58-56,.12-1.47.17-3,.43-4.41.48-2.72,1.21-3.15,3.94-2.86,5.38.56,10.75,1.2,16.14,1.58,27,1.88,54.07,3.81,81.12,5.49,38.69,2.41,77.37,4.76,116.08,6.81,16.19.86,32.42.87,48.64,1.26,12.29.29,24.58.61,36.87.85s24.46.44,36.69.6c3.32,0,6.65-.23,10-.2,2.42,0,2.87.53,2.72,2.88-.77,12.75.14,25.46.57,38.2.29,8.74,0,17.5-.13,26.26-.13,11.39-.34,22.78-.48,34.17-.18,14.68-.32,29.35-.51,44q-.39,29.93-.85,59.86-.3,21.13-.59,42.28c-.07,5,0,10-.12,15.06-.16,5.35-.31,5.7-5.54,5.73-11.06.06-22.13-.1-33.2-.37q-27.31-.64-54.62-1.54c-7.72-.24-15.43-.72-23.15-1-20.07-.83-40.15-1.38-60.2-2.51-25-1.42-50-3.25-75-5-15-1.07-30-2.39-45-3.58-16.17-1.28-32.34-2.5-48.51-3.81C746.14,947.48,737.43,946.67,728.77,945.91Zm23.57-261.2c-.06.59-.15,1.35-.21,2.11q-1.57,22.44-3.16,44.87c-1.15,16.12-2.23,32.25-3.55,48.35-1.53,18.74-3.35,37.44-4.91,56.18-.9,11-1.41,22-2.31,32.94-1.22,14.89-2.66,29.75-4,44.63q-1.15,13.19-2.18,26.37c-.21,2.71,0,2.79,2.65,3,8.53.74,17,1.53,25.58,2.24q26.28,2.21,52.54,4.33c4.75.38,9.52.5,14.27.87,18.8,1.48,37.58,3.39,56.41,4.45,31.3,1.77,62.63,3,94,4.49,12.29.58,24.56,1.37,36.85,1.79,16.28.57,32.56.87,48.84,1.28,9.59.25,19.18.53,28.77.71,4.4.08,4.9-.37,5-4.76.23-7.47.34-14.94.43-22.4.25-19.7.43-39.4.69-59.09.18-13.65.46-27.29.66-40.94.17-11.07.28-22.14.4-33.21q.22-19.6.42-39.21c.07-7.27.25-14.54.25-21.82,0-12.29-.12-24.59-.15-36.88,0-3.74.06-3.75-3.53-4.28a18.72,18.72,0,0,0-2.68-.27c-4.23,0-8.46.11-12.69.07s-8.24-.23-12.36-.3c-23.11-.39-46.22-.69-69.32-1.16-12-.25-24.08-.6-36.09-1.25q-46.77-2.49-93.53-5.33c-20.94-1.28-41.87-2.88-62.81-4.32q-19.27-1.33-38.55-2.6C762.9,685.24,757.7,685,752.34,684.71Z"/><polygon class="cls-1" points="932.23 803.02 923.13 796.46 912.57 800.23 916 789.55 909.15 780.66 920.37 780.63 926.7 771.37 930.2 782.03 940.96 785.19 931.91 791.81 932.23 803.02"/></g></g></svg>