<svg xmlns="http://www.w3.org/2000/svg" viewBox="0 0 735.07 272.1"><defs><style>.cls-1{fill:#48494a;}.cls-2{fill:#fff;}.cls-3{fill:#445e2b;}</style></defs><title>pyv</title><g id="Layer_2" data-name="Layer 2"><g id="Layer_2-2" data-name="Layer 2"><rect class="cls-1" width="735.07" height="272.1" rx="71.65"/><rect class="cls-2" x="14.04" y="12.68" width="706.99" height="246.73" rx="66.91"/><path class="cls-3" d="M98.51,156.13H83.78L97.69,91.07l15.14-2-7.26,34.17q7.16-.61,12.53-8.39A29,29,0,0,0,123.47,98q0-6.54-3.32-10.23t-9.36-3.68q-12.48,0-19.49,6.6t-7,18.26a19.4,19.4,0,0,0,.26,3.37,11.29,11.29,0,0,0,.87,2.77c.14.27.22.46.26.56a1,1,0,0,1,0,.25q-5.73,0-8.34-2.4T74.78,106a18.24,18.24,0,0,1,3.43-10.23,33.91,33.91,0,0,1,9.56-9.21A46.07,46.07,0,0,1,99,81.3a38.83,38.83,0,0,1,11.72-1.9q11.25,0,17.69,5.53a18.31,18.31,0,0,1,6.45,14.63,25.11,25.11,0,0,1-2.41,10.64,29.12,29.12,0,0,1-16,14.83A31.84,31.84,0,0,1,105.27,127h-.52Z"/><path class="cls-3" d="M132,144.46a24.61,24.61,0,0,1,.21-3c.14-1.13.34-2.34.61-3.64l10.95-51.25,15.14-2L147.1,139.76c-.13.61-.24,1.17-.3,1.69a11.64,11.64,0,0,0-.11,1.58,3.75,3.75,0,0,0,1,2.92,4.77,4.77,0,0,0,3.22.87,7.69,7.69,0,0,0,5.42-2.51,15.1,15.1,0,0,0,3.79-6.5h4.29q-3.27,9.31-8.79,14.12a18.77,18.77,0,0,1-12.69,4.81,10.27,10.27,0,0,1-8-3.22C132.94,151.37,132,148.35,132,144.46Z"/><path class="cls-3" d="M190.78,109.68v.72l1.13-5.42h14.73l-7.36,34.78c-.14.61-.24,1.17-.31,1.69a11.66,11.66,0,0,0-.1,1.58,4.71,4.71,0,0,0,1,3.33,4.22,4.22,0,0,0,3.17,1.07,6.24,6.24,0,0,0,4.81-2.51,19,19,0,0,0,3.48-7.11h4.29q-3.27,9.42-8.49,14.17a17.38,17.38,0,0,1-12.07,4.76,9.81,9.81,0,0,1-7-2.46,10.46,10.46,0,0,1-3-6.95,23.44,23.44,0,0,1-7,7.06,15.47,15.47,0,0,1-8.24,2.35,12.34,12.34,0,0,1-10-4.3q-3.63-4.29-3.63-12.17a44.54,44.54,0,0,1,1.74-12A45.74,45.74,0,0,1,162.76,117a29.06,29.06,0,0,1,8.79-9.26,19.83,19.83,0,0,1,10.95-3.22,11.4,11.4,0,0,1,6.14,1.38A4.32,4.32,0,0,1,190.78,109.68Zm-.92,5a3.78,3.78,0,0,0-1.12-2.71,4,4,0,0,0-3.07-1.18q-5.62,0-10,9.41a44.13,44.13,0,0,0-4.35,18.62,12.49,12.49,0,0,0,1.12,6,4.19,4.19,0,0,0,4,2,7.3,7.3,0,0,0,5.17-2.56,12.64,12.64,0,0,0,3.32-6.45Z"/><path class="cls-3" d="M236.2,145.18a29.68,29.68,0,0,1,.46-4.6c.31-1.84.94-4.78,1.9-8.8s1.56-6.68,1.84-8.39a28.25,28.25,0,0,0,.41-4.3,6.82,6.82,0,0,0-.92-3.88,3.15,3.15,0,0,0-2.77-1.33,6,6,0,0,0-4.55,2.5,19.47,19.47,0,0,0-3.42,6.91l-7,32.84H207.46L218.3,105H233l-1.12,5.32a17.86,17.86,0,0,1,5.52-4.3,14.72,14.72,0,0,1,6.45-1.43c3.61,0,6.41,1,8.38,3s3,4.84,3,8.59a33.41,33.41,0,0,1-.56,5.57q-.57,3.22-2.2,9.88c-.89,3.47-1.47,5.93-1.74,7.36a20.07,20.07,0,0,0-.41,3.58,4.51,4.51,0,0,0,1,3.22,4,4,0,0,0,3.07,1.08,6.18,6.18,0,0,0,4.4-1.74q1.85-1.74,4.2-7.27h4.29Q264,147.33,259.37,152a15.05,15.05,0,0,1-11.09,4.71c-3.83,0-6.79-1-8.91-3.12A11.31,11.31,0,0,1,236.2,145.18Z"/><path class="cls-3" d="M302.29,146.82a6.23,6.23,0,0,0,4.6-2.15,16.3,16.3,0,0,0,3.38-6.24L317.43,105h14.73L322,152.44a18.91,18.91,0,0,0,8-5.16,26.47,26.47,0,0,0,4.86-9.47h4.3a31.68,31.68,0,0,1-6.7,12.49,23.67,23.67,0,0,1-11.41,6.64l-1.54,7.37q-1.83,8.59-6.44,13t-12,4.4a12.44,12.44,0,0,1-8.34-2.66,9,9,0,0,1-3.12-7.26,11.74,11.74,0,0,1,4.15-8.85q4.14-3.84,12.53-6.39l1.23-5.53a17.83,17.83,0,0,1-5.58,4.3,15.47,15.47,0,0,1-6.7,1.43,10.27,10.27,0,0,1-8-3.22c-1.94-2.15-2.92-5.17-2.92-9.06a24.61,24.61,0,0,1,.21-3c.14-1.13.34-2.34.61-3.64l7-32.83h14.73l-7.37,34.78c-.06.41-.13.83-.2,1.28a8.16,8.16,0,0,0-.1,1.28,6.07,6.07,0,0,0,.76,3.32A2.57,2.57,0,0,0,302.29,146.82Zm3.07,14.83a25.83,25.83,0,0,0-7.57,4,6.08,6.08,0,0,0-2.46,4.66,3.24,3.24,0,0,0,1,2.35,3.35,3.35,0,0,0,2.46,1c1.16,0,2.28-.82,3.37-2.45a19.64,19.64,0,0,0,2.56-6.65Z"/><path class="cls-3" d="M333.49,140.37a47.8,47.8,0,0,1,7.05-24,26.92,26.92,0,0,1,9.11-9.15,23,23,0,0,1,11.87-3.12q6.54,0,9.82,4.09t3.27,12.27a2.08,2.08,0,0,0,.46.16,3.86,3.86,0,0,0,.66,0,21.25,21.25,0,0,0,7.58-1.74,39,39,0,0,0,8.18-4.4l.92,2.76a24.7,24.7,0,0,1-7.62,5.32,38.66,38.66,0,0,1-10.49,3.17q-1.23,13.81-8,22.31t-16.47,8.49q-8,0-12.17-4.1T333.49,140.37Zm28.84-30.07q-4.9,0-9.25,9.92A47,47,0,0,0,348.73,139q0,4.82,1.07,6.55c.72,1.16,2.1,1.74,4.15,1.74q3.78,0,7.21-6.14a42.92,42.92,0,0,0,4.65-15.14,3.05,3.05,0,0,1-2.09-1.38,5.45,5.45,0,0,1-.67-2.91,6.64,6.64,0,0,1,.82-3.38,5.11,5.11,0,0,1,2.35-2.15,10.07,10.07,0,0,0-1.07-4.6A3.11,3.11,0,0,0,362.33,110.3Z"/><path class="cls-3" d="M396.91,146.82a6.33,6.33,0,0,0,4.76-2.3,17.37,17.37,0,0,0,3.42-6.71l7-32.83h14.73l-7.37,34.78c-.13.61-.23,1.17-.3,1.69A11.66,11.66,0,0,0,419,143a3.75,3.75,0,0,0,1,2.92,4.77,4.77,0,0,0,3.22.87,6.41,6.41,0,0,0,4.81-2.36,17.36,17.36,0,0,0,3.48-6.65h4.29q-3.27,9.42-8.49,14.17a17.38,17.38,0,0,1-12.07,4.76,9.85,9.85,0,0,1-7.06-2.51,10.78,10.78,0,0,1-3.07-7.21,22,22,0,0,1-6.7,7.32,15.27,15.27,0,0,1-8.44,2.4,10.28,10.28,0,0,1-8-3.22Q379,150.3,379,144.46a26.57,26.57,0,0,1,.2-3c.14-1.13.34-2.34.62-3.64L386.78,105h14.73l-7.36,34.78a9.25,9.25,0,0,0-.26,1.48c0,.45-.05.91-.05,1.38a5.32,5.32,0,0,0,.77,3.12A2.64,2.64,0,0,0,396.91,146.82Z"/><path class="cls-3" d="M442.33,156.13H427.6L438.44,105h14.73l-1.33,6.34a39.23,39.23,0,0,1,7.11-5.06,11.78,11.78,0,0,1,5.27-1.28,6.47,6.47,0,0,1,5.11,2.2,7.93,7.93,0,0,1,1.95,5.47,7.38,7.38,0,0,1-2,5.32,7,7,0,0,1-5.32,2.15,4.06,4.06,0,0,1-2.71-.82,5.58,5.58,0,0,1-1.38-3.38,4.83,4.83,0,0,0-.71-2.09,1.43,1.43,0,0,0-1.13-.46,7.72,7.72,0,0,0-3.27.71,19,19,0,0,0-4.2,3.17Z"/><path class="cls-3" d="M523.86,113.67a3.05,3.05,0,0,1-2.66-1.58,6.58,6.58,0,0,1-1-3.63,5.09,5.09,0,0,1,1.68-4,6.83,6.83,0,0,1,4.66-1.49,5.52,5.52,0,0,1,4.81,2.35,11.37,11.37,0,0,1,1.63,6.55,68.42,68.42,0,0,1-6.65,28.44,33.71,33.71,0,0,1-9.82,12.28,21,21,0,0,1-12.68,4.19q-6,0-9.31-3.12t-3.27-9a20.89,20.89,0,0,1,.15-2.41c.1-.85.22-1.68.36-2.5L499.1,105h14.73l-7.36,34.78q-.21,1.13-.36,2.1a10.79,10.79,0,0,0-.15,1.58,3.4,3.4,0,0,0,.87,2.51,3.5,3.5,0,0,0,2.6.87q3.58,0,7-3.74a34.76,34.76,0,0,0,6.19-10.58,62.64,62.64,0,0,0,3.27-10.34,43.64,43.64,0,0,0,1.23-9.51c-.14.27-.56.51-1.28.72A7.4,7.4,0,0,1,523.86,113.67Z"/><path class="cls-3" d="M533.68,144.46a26.57,26.57,0,0,1,.2-3c.14-1.13.34-2.34.62-3.64l7-32.83h14.73l-7.36,34.78c-.14.61-.24,1.17-.31,1.69a11.66,11.66,0,0,0-.1,1.58,3.75,3.75,0,0,0,1,2.92,4.79,4.79,0,0,0,3.22.87,7.69,7.69,0,0,0,5.42-2.51,15.1,15.1,0,0,0,3.79-6.5h4.3q-3.29,9.31-8.8,14.12a18.74,18.74,0,0,1-12.69,4.81,10.28,10.28,0,0,1-8-3.22Q533.68,150.3,533.68,144.46Zm26.08-53.09a7.73,7.73,0,0,1-2.4,5.73,8,8,0,0,1-5.78,2.35,8,8,0,0,1-8.08-8.08,8,8,0,0,1,2.35-5.78,7.73,7.73,0,0,1,5.73-2.4,8.19,8.19,0,0,1,8.18,8.18Z"/><path class="cls-3" d="M593.93,139c0,.82,0,1.54-.1,2.15a13.12,13.12,0,0,1-.31,1.74q2-1.23,4-2.56a39.5,39.5,0,0,0,3.38-2.56h4.29a54.43,54.43,0,0,1-7,6.81,71.43,71.43,0,0,1-8.64,6,17.79,17.79,0,0,1-7.06,4.55,25.69,25.69,0,0,1-9,1.59q-6.86,0-10.89-3.73a12.2,12.2,0,0,1-4.05-9.36,11.21,11.21,0,0,1,1.54-5.78,9.06,9.06,0,0,1,3.89-3.74,140.37,140.37,0,0,0,6.49-13.35q3-7.11,6.09-16.93l15.14-2q.3,7.66.72,14t1,13.81q.3,4.31.41,6C593.89,136.83,593.93,138,593.93,139ZM577.15,114.9c-.88,2.8-2,5.71-3.22,8.75s-2.95,6.56-5.06,10.58a4.08,4.08,0,0,1,1.74,1.44,3.76,3.76,0,0,1,.61,2.14,5.14,5.14,0,0,1-1.33,3.48,4,4,0,0,1-3.17,1.54,3.86,3.86,0,0,1-1.74-.36,2.14,2.14,0,0,1-1-1q0,3.78,1.48,5.47c1,1.13,2.57,1.69,4.76,1.69a8.62,8.62,0,0,0,6.54-2.46c1.57-1.63,2.36-4,2.36-7.06,0-.95,0-1.92-.11-2.91s-.2-2.64-.41-5q-.51-4.82-.81-8.49C577.56,120.32,577.36,117.7,577.15,114.9Z"/><path class="cls-3" d="M600.07,144.46a26.57,26.57,0,0,1,.2-3c.14-1.13.34-2.34.62-3.64l7-32.83h14.73l-7.36,34.78c-.14.61-.24,1.17-.31,1.69a11.66,11.66,0,0,0-.1,1.58,3.75,3.75,0,0,0,1,2.92,4.79,4.79,0,0,0,3.22.87,7.69,7.69,0,0,0,5.42-2.51,15.1,15.1,0,0,0,3.79-6.5h4.29q-3.27,9.31-8.79,14.12A18.74,18.74,0,0,1,611,156.74a10.28,10.28,0,0,1-8-3.22Q600.07,150.3,600.07,144.46Zm26.08-53.09a7.73,7.73,0,0,1-2.4,5.73A8,8,0,0,1,618,99.45a8,8,0,0,1-8.08-8.08,8,8,0,0,1,2.35-5.78,7.73,7.73,0,0,1,5.73-2.4,8.19,8.19,0,0,1,8.18,8.18Z"/><path class="cls-3" d="M631.78,105h3.37l3.07-14.12,15.14-2L649.88,105H656l-.82,4.09h-6.13l-6.55,30.69c-.14.61-.24,1.17-.31,1.69a11.66,11.66,0,0,0-.1,1.58,3.75,3.75,0,0,0,1,2.92,4.79,4.79,0,0,0,3.22.87,7.73,7.73,0,0,0,5.43-2.51,15.19,15.19,0,0,0,3.78-6.5h4.3q-3.28,9.31-8.8,14.12a18.74,18.74,0,0,1-12.69,4.81,10.28,10.28,0,0,1-8-3.22q-2.91-3.22-2.91-9.06a26.57,26.57,0,0,1,.2-3c.14-1.13.35-2.34.62-3.64l6.14-28.74H631Z"/></g></g></svg>