<?xml version="1.0" encoding="utf-8"?>
<!-- Generator: Adobe Illustrator 24.0.1, SVG Export Plug-In . SVG Version: 6.00 Build 0)  -->
<svg version="1.1" id="Layer_1" xmlns="http://www.w3.org/2000/svg" xmlns:xlink="http://www.w3.org/1999/xlink" x="0px" y="0px"
	 viewBox="0 0 1583.8 866.5" style="enable-background:new 0 0 1583.8 866.5;" xml:space="preserve">
<style type="text/css">
	.st0{fill:#FFFFFF;}
	.st1{fill:#445E2B;}
	.st2{fill:#799D3E;}
</style>
<polygon points="792,56.2 0,56.2 0,311 792,311 1584,311 1584,56.2 "/>
<title>Road</title>
<rect x="650.2" y="178.2" class="st0" width="74.3" height="10.6"/>
<rect x="545.6" y="178.3" class="st0" width="74.3" height="10.6"/>
<rect x="440.8" y="178.3" class="st0" width="74.3" height="10.6"/>
<rect x="336.2" y="178.3" class="st0" width="74.3" height="10.6"/>
<rect x="231.6" y="178.3" class="st0" width="74.3" height="10.6"/>
<rect x="127" y="178.3" class="st0" width="74.3" height="10.6"/>
<rect x="22.4" y="178.2" class="st0" width="74.3" height="10.6"/>
<polygon class="st0" points="792,74 0,74 0,93.1 792,93.1 1584,93.1 1584,74 "/>
<polygon class="st1" points="792,37.1 0,37.1 0,56.2 792,56.2 1584,56.2 1584,37.1 "/>
<polygon class="st2" points="792,0 0,0 0,37.1 792,37.1 1584,37.1 1584,0 "/>
<polygon class="st1" points="792,310.7 0,310.7 0,329.8 792,329.8 1584,329.8 1584,310.7 "/>
<polygon class="st2" points="792,329.8 0,329.8 0,866.5 792,866.5 1584,866.5 1584,329.8 "/>
<polygon class="st0" points="792,274.1 0,274.1 0,293.2 792,293.2 1584,293.2 1584,274.1 "/>
<rect x="1393.9" y="178.2" class="st0" width="74.3" height="10.6"/>
<rect x="1509.5" y="178.2" class="st0" width="74.3" height="10.6"/>
<rect x="1289.3" y="178.3" class="st0" width="74.3" height="10.6"/>
<rect x="1184.5" y="178.3" class="st0" width="74.3" height="10.6"/>
<rect x="1079.9" y="178.3" class="st0" width="74.3" height="10.6"/>
<rect x="975.3" y="178.3" class="st0" width="74.3" height="10.6"/>
<rect x="870.7" y="178.3" class="st0" width="74.3" height="10.6"/>
<rect x="754.9" y="178.2" class="st0" width="74.3" height="10.6"/>
</svg>
