<svg xmlns="http://www.w3.org/2000/svg" viewBox="0 0 792 1003.34"><defs><style>.cls-1{fill:#599bbc;}</style></defs><title>Asset 4</title><g id="Layer_2" data-name="Layer 2"><g id="Layer_3" data-name="Layer 3"><path class="cls-1" d="M22.91,656.54l44.52,64a60.9,60.9,0,0,0,41,25.45l108.45,16.24a60.93,60.93,0,0,1,37,20.34l62,71.55a60.86,60.86,0,0,0,12.87,11.2L469.85,956.9a60.67,60.67,0,0,0,20.67,8.53l147.75,30.93a61.74,61.74,0,0,0,8.57,1.17l88.43,5.68A60.87,60.87,0,0,0,792,972.77V0H0V607.34l17.18,39A60.23,60.23,0,0,0,22.91,656.54Z"/></g></g></svg>