<?xml version="1.0" encoding="utf-8"?>
<!-- Generator: Adobe Illustrator 24.0.1, SVG Export Plug-In . SVG Version: 6.00 Build 0)  -->
<svg version="1.1" id="Layer_1" xmlns="http://www.w3.org/2000/svg" xmlns:xlink="http://www.w3.org/1999/xlink" x="0px" y="0px"
	 viewBox="0 0 374.5 488.5" style="enable-background:new 0 0 374.5 488.5;" xml:space="preserve">
<style type="text/css">
	.st0{fill:#441E0E;}
	.st1{fill:#678D3C;}
	.st2{fill:#607533;}
	.st3{fill:#1E351A;}
</style>
<title>Stand</title>
<g>
	<path class="st0" d="M156.8,0h67.6c7.3,0,13.2,5.9,13.2,13.2v377.5c0,7.3-5.9,13.2-13.2,13.2h-67.6c-7.3,0-13.2-5.9-13.2-13.2V13.2
		C143.6,5.9,149.5,0,156.8,0z"/>
	<path class="st1" d="M352.6,431c-0.1-14.8,1.6-29.5,5.1-43.8c2.3-9.1,2.7-18.5,1.2-27.8c-7.3-41.2-55.4-68.1-57.3-66.1
		c-0.7,0.7,5,4.8,9.4,13.1c17.5,33.2-49.5,81.8-30.5,93.5c17.5,10.8-24.8-15.9-28-31.8c-7-33.9,30.6-76.9,23.1-71.7
		c-5.6,3.9-22.2,0.9-37.4,10.6c-47.9,30.6-59.5,91.2-64.2,89.7c-3.3-1,10.1-28.3,3.7-58c-11-51-74.7-82.2-77.9-78.5
		c-1.3,1.5,9.2,8,15.6,21.2c29.8,61.8-40.9,151.1-45.5,148.9c-2.8-1.3,21.1-33.9,8.1-65.4c-10.4-25.2-40.3-39.6-43-36.8
		c-1.6,1.7,7,8.8,10.6,19.3c4.4,12.8,2.3,33.7-27.7,69c-5.9,6.9-9.1,15.6-9.1,24.7v31.7c0,4.6,3.7,8.3,8.3,8.3h327.4
		c4.6,0,8.3-3.7,8.3-8.3L352.6,431z"/>
	<path class="st2" d="M346.5,431c-0.1-14.8,1.6-29.5,5.1-43.8c2.3-9.1,2.7-18.5,1.2-27.8c-7.3-41.2-55.4-68.1-57.3-66.1
		c-0.7,0.7,5,4.8,9.3,13.1c17.5,33.2-49.5,81.8-30.5,93.5c17.5,10.8-24.8-15.9-28-31.8c-7-33.9,30.6-76.9,23-71.7
		c-5.6,3.9-22.2,0.9-37.4,10.6c-47.9,30.6-59.5,91.2-64.2,89.7c-3.3-1,10.1-28.3,3.7-58c-11-51-74.7-82.2-77.9-78.5
		c-1.3,1.5,9.2,8,15.6,21.2c29.8,61.8-40.9,151.1-45.5,148.9c-2.8-1.3,21.1-33.9,8.1-65.4c-10.4-25.2-40.3-39.6-43-36.8
		c-1.6,1.7,7,8.8,10.6,19.3c4.4,12.8,2.4,33.7-27.7,69c-5.9,6.9-9.1,15.6-9.1,24.7v31.7c0,4.6,3.7,8.3,8.3,8.3h327.4
		c4.6,0,8.3-3.7,8.3-8.3L346.5,431z"/>
	<path class="st3" d="M366.8,435c-0.1-15.7,1.7-31.4,5.4-46.7c2.5-9.7,2.9-19.8,1.2-29.6c-7.8-44-59-72.6-61.1-70.4
		c-0.8,0.8,5.3,5.1,10,14c18.6,35.4-52.8,87.2-32.6,99.7c18.6,11.5-26.4-17-29.9-33.9c-7.5-36.1,32.6-82,24.6-76.4
		c-5.9,4.1-23.7,1-39.9,11.3c-51,32.6-63.4,97.3-68.4,95.7c-3.5-1.1,10.8-30.2,4-61.8c-11.7-54.4-79.7-87.7-83.1-83.8
		c-1.4,1.6,9.8,8.5,16.6,22.6c31.8,65.9-43.6,161.1-48.5,158.8c-3-1.4,22.5-36.2,8.6-69.8c-11.1-26.8-43-42.3-45.9-39.2
		c-1.7,1.8,7.5,9.4,11.3,20.6c4.7,13.6,2.5,36-29.5,73.5C3.4,426.9,0,436.2,0,445.9v33.8c0,4.9,4,8.9,8.8,8.9c0,0,0,0,0,0H358
		c4.9,0,8.8-4,8.8-8.8c0,0,0,0,0,0L366.8,435z"/>
</g>
</svg>
