<svg xmlns="http://www.w3.org/2000/svg" viewBox="0 0 289.72 193.97"><defs><style>.cls-1{fill:#716c2c;}.cls-2{fill:#1e351a;}</style></defs><title>Asset 1</title><g id="Layer_2" data-name="Layer 2"><g id="Layer_1-2" data-name="Layer 1"><path class="cls-1" d="M194.19,31.2c12.95-6.07,30.82-7.23,49-2,21,6.06,37,19.11,43.44,33.42,3.45-20.38-16.39-43-46.09-51.55-22.75-6.58-45-3.14-57.73,7.4A57,57,0,0,1,194.19,31.2Z"/><path class="cls-1" d="M93,33a81.06,81.06,0,0,1,30.19,3c21.14,6.12,37.28,19.32,43.59,33.77,2.55-20.08-17.11-42-46.27-50.42a80.9,80.9,0,0,0-29.76-3A63.58,63.58,0,0,0,78,18.74,62.16,62.16,0,0,1,93,33Z"/><path class="cls-1" d="M52.5,154.15a36.24,36.24,0,0,0-6.41-18.57C38.3,123.75,24,113.47,6,108.28c-2-.59-4-1.09-6-1.52v8.55c2.54.49,5.1,1.09,7.67,1.84C30.38,123.72,47.32,138.46,52.5,154.15Z"/><path class="cls-2" d="M286.66,62.66c-6.42-14.31-22.47-27.36-43.44-33.42-18.21-5.27-36.08-4.11-49,2a56.91,56.91,0,0,0-11.35-12.69,79.79,79.79,0,0,0-29.09-15.2c-26.35-7.62-52-1.8-63,12.92a80.9,80.9,0,0,1,29.76,3c29.16,8.43,48.82,30.34,46.27,50.42C160.46,55.28,144.32,42.08,123.18,36A81,81,0,0,0,93,33,62.16,62.16,0,0,0,78,18.74,82.43,82.43,0,0,0,54.32,7.65C33.48,1.62,13.08,4,0,12.55v94.21c2,.43,4,.93,6,1.52,17.93,5.19,32.26,15.47,40.05,27.3a38.55,38.55,0,0,1,6,14.09c-5.71-15.15-22.3-29.2-44.32-35.57-2.57-.75-5.13-1.35-7.67-1.84v81.23c25.59,2.81,47.92-7,53.08-24.79a28.36,28.36,0,0,0,.53-13.3c20.87-.62,37.89-10,42.31-25.22a30.1,30.1,0,0,0-1.42-19.89c2.12.8,4.3,1.54,6.54,2.19a81.67,81.67,0,0,0,27.85,3.19c6.21,14.58,22.44,27.93,43.73,34.09,31.19,9,61.44-.79,67.55-21.92a29.82,29.82,0,0,0-1-18.91c24.06,1.56,44.58-8.1,49.5-25.09C290.63,76.91,289.78,69.64,286.66,62.66Z"/></g></g></svg>