<svg xmlns="http://www.w3.org/2000/svg" viewBox="0 0 315.6 207.37"><defs><style>.cls-1{fill:none;}.cls-2{fill:#716c2c;}.cls-3{fill:#1e351a;}</style></defs><title>Asset 2</title><g id="Layer_2" data-name="Layer 2"><g id="Layer_1-2" data-name="Layer 1"><path class="cls-1" d="M315.6,64.25V62c-.32.76-.68,1.52-1.06,2.28Z"/><path class="cls-2" d="M62.34,20.8C81,17.24,98.65,20.05,111,27.3q1.45-1.86,3.15-3.65C106.24,5.76,79.6-4,50.76,1.56,18.86,7.65-3.64,30.11.49,51.71c1.35,7.09,5.42,13.2,11.38,18C8.85,48.47,31.08,26.78,62.34,20.8Z"/><path class="cls-2" d="M185.45,22.29C155.64,28,134,48,134.71,68.21c7.63-13.81,24.92-25.46,46.54-29.59a80.78,80.78,0,0,1,30.33-.19,62.09,62.09,0,0,1,16.2-12.77A62.42,62.42,0,0,0,215.37,22,80.92,80.92,0,0,0,185.45,22.29Z"/><path class="cls-2" d="M305.9,75.91a76.74,76.74,0,0,1,9.7.8V64.25h-1.06A45.76,45.76,0,0,1,305.9,75.91Z"/><path class="cls-2" d="M291.18,121.48C272.84,125,257.62,133.9,248.77,145a36.3,36.3,0,0,0-8.1,17.9c6.61-15.14,24.84-28.25,48.06-32.69a82.16,82.16,0,0,1,26.87-.77v-9A82.67,82.67,0,0,0,291.18,121.48Z"/><path class="cls-3" d="M315.6,62V38.56c-8.12-17.63-34.55-27.19-63.17-21.72a82,82,0,0,0-24.65,8.84A62.13,62.13,0,0,0,211.6,38.43a80.78,80.78,0,0,0-30.33.19c-21.62,4.13-38.91,15.78-46.54,29.59C134.06,48,155.66,28,185.47,22.29A80.92,80.92,0,0,1,215.39,22c-9.61-15.68-34.63-23.85-61.57-18.7-16.57,3.17-30.59,10.75-39.67,20.33C113,24.84,112,26.05,111,27.3c-12.33-7.25-30-10.06-48.64-6.5C31.1,26.8,8.87,48.47,11.89,69.68c.06.42.12.85.2,1.28,3.32,17.37,22.86,28.89,47,29.58a29.82,29.82,0,0,0-2.79,18.73c4.13,21.6,33.33,34.17,65.23,28.08,21.78-4.16,39.17-15.95,46.7-29.89a81.53,81.53,0,0,0,28-.6c2.29-.44,4.53-1,6.71-1.57A30.09,30.09,0,0,0,199.69,135c3,15.57,19,26.44,39.65,29a28.4,28.4,0,0,0-.85,13.79c4.13,21.61,33.33,34.18,65.23,28.08a85.58,85.58,0,0,0,11.88-3.16V126.84a81.62,81.62,0,0,0-26.87.77c-22.19,4.24-39.81,16.4-47.11,30.68A38.64,38.64,0,0,1,248.77,145c8.85-11,24.07-20,42.41-23.47a82.33,82.33,0,0,1,24.42-1.07V76.71a76.74,76.74,0,0,0-9.7-.8,45.79,45.79,0,0,0,8.64-11.62C314.92,63.56,315.28,62.77,315.6,62Z"/></g></g></svg>